%TF.GenerationSoftware,KiCad,Pcbnew,7.0.9*%
%TF.CreationDate,2024-01-03T17:03:04-06:00*%
%TF.ProjectId,AnalogSequencerFaceplate,416e616c-6f67-4536-9571-75656e636572,rev?*%
%TF.SameCoordinates,Original*%
%TF.FileFunction,Profile,NP*%
%FSLAX46Y46*%
G04 Gerber Fmt 4.6, Leading zero omitted, Abs format (unit mm)*
G04 Created by KiCad (PCBNEW 7.0.9) date 2024-01-03 17:03:04*
%MOMM*%
%LPD*%
G01*
G04 APERTURE LIST*
%TA.AperFunction,Profile*%
%ADD10C,0.100000*%
%TD*%
G04 APERTURE END LIST*
D10*
X289865000Y-177415000D02*
G75*
G03*
X289865000Y-177415000I-2550000J0D01*
G01*
X132875000Y-146665000D02*
G75*
G03*
X132875000Y-146665000I-2550000J0D01*
G01*
X123900000Y-170000000D02*
G75*
G03*
X123900000Y-170000000I-2550000J0D01*
G01*
X90550000Y-169865200D02*
G75*
G03*
X90550000Y-169865200I-2550000J0D01*
G01*
X99050000Y-169773600D02*
G75*
G03*
X99050000Y-169773600I-2550000J0D01*
G01*
X240125000Y-128415000D02*
G75*
G03*
X240125000Y-128415000I-2550000J0D01*
G01*
X289874800Y-142900400D02*
G75*
G03*
X289874800Y-142900400I-2550000J0D01*
G01*
X320862800Y-142900400D02*
G75*
G03*
X320862800Y-142900400I-2550000J0D01*
G01*
X240175000Y-169665000D02*
G75*
G03*
X240175000Y-169665000I-2550000J0D01*
G01*
X262325000Y-190665000D02*
G75*
G03*
X262325000Y-190665000I-2550000J0D01*
G01*
X219075000Y-169665000D02*
G75*
G03*
X219075000Y-169665000I-2550000J0D01*
G01*
X193575000Y-169665000D02*
G75*
G03*
X193575000Y-169665000I-2550000J0D01*
G01*
X219075000Y-151915000D02*
G75*
G03*
X219075000Y-151915000I-2550000J0D01*
G01*
X193575000Y-151915000D02*
G75*
G03*
X193575000Y-151915000I-2550000J0D01*
G01*
X219075000Y-133265000D02*
G75*
G03*
X219075000Y-133265000I-2550000J0D01*
G01*
X193575000Y-133265000D02*
G75*
G03*
X193575000Y-133265000I-2550000J0D01*
G01*
X219075000Y-113665000D02*
G75*
G03*
X219075000Y-113665000I-2550000J0D01*
G01*
X193575000Y-113665000D02*
G75*
G03*
X193575000Y-113665000I-2550000J0D01*
G01*
X219610000Y-95665000D02*
G75*
G03*
X219610000Y-95665000I-3100000J0D01*
G01*
X194110000Y-95665000D02*
G75*
G03*
X194110000Y-95665000I-3100000J0D01*
G01*
X233475000Y-93775000D02*
G75*
G03*
X233475000Y-93775000I-1600000J0D01*
G01*
X256875000Y-93775000D02*
G75*
G03*
X256875000Y-93775000I-1600000J0D01*
G01*
X174625000Y-132415000D02*
G75*
G03*
X174625000Y-132415000I-1600000J0D01*
G01*
X240125000Y-95415000D02*
G75*
G03*
X240125000Y-95415000I-2550000J0D01*
G01*
X240125000Y-113665000D02*
G75*
G03*
X240125000Y-113665000I-2550000J0D01*
G01*
X240125000Y-137415000D02*
G75*
G03*
X240125000Y-137415000I-2550000J0D01*
G01*
X240075000Y-151915000D02*
G75*
G03*
X240075000Y-151915000I-2550000J0D01*
G01*
X132875000Y-135165000D02*
G75*
G03*
X132875000Y-135165000I-2550000J0D01*
G01*
X107575000Y-135165000D02*
G75*
G03*
X107575000Y-135165000I-2550000J0D01*
G01*
X107575000Y-146665000D02*
G75*
G03*
X107575000Y-146665000I-2550000J0D01*
G01*
X233475000Y-132425000D02*
G75*
G03*
X233475000Y-132425000I-1600000J0D01*
G01*
X200225000Y-132415000D02*
G75*
G03*
X200225000Y-132415000I-1600000J0D01*
G01*
X82275000Y-146665000D02*
G75*
G03*
X82275000Y-146665000I-2550000J0D01*
G01*
X82275000Y-135165000D02*
G75*
G03*
X82275000Y-135165000I-2550000J0D01*
G01*
X321625000Y-184415000D02*
G75*
G03*
X321625000Y-184415000I-3100000J0D01*
G01*
X305925000Y-142415000D02*
G75*
G03*
X305925000Y-142415000I-3250000J0D01*
G01*
X275525000Y-180415000D02*
G75*
G03*
X275525000Y-180415000I-3250000J0D01*
G01*
X305925000Y-184415000D02*
G75*
G03*
X305925000Y-184415000I-3250000J0D01*
G01*
X316085000Y-161415000D02*
G75*
G03*
X316085000Y-161415000I-3250000J0D01*
G01*
X295875000Y-161415000D02*
G75*
G03*
X295875000Y-161415000I-3250000J0D01*
G01*
X316025000Y-123415000D02*
G75*
G03*
X316025000Y-123415000I-3250000J0D01*
G01*
X295775000Y-123415000D02*
G75*
G03*
X295775000Y-123415000I-3250000J0D01*
G01*
X316025000Y-104415000D02*
G75*
G03*
X316025000Y-104415000I-3250000J0D01*
G01*
X295775000Y-104415000D02*
G75*
G03*
X295775000Y-104415000I-3250000J0D01*
G01*
X275525000Y-104415000D02*
G75*
G03*
X275525000Y-104415000I-3250000J0D01*
G01*
X275525000Y-161415000D02*
G75*
G03*
X275525000Y-161415000I-3250000J0D01*
G01*
X275525000Y-142415000D02*
G75*
G03*
X275525000Y-142415000I-3250000J0D01*
G01*
X275525000Y-123415000D02*
G75*
G03*
X275525000Y-123415000I-3250000J0D01*
G01*
X230025000Y-142415000D02*
G75*
G03*
X230025000Y-142415000I-3250000J0D01*
G01*
X230025000Y-123415000D02*
G75*
G03*
X230025000Y-123415000I-3250000J0D01*
G01*
X251775000Y-142415000D02*
G75*
G03*
X251775000Y-142415000I-3250000J0D01*
G01*
X251775000Y-123415000D02*
G75*
G03*
X251775000Y-123415000I-3250000J0D01*
G01*
X251775000Y-104415000D02*
G75*
G03*
X251775000Y-104415000I-3250000J0D01*
G01*
X230025000Y-104415000D02*
G75*
G03*
X230025000Y-104415000I-3250000J0D01*
G01*
X230025000Y-161415000D02*
G75*
G03*
X230025000Y-161415000I-3250000J0D01*
G01*
X209775000Y-104415000D02*
G75*
G03*
X209775000Y-104415000I-3250000J0D01*
G01*
X209775000Y-142415000D02*
G75*
G03*
X209775000Y-142415000I-3250000J0D01*
G01*
X209775000Y-123415000D02*
G75*
G03*
X209775000Y-123415000I-3250000J0D01*
G01*
X209775000Y-161415000D02*
G75*
G03*
X209775000Y-161415000I-3250000J0D01*
G01*
X133625000Y-161415000D02*
G75*
G03*
X133625000Y-161415000I-3250000J0D01*
G01*
X108325000Y-161415000D02*
G75*
G03*
X108325000Y-161415000I-3250000J0D01*
G01*
X83025000Y-161415000D02*
G75*
G03*
X83025000Y-161415000I-3250000J0D01*
G01*
X184275000Y-161415000D02*
G75*
G03*
X184275000Y-161415000I-3250000J0D01*
G01*
X184275000Y-142415000D02*
G75*
G03*
X184275000Y-142415000I-3250000J0D01*
G01*
X184275000Y-123415000D02*
G75*
G03*
X184275000Y-123415000I-3250000J0D01*
G01*
X184275000Y-104415000D02*
G75*
G03*
X184275000Y-104415000I-3250000J0D01*
G01*
X158775000Y-104415000D02*
G75*
G03*
X158775000Y-104415000I-3250000J0D01*
G01*
X150025000Y-142415000D02*
G75*
G03*
X150025000Y-142415000I-3250000J0D01*
G01*
X150025000Y-161415000D02*
G75*
G03*
X150025000Y-161415000I-3250000J0D01*
G01*
X167025000Y-161415000D02*
G75*
G03*
X167025000Y-161415000I-3250000J0D01*
G01*
X167025000Y-142415000D02*
G75*
G03*
X167025000Y-142415000I-3250000J0D01*
G01*
X167025000Y-123415000D02*
G75*
G03*
X167025000Y-123415000I-3250000J0D01*
G01*
X150025000Y-123415000D02*
G75*
G03*
X150025000Y-123415000I-3250000J0D01*
G01*
X133525000Y-123415000D02*
G75*
G03*
X133525000Y-123415000I-3250000J0D01*
G01*
X133525000Y-104415000D02*
G75*
G03*
X133525000Y-104415000I-3250000J0D01*
G01*
X108275000Y-104415000D02*
G75*
G03*
X108275000Y-104415000I-3250000J0D01*
G01*
X108275000Y-123415000D02*
G75*
G03*
X108275000Y-123415000I-3250000J0D01*
G01*
X82975000Y-123415000D02*
G75*
G03*
X82975000Y-123415000I-3250000J0D01*
G01*
X82975000Y-104415000D02*
G75*
G03*
X82975000Y-104415000I-3250000J0D01*
G01*
X262875000Y-114415000D02*
G75*
G03*
X262875000Y-114415000I-3100000J0D01*
G01*
X262875000Y-133415000D02*
G75*
G03*
X262875000Y-133415000I-3100000J0D01*
G01*
X262875000Y-152415000D02*
G75*
G03*
X262875000Y-152415000I-3100000J0D01*
G01*
X262875000Y-171665000D02*
G75*
G03*
X262875000Y-171665000I-3100000J0D01*
G01*
X145375000Y-192915000D02*
G75*
G03*
X145375000Y-192915000I-3100000J0D01*
G01*
X197375000Y-192915000D02*
G75*
G03*
X197375000Y-192915000I-3100000J0D01*
G01*
X210375000Y-192915000D02*
G75*
G03*
X210375000Y-192915000I-3100000J0D01*
G01*
X106375000Y-192915000D02*
G75*
G03*
X106375000Y-192915000I-3100000J0D01*
G01*
X223375000Y-192915000D02*
G75*
G03*
X223375000Y-192915000I-3100000J0D01*
G01*
X132375000Y-192915000D02*
G75*
G03*
X132375000Y-192915000I-3100000J0D01*
G01*
X93375000Y-192915000D02*
G75*
G03*
X93375000Y-192915000I-3100000J0D01*
G01*
X119375000Y-192915000D02*
G75*
G03*
X119375000Y-192915000I-3100000J0D01*
G01*
X184375000Y-192915000D02*
G75*
G03*
X184375000Y-192915000I-3100000J0D01*
G01*
X80375000Y-192915000D02*
G75*
G03*
X80375000Y-192915000I-3100000J0D01*
G01*
X171375000Y-192915000D02*
G75*
G03*
X171375000Y-192915000I-3100000J0D01*
G01*
X158375000Y-192915000D02*
G75*
G03*
X158375000Y-192915000I-3100000J0D01*
G01*
X236375000Y-192915000D02*
G75*
G03*
X236375000Y-192915000I-3100000J0D01*
G01*
X236375000Y-180665000D02*
G75*
G03*
X236375000Y-180665000I-3100000J0D01*
G01*
X223375000Y-180665000D02*
G75*
G03*
X223375000Y-180665000I-3100000J0D01*
G01*
X210375000Y-180665000D02*
G75*
G03*
X210375000Y-180665000I-3100000J0D01*
G01*
X197375000Y-180665000D02*
G75*
G03*
X197375000Y-180665000I-3100000J0D01*
G01*
X184375000Y-180665000D02*
G75*
G03*
X184375000Y-180665000I-3100000J0D01*
G01*
X171375000Y-180665000D02*
G75*
G03*
X171375000Y-180665000I-3100000J0D01*
G01*
X158375000Y-180665000D02*
G75*
G03*
X158375000Y-180665000I-3100000J0D01*
G01*
X145375000Y-180665000D02*
G75*
G03*
X145375000Y-180665000I-3100000J0D01*
G01*
X132375000Y-180665000D02*
G75*
G03*
X132375000Y-180665000I-3100000J0D01*
G01*
X119375000Y-180665000D02*
G75*
G03*
X119375000Y-180665000I-3100000J0D01*
G01*
X106375000Y-180665000D02*
G75*
G03*
X106375000Y-180665000I-3100000J0D01*
G01*
X93375000Y-180665000D02*
G75*
G03*
X93375000Y-180665000I-3100000J0D01*
G01*
X80375000Y-180665000D02*
G75*
G03*
X80375000Y-180665000I-3100000J0D01*
G01*
X191920000Y-202150000D02*
X196920000Y-202150000D01*
X318920000Y-202150000D02*
G75*
G03*
X318920000Y-205350000I0J-1600000D01*
G01*
X191920000Y-79650000D02*
X196920000Y-79650000D01*
X65080000Y-78250000D02*
X328980000Y-78250000D01*
X328980000Y-206800000D01*
X65080000Y-206800000D01*
X65080000Y-78250000D01*
X191920000Y-79650000D02*
G75*
G03*
X191920000Y-82850000I0J-1600000D01*
G01*
X70000000Y-79650000D02*
X75000000Y-79650000D01*
X191920000Y-82850000D02*
X196920000Y-82850000D01*
X75000000Y-205350000D02*
G75*
G03*
X75000000Y-202150000I0J1600000D01*
G01*
X196920000Y-205350000D02*
G75*
G03*
X196920000Y-202150000I0J1600000D01*
G01*
X191920000Y-202150000D02*
G75*
G03*
X191920000Y-205350000I0J-1600000D01*
G01*
X70000000Y-205350000D02*
X75000000Y-205350000D01*
X70000000Y-202150000D02*
X75000000Y-202150000D01*
X323920000Y-205350000D02*
G75*
G03*
X323920000Y-202150000I0J1600000D01*
G01*
X70000000Y-202150000D02*
G75*
G03*
X70000000Y-205350000I0J-1600000D01*
G01*
X318920000Y-202150000D02*
X323920000Y-202150000D01*
X318920000Y-79650000D02*
G75*
G03*
X318920000Y-82850000I0J-1600000D01*
G01*
X75000000Y-82850000D02*
G75*
G03*
X75000000Y-79650000I0J1600000D01*
G01*
X70000000Y-82850000D02*
X75000000Y-82850000D01*
X318920000Y-205350000D02*
X323920000Y-205350000D01*
X318920000Y-79650000D02*
X323920000Y-79650000D01*
X196920000Y-82850000D02*
G75*
G03*
X196920000Y-79650000I0J1600000D01*
G01*
X70000000Y-79650000D02*
G75*
G03*
X70000000Y-82850000I0J-1600000D01*
G01*
X318920000Y-82850000D02*
X323920000Y-82850000D01*
X191920000Y-205350000D02*
X196920000Y-205350000D01*
X323920000Y-82850000D02*
G75*
G03*
X323920000Y-79650000I0J1600000D01*
G01*
M02*
