%TF.GenerationSoftware,KiCad,Pcbnew,7.0.9*%
%TF.CreationDate,2023-12-27T11:06:13-06:00*%
%TF.ProjectId,SynthProj,53796e74-6850-4726-9f6a-2e6b69636164,rev?*%
%TF.SameCoordinates,Original*%
%TF.FileFunction,Legend,Bot*%
%TF.FilePolarity,Positive*%
%FSLAX46Y46*%
G04 Gerber Fmt 4.6, Leading zero omitted, Abs format (unit mm)*
G04 Created by KiCad (PCBNEW 7.0.9) date 2023-12-27 11:06:13*
%MOMM*%
%LPD*%
G01*
G04 APERTURE LIST*
%ADD10C,0.600000*%
%ADD11C,0.150000*%
%ADD12C,0.120000*%
G04 APERTURE END LIST*
D10*
X319532000Y-242570000D02*
X324612000Y-242570000D01*
D11*
X267704762Y-125400057D02*
X267752381Y-125352438D01*
X267752381Y-125352438D02*
X267847619Y-125304819D01*
X267847619Y-125304819D02*
X268085714Y-125304819D01*
X268085714Y-125304819D02*
X268180952Y-125352438D01*
X268180952Y-125352438D02*
X268228571Y-125400057D01*
X268228571Y-125400057D02*
X268276190Y-125495295D01*
X268276190Y-125495295D02*
X268276190Y-125590533D01*
X268276190Y-125590533D02*
X268228571Y-125733390D01*
X268228571Y-125733390D02*
X267657143Y-126304819D01*
X267657143Y-126304819D02*
X268276190Y-126304819D01*
X269180952Y-125304819D02*
X268704762Y-125304819D01*
X268704762Y-125304819D02*
X268657143Y-125781009D01*
X268657143Y-125781009D02*
X268704762Y-125733390D01*
X268704762Y-125733390D02*
X268800000Y-125685771D01*
X268800000Y-125685771D02*
X269038095Y-125685771D01*
X269038095Y-125685771D02*
X269133333Y-125733390D01*
X269133333Y-125733390D02*
X269180952Y-125781009D01*
X269180952Y-125781009D02*
X269228571Y-125876247D01*
X269228571Y-125876247D02*
X269228571Y-126114342D01*
X269228571Y-126114342D02*
X269180952Y-126209580D01*
X269180952Y-126209580D02*
X269133333Y-126257200D01*
X269133333Y-126257200D02*
X269038095Y-126304819D01*
X269038095Y-126304819D02*
X268800000Y-126304819D01*
X268800000Y-126304819D02*
X268704762Y-126257200D01*
X268704762Y-126257200D02*
X268657143Y-126209580D01*
X270085714Y-125638152D02*
X270085714Y-126304819D01*
X269847619Y-125257200D02*
X269609524Y-125971485D01*
X269609524Y-125971485D02*
X270228571Y-125971485D01*
X270609524Y-126209580D02*
X270657143Y-126257200D01*
X270657143Y-126257200D02*
X270609524Y-126304819D01*
X270609524Y-126304819D02*
X270561905Y-126257200D01*
X270561905Y-126257200D02*
X270609524Y-126209580D01*
X270609524Y-126209580D02*
X270609524Y-126304819D01*
X271276190Y-125304819D02*
X271371428Y-125304819D01*
X271371428Y-125304819D02*
X271466666Y-125352438D01*
X271466666Y-125352438D02*
X271514285Y-125400057D01*
X271514285Y-125400057D02*
X271561904Y-125495295D01*
X271561904Y-125495295D02*
X271609523Y-125685771D01*
X271609523Y-125685771D02*
X271609523Y-125923866D01*
X271609523Y-125923866D02*
X271561904Y-126114342D01*
X271561904Y-126114342D02*
X271514285Y-126209580D01*
X271514285Y-126209580D02*
X271466666Y-126257200D01*
X271466666Y-126257200D02*
X271371428Y-126304819D01*
X271371428Y-126304819D02*
X271276190Y-126304819D01*
X271276190Y-126304819D02*
X271180952Y-126257200D01*
X271180952Y-126257200D02*
X271133333Y-126209580D01*
X271133333Y-126209580D02*
X271085714Y-126114342D01*
X271085714Y-126114342D02*
X271038095Y-125923866D01*
X271038095Y-125923866D02*
X271038095Y-125685771D01*
X271038095Y-125685771D02*
X271085714Y-125495295D01*
X271085714Y-125495295D02*
X271133333Y-125400057D01*
X271133333Y-125400057D02*
X271180952Y-125352438D01*
X271180952Y-125352438D02*
X271276190Y-125304819D01*
X272228571Y-125304819D02*
X272323809Y-125304819D01*
X272323809Y-125304819D02*
X272419047Y-125352438D01*
X272419047Y-125352438D02*
X272466666Y-125400057D01*
X272466666Y-125400057D02*
X272514285Y-125495295D01*
X272514285Y-125495295D02*
X272561904Y-125685771D01*
X272561904Y-125685771D02*
X272561904Y-125923866D01*
X272561904Y-125923866D02*
X272514285Y-126114342D01*
X272514285Y-126114342D02*
X272466666Y-126209580D01*
X272466666Y-126209580D02*
X272419047Y-126257200D01*
X272419047Y-126257200D02*
X272323809Y-126304819D01*
X272323809Y-126304819D02*
X272228571Y-126304819D01*
X272228571Y-126304819D02*
X272133333Y-126257200D01*
X272133333Y-126257200D02*
X272085714Y-126209580D01*
X272085714Y-126209580D02*
X272038095Y-126114342D01*
X272038095Y-126114342D02*
X271990476Y-125923866D01*
X271990476Y-125923866D02*
X271990476Y-125685771D01*
X271990476Y-125685771D02*
X272038095Y-125495295D01*
X272038095Y-125495295D02*
X272085714Y-125400057D01*
X272085714Y-125400057D02*
X272133333Y-125352438D01*
X272133333Y-125352438D02*
X272228571Y-125304819D01*
X273180952Y-125304819D02*
X273276190Y-125304819D01*
X273276190Y-125304819D02*
X273371428Y-125352438D01*
X273371428Y-125352438D02*
X273419047Y-125400057D01*
X273419047Y-125400057D02*
X273466666Y-125495295D01*
X273466666Y-125495295D02*
X273514285Y-125685771D01*
X273514285Y-125685771D02*
X273514285Y-125923866D01*
X273514285Y-125923866D02*
X273466666Y-126114342D01*
X273466666Y-126114342D02*
X273419047Y-126209580D01*
X273419047Y-126209580D02*
X273371428Y-126257200D01*
X273371428Y-126257200D02*
X273276190Y-126304819D01*
X273276190Y-126304819D02*
X273180952Y-126304819D01*
X273180952Y-126304819D02*
X273085714Y-126257200D01*
X273085714Y-126257200D02*
X273038095Y-126209580D01*
X273038095Y-126209580D02*
X272990476Y-126114342D01*
X272990476Y-126114342D02*
X272942857Y-125923866D01*
X272942857Y-125923866D02*
X272942857Y-125685771D01*
X272942857Y-125685771D02*
X272990476Y-125495295D01*
X272990476Y-125495295D02*
X273038095Y-125400057D01*
X273038095Y-125400057D02*
X273085714Y-125352438D01*
X273085714Y-125352438D02*
X273180952Y-125304819D01*
X274133333Y-125304819D02*
X274228571Y-125304819D01*
X274228571Y-125304819D02*
X274323809Y-125352438D01*
X274323809Y-125352438D02*
X274371428Y-125400057D01*
X274371428Y-125400057D02*
X274419047Y-125495295D01*
X274419047Y-125495295D02*
X274466666Y-125685771D01*
X274466666Y-125685771D02*
X274466666Y-125923866D01*
X274466666Y-125923866D02*
X274419047Y-126114342D01*
X274419047Y-126114342D02*
X274371428Y-126209580D01*
X274371428Y-126209580D02*
X274323809Y-126257200D01*
X274323809Y-126257200D02*
X274228571Y-126304819D01*
X274228571Y-126304819D02*
X274133333Y-126304819D01*
X274133333Y-126304819D02*
X274038095Y-126257200D01*
X274038095Y-126257200D02*
X273990476Y-126209580D01*
X273990476Y-126209580D02*
X273942857Y-126114342D01*
X273942857Y-126114342D02*
X273895238Y-125923866D01*
X273895238Y-125923866D02*
X273895238Y-125685771D01*
X273895238Y-125685771D02*
X273942857Y-125495295D01*
X273942857Y-125495295D02*
X273990476Y-125400057D01*
X273990476Y-125400057D02*
X274038095Y-125352438D01*
X274038095Y-125352438D02*
X274133333Y-125304819D01*
X275657143Y-126304819D02*
X275657143Y-125638152D01*
X275657143Y-125733390D02*
X275704762Y-125685771D01*
X275704762Y-125685771D02*
X275800000Y-125638152D01*
X275800000Y-125638152D02*
X275942857Y-125638152D01*
X275942857Y-125638152D02*
X276038095Y-125685771D01*
X276038095Y-125685771D02*
X276085714Y-125781009D01*
X276085714Y-125781009D02*
X276085714Y-126304819D01*
X276085714Y-125781009D02*
X276133333Y-125685771D01*
X276133333Y-125685771D02*
X276228571Y-125638152D01*
X276228571Y-125638152D02*
X276371428Y-125638152D01*
X276371428Y-125638152D02*
X276466667Y-125685771D01*
X276466667Y-125685771D02*
X276514286Y-125781009D01*
X276514286Y-125781009D02*
X276514286Y-126304819D01*
X276990476Y-126304819D02*
X276990476Y-125638152D01*
X276990476Y-125733390D02*
X277038095Y-125685771D01*
X277038095Y-125685771D02*
X277133333Y-125638152D01*
X277133333Y-125638152D02*
X277276190Y-125638152D01*
X277276190Y-125638152D02*
X277371428Y-125685771D01*
X277371428Y-125685771D02*
X277419047Y-125781009D01*
X277419047Y-125781009D02*
X277419047Y-126304819D01*
X277419047Y-125781009D02*
X277466666Y-125685771D01*
X277466666Y-125685771D02*
X277561904Y-125638152D01*
X277561904Y-125638152D02*
X277704761Y-125638152D01*
X277704761Y-125638152D02*
X277800000Y-125685771D01*
X277800000Y-125685771D02*
X277847619Y-125781009D01*
X277847619Y-125781009D02*
X277847619Y-126304819D01*
X145800000Y-136500000D02*
X145800000Y-126413580D01*
X399800000Y-136500000D02*
X399800000Y-126413580D01*
X145800000Y-127000000D02*
X399800000Y-127000000D01*
X145800000Y-127000000D02*
X399800000Y-127000000D01*
X145800000Y-127000000D02*
X146926504Y-126413579D01*
X145800000Y-127000000D02*
X146926504Y-127586421D01*
X399800000Y-127000000D02*
X398673496Y-127586421D01*
X399800000Y-127000000D02*
X398673496Y-126413579D01*
X322405333Y-243294819D02*
X322405333Y-244009104D01*
X322405333Y-244009104D02*
X322452952Y-244151961D01*
X322452952Y-244151961D02*
X322548190Y-244247200D01*
X322548190Y-244247200D02*
X322691047Y-244294819D01*
X322691047Y-244294819D02*
X322786285Y-244294819D01*
X321452952Y-243294819D02*
X321929142Y-243294819D01*
X321929142Y-243294819D02*
X321976761Y-243771009D01*
X321976761Y-243771009D02*
X321929142Y-243723390D01*
X321929142Y-243723390D02*
X321833904Y-243675771D01*
X321833904Y-243675771D02*
X321595809Y-243675771D01*
X321595809Y-243675771D02*
X321500571Y-243723390D01*
X321500571Y-243723390D02*
X321452952Y-243771009D01*
X321452952Y-243771009D02*
X321405333Y-243866247D01*
X321405333Y-243866247D02*
X321405333Y-244104342D01*
X321405333Y-244104342D02*
X321452952Y-244199580D01*
X321452952Y-244199580D02*
X321500571Y-244247200D01*
X321500571Y-244247200D02*
X321595809Y-244294819D01*
X321595809Y-244294819D02*
X321833904Y-244294819D01*
X321833904Y-244294819D02*
X321929142Y-244247200D01*
X321929142Y-244247200D02*
X321976761Y-244199580D01*
D12*
%TO.C,J5*%
X319467000Y-221413000D02*
X324667000Y-221413000D01*
X319467000Y-239253000D02*
X319467000Y-221413000D01*
X319467000Y-239253000D02*
X322067000Y-239253000D01*
X319467000Y-240523000D02*
X319467000Y-241853000D01*
X319467000Y-241853000D02*
X320797000Y-241853000D01*
X322067000Y-239253000D02*
X322067000Y-241853000D01*
X322067000Y-241853000D02*
X324667000Y-241853000D01*
X324667000Y-241853000D02*
X324667000Y-221413000D01*
%TD*%
M02*
