M48
; DRILL file {KiCad 7.0.9} date Wed Dec 27 11:06:20 2023
; FORMAT={-:-/ absolute / inch / decimal}
; #@! TF.CreationDate,2023-12-27T11:06:20-06:00
; #@! TF.GenerationSoftware,Kicad,Pcbnew,7.0.9
; #@! TF.FileFunction,Plated,1,4,PTH
FMAT,2
INCH
; #@! TA.AperFunction,Plated,PTH,ViaDrill
T1C0.0118
; #@! TA.AperFunction,Plated,PTH,ComponentDrill
T2C0.0256
; #@! TA.AperFunction,Plated,PTH,ComponentDrill
T3C0.0276
; #@! TA.AperFunction,Plated,PTH,ComponentDrill
T4C0.0354
; #@! TA.AperFunction,Plated,PTH,ComponentDrill
T5C0.0394
; #@! TA.AperFunction,Plated,PTH,ComponentDrill
T6C0.0433
; #@! TA.AperFunction,Plated,PTH,ComponentDrill
T7C0.0709
; #@! TA.AperFunction,Plated,PTH,ComponentDrill
T8C0.1260
%
G90
G05
T1
X6.007Y-6.374
X6.007Y-7.1201
X6.103Y-7.878
X6.2019Y-8.7254
X6.2421Y-7.6763
X6.313Y-7.886
X6.315Y-7.728
X6.3228Y-7.8012
X6.3255Y-8.6895
X6.345Y-6.595
X6.3701Y-6.5374
X6.374Y-7.7017
X6.381Y-8.334
X6.384Y-7.9377
X6.4528Y-7.3937
X6.47Y-6.2442
X6.4724Y-8.1634
X6.4785Y-7.26
X6.4873Y-7.9927
X6.495Y-7.8786
X6.5183Y-7.1853
X6.5282Y-8.034
X6.542Y-7.456
X6.5495Y-7.572
X6.559Y-8.466
X6.563Y-6.189
X6.58Y-7.435
X6.605Y-7.99
X6.6326Y-8.0758
X6.635Y-6.985
X6.644Y-8.0239
X6.669Y-7.698
X6.672Y-8.356
X6.675Y-6.665
X6.6811Y-5.7756
X6.684Y-7.547
X6.6929Y-5.9213
X6.693Y-8.283
X6.7047Y-7.3504
X6.705Y-7.68
X6.7086Y-7.8799
X6.741Y-8.138
X6.765Y-7.26
X6.7776Y-7.1673
X6.801Y-6.3584
X6.8025Y-8.3225
X6.8316Y-8.0467
X6.852Y-7.873
X6.885Y-6.32
X6.892Y-7.92
X6.8942Y-7.3582
X6.9893Y-7.8701
X7.065Y-6.565
X7.1358Y-8.2461
X7.1732Y-6.4252
X7.19Y-8.0
X7.31Y-7.11
X7.331Y-6.944
X7.3512Y-6.448
X7.359Y-6.146
X7.394Y-6.637
X7.41Y-6.855
X7.451Y-7.251
X7.46Y-5.9968
X7.46Y-6.225
X7.472Y-7.793
X7.4732Y-8.2542
X7.501Y-6.379
X7.503Y-5.807
X7.52Y-6.81
X7.5453Y-6.0492
X7.5454Y-6.9527
X7.565Y-6.444
X7.5689Y-6.3414
X7.5709Y-7.7717
X7.5807Y-7.6437
X7.592Y-6.771
X7.593Y-7.094
X7.605Y-7.984
X7.6083Y-6.435
X7.6142Y-5.9921
X7.623Y-8.1535
X7.626Y-7.272
X7.627Y-7.939
X7.6284Y-7.8171
X7.644Y-6.413
X7.656Y-9.386
X7.67Y-7.4239
X7.671Y-6.885
X7.69Y-7.24
X7.6997Y-6.6982
X7.7095Y-7.3551
X7.7185Y-6.2323
X7.725Y-6.325
X7.7431Y-8.1777
X7.7475Y-7.9364
X7.75Y-5.8899
X7.754Y-7.092
X7.759Y-6.232
X7.762Y-6.99
X7.782Y-8.42
X7.798Y-6.768
X7.815Y-6.065
X7.835Y-6.279
X7.843Y-8.275
X7.849Y-6.64
X7.9035Y-7.9341
X7.905Y-7.84
X7.914Y-7.184
X7.922Y-7.342
X7.922Y-7.419
X7.929Y-7.677
X7.9606Y-7.8625
X7.9634Y-7.998
X8.059Y-8.14
X8.0752Y-7.9429
X8.0906Y-7.8819
X8.121Y-8.299
X8.1491Y-7.9398
X8.27Y-6.379
X8.36Y-8.395
X8.37Y-8.676
X8.41Y-6.145
X8.454Y-8.06
X8.472Y-7.458
X8.533Y-8.5
X8.548Y-8.339
X8.559Y-7.703
X8.569Y-8.603
X8.6153Y-8.4913
X8.621Y-6.399
X8.78Y-6.692
X8.92Y-7.2
X9.014Y-7.829
X9.115Y-7.08
X9.171Y-6.054
X9.424Y-6.705
X9.438Y-6.405
X9.558Y-6.4327
X9.656Y-6.147
X9.698Y-8.646
X9.774Y-6.467
X9.954Y-9.6095
X9.9795Y-6.4327
X9.987Y-6.363
X10.007Y-8.862
X10.165Y-6.342
X10.384Y-6.722
X10.395Y-8.024
X10.4096Y-7.7556
X10.4487Y-7.7046
X10.5672Y-7.7817
X10.589Y-8.28
X10.6344Y-7.6788
X10.6972Y-7.4298
X10.7038Y-7.1778
X10.7292Y-7.9197
X10.733Y-6.751
X10.7606Y-7.8238
X10.7646Y-7.371
X10.8268Y-6.9705
X10.8294Y-7.6811
X10.839Y-8.229
X10.849Y-7.53
X10.953Y-7.153
X10.986Y-7.887
X11.0217Y-8.8071
X11.0954Y-7.8445
X11.099Y-7.437
X11.1595Y-7.8445
X11.1683Y-7.2333
X11.1713Y-7.0374
X11.1761Y-7.8725
X11.243Y-7.978
X11.2861Y-7.2619
X11.319Y-8.081
X11.3268Y-7.0581
X11.432Y-8.363
X11.441Y-7.738
X11.468Y-7.786
X11.471Y-7.887
X11.528Y-6.5025
X11.6364Y-7.7444
X11.654Y-5.539
X11.654Y-6.269
X11.685Y-7.1122
X11.705Y-7.003
X11.716Y-7.642
X11.773Y-6.892
X11.778Y-7.224
X11.811Y-7.8386
X11.84Y-7.13
X11.949Y-8.595
X12.0129Y-7.955
X12.0775Y-7.9232
X12.101Y-8.407
X12.129Y-8.689
X12.17Y-8.337
X12.1994Y-7.5546
X12.2112Y-8.6087
X12.2262Y-8.3072
X12.2527Y-8.6233
X12.2746Y-7.5443
X12.3179Y-8.5972
X12.3396Y-7.6857
X12.358Y-8.998
X12.3602Y-8.7076
X12.3645Y-6.5955
X12.371Y-6.5485
X12.3976Y-8.248
X12.412Y-5.712
X12.412Y-8.535
X12.427Y-8.173
X12.502Y-8.4488
X12.504Y-6.351
X12.5093Y-5.7083
X12.5229Y-7.9486
X12.5685Y-8.571
X12.625Y-7.887
X12.628Y-8.194
X12.631Y-7.991
X12.6385Y-8.2716
X12.6509Y-8.6832
X12.6509Y-8.1371
X12.6742Y-5.7618
X12.6752Y-7.3494
X12.688Y-8.625
X12.6978Y-8.2707
X12.712Y-5.565
X12.715Y-5.628
X12.717Y-7.882
X12.769Y-5.682
X12.8514Y-8.2341
X12.9068Y-7.869
X12.917Y-5.532
X12.9418Y-7.8405
X12.958Y-7.976
X13.003Y-8.2579
X13.021Y-8.973
X13.044Y-6.309
X13.046Y-8.311
X13.0558Y-7.8193
X13.069Y-5.603
X13.169Y-7.872
X13.1988Y-8.5472
X13.207Y-9.302
X13.288Y-6.247
X13.319Y-8.294
X13.4Y-8.34
X13.402Y-8.425
X13.455Y-9.177
X13.538Y-9.243
X13.5748Y-7.0787
X13.575Y-8.754
X13.5925Y-8.071
X13.6224Y-6.3006
X13.6811Y-7.8731
X13.685Y-8.1161
X13.748Y-7.167
X13.78Y-6.13
X13.785Y-7.165
X13.8051Y-7.9311
X13.876Y-6.406
X13.881Y-6.201
X13.882Y-8.081
X13.8878Y-7.0827
X13.912Y-7.595
X14.015Y-6.0287
X14.019Y-9.56
X14.0288Y-8.4543
X14.043Y-7.128
X14.0499Y-7.8357
X14.061Y-8.898
X14.0712Y-6.2246
X14.0937Y-7.2747
X14.1001Y-5.8409
X14.1191Y-6.1693
X14.1232Y-8.0198
X14.125Y-7.666
X14.1286Y-6.2445
X14.1391Y-6.206
X14.143Y-7.5
X14.1565Y-6.4035
X14.1665Y-5.819
X14.182Y-7.952
X14.184Y-6.791
X14.2113Y-6.574
X14.221Y-6.746
X14.2298Y-7.5989
X14.235Y-5.985
X14.2413Y-9.398
X14.2419Y-7.13
X14.2551Y-7.1736
X14.2589Y-5.9016
X14.2687Y-6.4662
X14.335Y-6.394
X14.374Y-7.631
X14.382Y-7.167
X14.383Y-5.778
X14.407Y-6.466
X14.416Y-7.789
X14.48Y-8.635
X14.487Y-8.208
X14.494Y-7.115
X14.4941Y-8.6939
X14.52Y-9.638
X14.523Y-6.681
X14.524Y-8.591
X14.531Y-6.428
X14.5604Y-7.8064
X14.6642Y-7.186
X14.681Y-6.276
X14.7Y-8.485
X14.705Y-7.92
X14.7328Y-8.9283
X14.768Y-6.605
X14.774Y-6.742
X14.789Y-6.782
X14.7991Y-9.425
X14.8017Y-6.47
X14.8027Y-6.649
X14.819Y-5.845
X14.844Y-6.181
X14.852Y-8.94
X14.86Y-8.583
X14.881Y-6.078
X14.8919Y-9.0239
X14.9134Y-5.6634
X14.9304Y-6.4088
X14.9323Y-6.64
X14.952Y-6.171
X14.961Y-6.247
X14.991Y-6.3457
X15.004Y-6.663
X15.048Y-6.9945
X15.078Y-7.642
X15.095Y-6.952
X15.095Y-7.198
X15.1Y-6.491
X15.123Y-9.542
X15.133Y-8.059
X15.1542Y-8.5792
X15.173Y-6.358
X15.1908Y-8.5511
X15.195Y-7.924
X15.278Y-6.317
X15.3051Y-7.1811
X15.315Y-6.697
X15.42Y-8.77
X15.447Y-7.784
X15.491Y-6.349
X15.4949Y-6.4172
X15.542Y-8.974
X15.5748Y-9.2372
X15.616Y-7.028
X15.652Y-6.079
X15.666Y-6.2
T4
X9.813Y-7.0866
X9.813Y-7.1866
X10.8209Y-7.0866
X10.8209Y-7.1866
X12.124Y-5.5555
X12.124Y-5.6555
X12.1299Y-7.0866
X12.1299Y-7.1866
X12.9921Y-7.0866
X12.9921Y-7.1866
T5
X6.0413Y-6.2402
X6.0413Y-6.9882
X6.0433Y-8.4843
X6.1398Y-6.2402
X6.1398Y-6.9882
X6.1417Y-8.4843
X6.2382Y-6.2402
X6.2382Y-6.9882
X6.2402Y-8.4843
X7.0374Y-6.2402
X7.0374Y-6.9882
X7.0374Y-8.4843
X7.1358Y-6.2402
X7.1358Y-6.9882
X7.1358Y-8.4843
X7.2343Y-6.2402
X7.2343Y-6.9882
X7.2343Y-8.4843
X8.0315Y-6.2402
X8.0315Y-6.9882
X8.0315Y-8.4843
X8.1299Y-6.2402
X8.1299Y-6.9882
X8.1299Y-8.4843
X8.2283Y-6.2402
X8.2283Y-6.9882
X8.2283Y-8.4843
X8.6811Y-6.9882
X8.6811Y-7.7362
X8.6811Y-8.4843
X8.7795Y-6.9882
X8.7795Y-7.7362
X8.7795Y-8.4843
X8.878Y-6.9882
X8.878Y-7.7362
X8.878Y-8.4843
X9.0256Y-6.2402
X9.124Y-6.2402
X9.2224Y-6.2402
X9.3504Y-6.9882
X9.3504Y-7.7362
X9.3504Y-8.4843
X9.4488Y-6.9882
X9.4488Y-7.7362
X9.4488Y-8.4843
X9.5472Y-6.9882
X9.5472Y-7.7362
X9.5472Y-8.4843
X10.0295Y-6.2402
X10.0295Y-6.9882
X10.0295Y-7.7362
X10.0295Y-8.4843
X10.128Y-6.2402
X10.128Y-6.9882
X10.128Y-7.7362
X10.128Y-8.4843
X10.2264Y-6.2402
X10.2264Y-6.9882
X10.2264Y-7.7362
X10.2264Y-8.4843
X11.0315Y-6.2405
X11.0315Y-6.9886
X11.0335Y-7.7362
X11.0335Y-8.4843
X11.1299Y-6.2405
X11.1299Y-6.9886
X11.1319Y-7.7362
X11.1319Y-8.4843
X11.2284Y-6.2405
X11.2284Y-6.9886
X11.2303Y-7.7362
X11.2303Y-8.4843
X11.8307Y-6.2402
X11.8307Y-6.9882
X11.8307Y-7.7362
X11.8307Y-8.4843
X11.9291Y-6.2402
X11.9291Y-6.9882
X11.9291Y-7.7362
X11.9291Y-8.4843
X12.0276Y-6.2402
X12.0276Y-6.9882
X12.0276Y-7.7362
X12.0276Y-8.4843
X12.628Y-6.2402
X12.628Y-6.9882
X12.628Y-7.7362
X12.6298Y-8.7694
X12.6298Y-8.8694
X12.6298Y-8.9694
X12.6298Y-9.0694
X12.6298Y-9.1694
X12.6298Y-9.2694
X12.6298Y-9.3694
X12.6298Y-9.4694
X12.7264Y-6.2402
X12.7264Y-6.9882
X12.7264Y-7.7362
X12.7298Y-8.7694
X12.7298Y-8.8694
X12.7298Y-8.9694
X12.7298Y-9.0694
X12.7298Y-9.1694
X12.7298Y-9.2694
X12.7298Y-9.3694
X12.7298Y-9.4694
X12.8248Y-6.2402
X12.8248Y-6.9882
X12.8248Y-7.7362
X13.622Y-6.2402
X13.622Y-6.9882
X13.622Y-7.7362
X13.622Y-8.4843
X13.622Y-9.3898
X13.7205Y-6.2402
X13.7205Y-6.9882
X13.7205Y-7.7362
X13.7205Y-8.4843
X13.7205Y-9.3898
X13.8189Y-6.2402
X13.8189Y-6.9882
X13.8189Y-7.7362
X13.8189Y-8.4843
X13.8189Y-9.3898
X14.4134Y-9.3898
X14.4193Y-6.2402
X14.4193Y-6.9882
X14.4232Y-8.4843
X14.5118Y-9.3898
X14.5177Y-6.2402
X14.5177Y-6.9882
X14.5217Y-8.4843
X14.6102Y-9.3898
X14.6161Y-6.2402
X14.6161Y-6.9882
X14.6201Y-8.4843
X14.8189Y-7.7362
X14.9173Y-7.7362
X15.0157Y-7.7362
X15.2165Y-6.2402
X15.2165Y-6.9882
X15.2189Y-8.4843
X15.315Y-6.2402
X15.315Y-6.9882
X15.3173Y-8.4843
X15.4134Y-6.2402
X15.4134Y-6.9882
X15.4157Y-8.4843
T6
X10.4331Y-6.1024
X10.4331Y-6.3583
X10.6102Y-6.1024
X10.6102Y-6.3583
X11.437Y-6.1024
X11.437Y-6.3583
X11.6142Y-6.1024
X11.6142Y-6.3583
T8
X5.8858Y-8.5827
X5.9055Y-5.5709
X15.5512Y-9.5079
X15.5709Y-5.5709
T2
G00X6.0817Y-8.7736
M15
G01X6.0049Y-8.7736
M16
G05
G00X6.0817Y-9.0965
M15
G01X6.0049Y-9.0965
M16
G05
G00X6.0817Y-9.2559
M15
G01X6.0049Y-9.2559
M16
G05
G00X6.0817Y-9.5787
M15
G01X6.0049Y-9.5787
M16
G05
G00X6.5935Y-8.7736
M15
G01X6.5167Y-8.7736
M16
G05
G00X6.5935Y-9.0965
M15
G01X6.5167Y-9.0965
M16
G05
G00X6.5935Y-9.2559
M15
G01X6.5167Y-9.2559
M16
G05
G00X6.5935Y-9.5787
M15
G01X6.5167Y-9.5787
M16
G05
G00X7.1053Y-8.7736
M15
G01X7.0285Y-8.7736
M16
G05
G00X7.1053Y-9.0965
M15
G01X7.0285Y-9.0965
M16
G05
G00X7.1053Y-9.2559
M15
G01X7.0285Y-9.2559
M16
G05
G00X7.1053Y-9.5787
M15
G01X7.0285Y-9.5787
M16
G05
G00X7.6171Y-8.7736
M15
G01X7.5404Y-8.7736
M16
G05
G00X7.6171Y-9.0965
M15
G01X7.5404Y-9.0965
M16
G05
G00X7.6171Y-9.2559
M15
G01X7.5404Y-9.2559
M16
G05
G00X7.6171Y-9.5787
M15
G01X7.5404Y-9.5787
M16
G05
G00X8.1289Y-8.7736
M15
G01X8.0522Y-8.7736
M16
G05
G00X8.1289Y-9.0965
M15
G01X8.0522Y-9.0965
M16
G05
G00X8.1289Y-9.2559
M15
G01X8.0522Y-9.2559
M16
G05
G00X8.1289Y-9.5787
M15
G01X8.0522Y-9.5787
M16
G05
G00X8.6407Y-8.7736
M15
G01X8.564Y-8.7736
M16
G05
G00X8.6407Y-9.0965
M15
G01X8.564Y-9.0965
M16
G05
G00X8.6407Y-9.2571
M15
G01X8.564Y-9.2571
M16
G05
G00X8.6407Y-9.5799
M15
G01X8.564Y-9.5799
M16
G05
G00X9.1526Y-8.7736
M15
G01X9.0758Y-8.7736
M16
G05
G00X9.1526Y-9.0965
M15
G01X9.0758Y-9.0965
M16
G05
G00X9.1526Y-9.2559
M15
G01X9.0758Y-9.2559
M16
G05
G00X9.1526Y-9.5787
M15
G01X9.0758Y-9.5787
M16
G05
G00X9.6644Y-8.7736
M15
G01X9.5876Y-8.7736
M16
G05
G00X9.6644Y-9.0965
M15
G01X9.5876Y-9.0965
M16
G05
G00X9.6644Y-9.2559
M15
G01X9.5876Y-9.2559
M16
G05
G00X9.6644Y-9.5787
M15
G01X9.5876Y-9.5787
M16
G05
G00X10.1762Y-8.7736
M15
G01X10.0994Y-8.7736
M16
G05
G00X10.1762Y-9.0965
M15
G01X10.0994Y-9.0965
M16
G05
G00X10.1762Y-9.2559
M15
G01X10.0994Y-9.2559
M16
G05
G00X10.1762Y-9.5787
M15
G01X10.0994Y-9.5787
M16
G05
G00X10.688Y-8.7736
M15
G01X10.6112Y-8.7736
M16
G05
G00X10.688Y-9.0965
M15
G01X10.6112Y-9.0965
M16
G05
G00X10.688Y-9.2559
M15
G01X10.6112Y-9.2559
M16
G05
G00X10.688Y-9.5787
M15
G01X10.6112Y-9.5787
M16
G05
G00X11.1998Y-8.7821
M15
G01X11.123Y-8.7821
M16
G05
G00X11.1998Y-9.1049
M15
G01X11.123Y-9.1049
M16
G05
G00X11.1998Y-9.2671
M15
G01X11.123Y-9.2671
M16
G05
G00X11.1998Y-9.59
M15
G01X11.123Y-9.59
M16
G05
G00X11.7116Y-8.7736
M15
G01X11.6348Y-8.7736
M16
G05
G00X11.7116Y-9.0965
M15
G01X11.6348Y-9.0965
M16
G05
G00X11.7116Y-9.2559
M15
G01X11.6348Y-9.2559
M16
G05
G00X11.7116Y-9.5787
M15
G01X11.6348Y-9.5787
M16
G05
G00X12.2234Y-8.7736
M15
G01X12.1467Y-8.7736
M16
G05
G00X12.2234Y-9.0965
M15
G01X12.1467Y-9.0965
M16
G05
G00X12.2234Y-9.2559
M15
G01X12.1467Y-9.2559
M16
G05
G00X12.2234Y-9.5787
M15
G01X12.1467Y-9.5787
M16
G05
G00X13.0551Y-5.9262
M15
G01X13.0551Y-6.003
M16
G05
G00X13.0551Y-6.6742
M15
G01X13.0551Y-6.751
M16
G05
G00X13.0748Y-7.4222
M15
G01X13.0748Y-7.499
M16
G05
G00X13.0748Y-8.1801
M15
G01X13.0748Y-8.2569
M16
G05
G00X13.378Y-5.9262
M15
G01X13.378Y-6.003
M16
G05
G00X13.378Y-6.6742
M15
G01X13.378Y-6.751
M16
G05
G00X13.3976Y-7.4222
M15
G01X13.3976Y-7.499
M16
G05
G00X13.3976Y-8.1801
M15
G01X13.3976Y-8.2569
M16
G05
G00X15.3337Y-8.9016
M15
G01X15.2569Y-8.9016
M16
G05
G00X15.3337Y-9.2244
M15
G01X15.2569Y-9.2244
M16
G05
T3
G00X6.0433Y-7.2244
M15
G01X6.0433Y-7.2047
M16
G05
G00X6.0433Y-7.5197
M15
G01X6.0433Y-7.5
M16
G05
G00X6.0433Y-7.815
M15
G01X6.0433Y-7.7953
M16
G05
G00X6.1417Y-7.2244
M15
G01X6.1417Y-7.2047
M16
G05
G00X6.1417Y-7.5197
M15
G01X6.1417Y-7.5
M16
G05
G00X6.1417Y-7.815
M15
G01X6.1417Y-7.7953
M16
G05
G00X6.2402Y-7.2244
M15
G01X6.2402Y-7.2047
M16
G05
G00X6.2402Y-7.5197
M15
G01X6.2402Y-7.5
M16
G05
G00X6.2402Y-7.815
M15
G01X6.2402Y-7.7953
M16
G05
G00X7.0374Y-7.2146
M15
G01X7.0374Y-7.2343
M16
G05
G00X7.0374Y-7.5
M15
G01X7.0374Y-7.5197
M16
G05
G00X7.0374Y-7.7953
M15
G01X7.0374Y-7.815
M16
G05
G00X7.1358Y-7.2146
M15
G01X7.1358Y-7.2343
M16
G05
G00X7.1358Y-7.5
M15
G01X7.1358Y-7.5197
M16
G05
G00X7.1358Y-7.7953
M15
G01X7.1358Y-7.815
M16
G05
G00X7.2343Y-7.2146
M15
G01X7.2343Y-7.2343
M16
G05
G00X7.2343Y-7.5
M15
G01X7.2343Y-7.5197
M16
G05
G00X7.2343Y-7.7953
M15
G01X7.2343Y-7.815
M16
G05
G00X8.0315Y-7.2146
M15
G01X8.0315Y-7.2343
M16
G05
G00X8.0315Y-7.5
M15
G01X8.0315Y-7.5197
M16
G05
G00X8.0315Y-7.7953
M15
G01X8.0315Y-7.815
M16
G05
G00X8.1299Y-7.2146
M15
G01X8.1299Y-7.2343
M16
G05
G00X8.1299Y-7.5
M15
G01X8.1299Y-7.5197
M16
G05
G00X8.1299Y-7.7953
M15
G01X8.1299Y-7.815
M16
G05
G00X8.2283Y-7.2146
M15
G01X8.2283Y-7.2343
M16
G05
G00X8.2283Y-7.5
M15
G01X8.2283Y-7.5197
M16
G05
G00X8.2283Y-7.7953
M15
G01X8.2283Y-7.815
M16
G05
G00X10.4236Y-7.1169
M15
G01X10.4236Y-7.0815
M16
G05
G00X10.4236Y-7.2768
M15
G01X10.4236Y-7.2413
M16
G05
G00X10.5118Y-6.624
M15
G01X10.5315Y-6.624
M16
G05
G00X10.5118Y-6.7224
M15
G01X10.5315Y-6.7224
M16
G05
G00X10.5118Y-6.8209
M15
G01X10.5315Y-6.8209
M16
G05
G00X10.5315Y-7.4606
M15
G01X10.5118Y-7.4606
M16
G05
G00X10.5315Y-7.5591
M15
G01X10.5118Y-7.5591
M16
G05
G00X10.5315Y-7.6575
M15
G01X10.5118Y-7.6575
M16
G05
G00X10.5118Y-8.1201
M15
G01X10.5315Y-8.1201
M16
G05
G00X10.5118Y-8.2185
M15
G01X10.5315Y-8.2185
M16
G05
G00X10.5118Y-8.3169
M15
G01X10.5315Y-8.3169
M16
G05
G00X10.5236Y-7.1169
M15
G01X10.5236Y-7.0815
M16
G05
G00X10.5236Y-7.2768
M15
G01X10.5236Y-7.2413
M16
G05
G00X10.6236Y-7.1169
M15
G01X10.6236Y-7.0815
M16
G05
G00X10.6236Y-7.2768
M15
G01X10.6236Y-7.2413
M16
G05
G00X11.4256Y-7.0697
M15
G01X11.4256Y-7.0343
M16
G05
G00X11.4256Y-7.2295
M15
G01X11.4256Y-7.1941
M16
G05
G00X11.5157Y-6.6142
M15
G01X11.5354Y-6.6142
M16
G05
G00X11.5157Y-6.7126
M15
G01X11.5354Y-6.7126
M16
G05
G00X11.5157Y-6.811
M15
G01X11.5354Y-6.811
M16
G05
G00X11.5256Y-7.0697
M15
G01X11.5256Y-7.0343
M16
G05
G00X11.5256Y-7.2295
M15
G01X11.5256Y-7.1941
M16
G05
G00X11.5157Y-7.4606
M15
G01X11.5354Y-7.4606
M16
G05
G00X11.5157Y-7.5591
M15
G01X11.5354Y-7.5591
M16
G05
G00X11.5157Y-7.6575
M15
G01X11.5354Y-7.6575
M16
G05
G00X11.5354Y-8.1201
M15
G01X11.5157Y-8.1201
M16
G05
G00X11.5354Y-8.2185
M15
G01X11.5157Y-8.2185
M16
G05
G00X11.5354Y-8.3169
M15
G01X11.5157Y-8.3169
M16
G05
G00X11.6256Y-7.0697
M15
G01X11.6256Y-7.0343
M16
G05
G00X11.6256Y-7.2295
M15
G01X11.6256Y-7.1941
M16
G05
G00X12.2252Y-6.2583
M15
G01X12.2606Y-6.2583
M16
G05
G00X12.2252Y-6.3583
M15
G01X12.2606Y-6.3583
M16
G05
G00X12.2252Y-6.4583
M15
G01X12.2606Y-6.4583
M16
G05
G00X12.2252Y-7.7543
M15
G01X12.2606Y-7.7543
M16
G05
G00X12.2252Y-7.8543
M15
G01X12.2606Y-7.8543
M16
G05
G00X12.2252Y-7.9543
M15
G01X12.2606Y-7.9543
M16
G05
G00X12.313Y-5.6299
M15
G01X12.3327Y-5.6299
M16
G05
G00X12.313Y-5.7283
M15
G01X12.3327Y-5.7283
M16
G05
G00X12.313Y-5.8268
M15
G01X12.3327Y-5.8268
M16
G05
G00X12.3327Y-6.7323
M15
G01X12.313Y-6.7323
M16
G05
G00X12.3327Y-6.8307
M15
G01X12.313Y-6.8307
M16
G05
G00X12.3327Y-6.9291
M15
G01X12.313Y-6.9291
M16
G05
G00X12.315Y-7.126
M15
G01X12.3346Y-7.126
M16
G05
G00X12.315Y-7.2244
M15
G01X12.3346Y-7.2244
M16
G05
G00X12.315Y-7.3228
M15
G01X12.3346Y-7.3228
M16
G05
G00X12.3169Y-8.2283
M15
G01X12.3366Y-8.2283
M16
G05
G00X12.3169Y-8.3268
M15
G01X12.3366Y-8.3268
M16
G05
G00X12.3169Y-8.4252
M15
G01X12.3366Y-8.4252
M16
G05
G00X12.385Y-6.2583
M15
G01X12.4205Y-6.2583
M16
G05
G00X12.385Y-6.3583
M15
G01X12.4205Y-6.3583
M16
G05
G00X12.385Y-6.4583
M15
G01X12.4205Y-6.4583
M16
G05
G00X12.385Y-7.7543
M15
G01X12.4205Y-7.7543
M16
G05
G00X12.385Y-7.8543
M15
G01X12.4205Y-7.8543
M16
G05
G00X12.385Y-7.9543
M15
G01X12.4205Y-7.9543
M16
G05
G00X14.0205Y-9.0142
M15
G01X14.0559Y-9.0142
M16
G05
G00X14.0205Y-9.1142
M15
G01X14.0559Y-9.1142
M16
G05
G00X14.0205Y-9.2142
M15
G01X14.0559Y-9.2142
M16
G05
G00X14.1059Y-8.1102
M15
G01X14.1256Y-8.1102
M16
G05
G00X14.1059Y-8.2087
M15
G01X14.1256Y-8.2087
M16
G05
G00X14.1059Y-8.3071
M15
G01X14.1256Y-8.3071
M16
G05
G00X14.1803Y-9.0142
M15
G01X14.2157Y-9.0142
M16
G05
G00X14.1803Y-9.1142
M15
G01X14.2157Y-9.1142
M16
G05
G00X14.1803Y-9.2142
M15
G01X14.2157Y-9.2142
M16
G05
G00X15.2756Y-7.3622
M15
G01X15.2953Y-7.3622
M16
G05
G00X15.2756Y-7.4606
M15
G01X15.2953Y-7.4606
M16
G05
G00X15.2756Y-7.5591
M15
G01X15.2953Y-7.5591
M16
G05
G00X15.5118Y-7.3622
M15
G01X15.4921Y-7.3622
M16
G05
G00X15.5118Y-7.4606
M15
G01X15.4921Y-7.4606
M16
G05
G00X15.5118Y-7.5591
M15
G01X15.4921Y-7.5591
M16
G05
T5
G00X6.2283Y-8.9764
M15
G01X6.2283Y-8.9567
M16
G05
G00X6.2283Y-9.4587
M15
G01X6.2283Y-9.439
M16
G05
G00X6.7402Y-8.9764
M15
G01X6.7402Y-8.9567
M16
G05
G00X6.7402Y-9.4587
M15
G01X6.7402Y-9.439
M16
G05
G00X7.252Y-8.9764
M15
G01X7.252Y-8.9567
M16
G05
G00X7.252Y-9.4587
M15
G01X7.252Y-9.439
M16
G05
G00X7.7638Y-8.9764
M15
G01X7.7638Y-8.9567
M16
G05
G00X7.7638Y-9.4587
M15
G01X7.7638Y-9.439
M16
G05
G00X8.2756Y-8.9764
M15
G01X8.2756Y-8.9567
M16
G05
G00X8.2756Y-9.4587
M15
G01X8.2756Y-9.439
M16
G05
G00X8.7874Y-8.9764
M15
G01X8.7874Y-8.9567
M16
G05
G00X8.7874Y-9.4598
M15
G01X8.7874Y-9.4402
M16
G05
G00X9.2992Y-8.9764
M15
G01X9.2992Y-8.9567
M16
G05
G00X9.2992Y-9.4587
M15
G01X9.2992Y-9.439
M16
G05
G00X9.811Y-8.9764
M15
G01X9.811Y-8.9567
M16
G05
G00X9.811Y-9.4587
M15
G01X9.811Y-9.439
M16
G05
G00X10.3228Y-8.9764
M15
G01X10.3228Y-8.9567
M16
G05
G00X10.3228Y-9.4587
M15
G01X10.3228Y-9.439
M16
G05
G00X10.8346Y-8.9764
M15
G01X10.8346Y-8.9567
M16
G05
G00X10.8346Y-9.4587
M15
G01X10.8346Y-9.439
M16
G05
G00X11.3465Y-8.9848
M15
G01X11.3465Y-8.9652
M16
G05
G00X11.3465Y-9.4699
M15
G01X11.3465Y-9.4502
M16
G05
G00X11.8583Y-8.9764
M15
G01X11.8583Y-8.9567
M16
G05
G00X11.8583Y-9.4587
M15
G01X11.8583Y-9.439
M16
G05
G00X12.3701Y-8.9764
M15
G01X12.3701Y-8.9567
M16
G05
G00X12.3701Y-9.4587
M15
G01X12.3701Y-9.439
M16
G05
G00X13.2579Y-5.7795
M15
G01X13.2382Y-5.7795
M16
G05
G00X13.2579Y-6.5276
M15
G01X13.2382Y-6.5276
M16
G05
G00X13.2776Y-7.2756
M15
G01X13.2579Y-7.2756
M16
G05
G00X13.2776Y-8.0335
M15
G01X13.2579Y-8.0335
M16
G05
G00X15.4803Y-9.1043
M15
G01X15.4803Y-9.0846
M16
G05
T6
G00X5.8583Y-8.9961
M15
G01X5.8583Y-8.937
M16
G05
G00X5.8583Y-9.4783
M15
G01X5.8583Y-9.4193
M16
G05
G00X6.3701Y-8.9961
M15
G01X6.3701Y-8.937
M16
G05
G00X6.3701Y-9.4783
M15
G01X6.3701Y-9.4193
M16
G05
G00X6.8819Y-8.9961
M15
G01X6.8819Y-8.937
M16
G05
G00X6.8819Y-9.4783
M15
G01X6.8819Y-9.4193
M16
G05
G00X7.3937Y-8.9961
M15
G01X7.3937Y-8.937
M16
G05
G00X7.3937Y-9.4783
M15
G01X7.3937Y-9.4193
M16
G05
G00X7.9055Y-8.9961
M15
G01X7.9055Y-8.937
M16
G05
G00X7.9055Y-9.4783
M15
G01X7.9055Y-9.4193
M16
G05
G00X8.4173Y-8.9961
M15
G01X8.4173Y-8.937
M16
G05
G00X8.4173Y-9.4795
M15
G01X8.4173Y-9.4205
M16
G05
G00X8.9291Y-8.9961
M15
G01X8.9291Y-8.937
M16
G05
G00X8.9291Y-9.4783
M15
G01X8.9291Y-9.4193
M16
G05
G00X9.4409Y-8.9961
M15
G01X9.4409Y-8.937
M16
G05
G00X9.4409Y-9.4783
M15
G01X9.4409Y-9.4193
M16
G05
G00X9.9528Y-8.9961
M15
G01X9.9528Y-8.937
M16
G05
G00X9.9528Y-9.4783
M15
G01X9.9528Y-9.4193
M16
G05
G00X10.4646Y-8.9961
M15
G01X10.4646Y-8.937
M16
G05
G00X10.4646Y-9.4783
M15
G01X10.4646Y-9.4193
M16
G05
G00X10.9764Y-9.0045
M15
G01X10.9764Y-8.9455
M16
G05
G00X10.9764Y-9.4896
M15
G01X10.9764Y-9.4305
M16
G05
G00X11.4882Y-8.9961
M15
G01X11.4882Y-8.937
M16
G05
G00X11.4882Y-9.4783
M15
G01X11.4882Y-9.4193
M16
G05
G00X12.0Y-8.9961
M15
G01X12.0Y-8.937
M16
G05
G00X12.0Y-9.4783
M15
G01X12.0Y-9.4193
M16
G05
G00X13.2776Y-6.1496
M15
G01X13.2185Y-6.1496
M16
G05
G00X13.2776Y-6.8976
M15
G01X13.2185Y-6.8976
M16
G05
G00X13.2972Y-7.6457
M15
G01X13.2382Y-7.6457
M16
G05
G00X13.2972Y-8.4035
M15
G01X13.2382Y-8.4035
M16
G05
G00X15.1102Y-9.124
M15
G01X15.1102Y-9.065
M16
G05
T7
G00X5.9665Y-5.9705
M15
G01X5.9665Y-5.9587
M16
G05
G00X5.9665Y-6.7185
M15
G01X5.9665Y-6.7067
M16
G05
G00X5.9685Y-8.2146
M15
G01X5.9685Y-8.2028
M16
G05
G00X6.313Y-5.9705
M15
G01X6.313Y-5.9587
M16
G05
G00X6.313Y-6.7185
M15
G01X6.313Y-6.7067
M16
G05
G00X6.315Y-8.2146
M15
G01X6.315Y-8.2028
M16
G05
G00X6.9626Y-5.9705
M15
G01X6.9626Y-5.9587
M16
G05
G00X6.9626Y-6.7185
M15
G01X6.9626Y-6.7067
M16
G05
G00X6.9626Y-8.2146
M15
G01X6.9626Y-8.2028
M16
G05
G00X7.3091Y-5.9705
M15
G01X7.3091Y-5.9587
M16
G05
G00X7.3091Y-6.7185
M15
G01X7.3091Y-6.7067
M16
G05
G00X7.3091Y-8.2146
M15
G01X7.3091Y-8.2028
M16
G05
G00X7.9567Y-5.9705
M15
G01X7.9567Y-5.9587
M16
G05
G00X7.9567Y-6.7185
M15
G01X7.9567Y-6.7067
M16
G05
G00X7.9567Y-8.2146
M15
G01X7.9567Y-8.2028
M16
G05
G00X8.3031Y-5.9705
M15
G01X8.3031Y-5.9587
M16
G05
G00X8.3031Y-6.7185
M15
G01X8.3031Y-6.7067
M16
G05
G00X8.3031Y-8.2146
M15
G01X8.3031Y-8.2028
M16
G05
G00X8.6063Y-6.7185
M15
G01X8.6063Y-6.7067
M16
G05
G00X8.6063Y-7.4665
M15
G01X8.6063Y-7.4547
M16
G05
G00X8.6063Y-8.2146
M15
G01X8.6063Y-8.2028
M16
G05
G00X8.9508Y-5.9705
M15
G01X8.9508Y-5.9587
M16
G05
G00X8.9528Y-6.7185
M15
G01X8.9528Y-6.7067
M16
G05
G00X8.9528Y-7.4665
M15
G01X8.9528Y-7.4547
M16
G05
G00X8.9528Y-8.2146
M15
G01X8.9528Y-8.2028
M16
G05
G00X9.2756Y-6.7185
M15
G01X9.2756Y-6.7067
M16
G05
G00X9.2756Y-7.4665
M15
G01X9.2756Y-7.4547
M16
G05
G00X9.2756Y-8.2146
M15
G01X9.2756Y-8.2028
M16
G05
G00X9.2972Y-5.9705
M15
G01X9.2972Y-5.9587
M16
G05
G00X9.622Y-6.7185
M15
G01X9.622Y-6.7067
M16
G05
G00X9.622Y-7.4665
M15
G01X9.622Y-7.4547
M16
G05
G00X9.622Y-8.2146
M15
G01X9.622Y-8.2028
M16
G05
G00X9.9547Y-5.9705
M15
G01X9.9547Y-5.9587
M16
G05
G00X9.9547Y-6.7185
M15
G01X9.9547Y-6.7067
M16
G05
G00X9.9547Y-7.4665
M15
G01X9.9547Y-7.4547
M16
G05
G00X9.9547Y-8.2146
M15
G01X9.9547Y-8.2028
M16
G05
G00X10.3012Y-5.9705
M15
G01X10.3012Y-5.9587
M16
G05
G00X10.3012Y-6.7185
M15
G01X10.3012Y-6.7067
M16
G05
G00X10.3012Y-7.4665
M15
G01X10.3012Y-7.4547
M16
G05
G00X10.3012Y-8.2146
M15
G01X10.3012Y-8.2028
M16
G05
G00X10.9567Y-5.9708
M15
G01X10.9567Y-5.959
M16
G05
G00X10.9567Y-6.7189
M15
G01X10.9567Y-6.7071
M16
G05
G00X10.9587Y-7.4665
M15
G01X10.9587Y-7.4547
M16
G05
G00X10.9587Y-8.2146
M15
G01X10.9587Y-8.2028
M16
G05
G00X11.3032Y-5.9708
M15
G01X11.3032Y-5.959
M16
G05
G00X11.3032Y-6.7189
M15
G01X11.3032Y-6.7071
M16
G05
G00X11.3051Y-7.4665
M15
G01X11.3051Y-7.4547
M16
G05
G00X11.3051Y-8.2146
M15
G01X11.3051Y-8.2028
M16
G05
G00X11.7559Y-5.9705
M15
G01X11.7559Y-5.9587
M16
G05
G00X11.7559Y-6.7185
M15
G01X11.7559Y-6.7067
M16
G05
G00X11.7559Y-7.4665
M15
G01X11.7559Y-7.4547
M16
G05
G00X11.7559Y-8.2146
M15
G01X11.7559Y-8.2028
M16
G05
G00X12.1024Y-5.9705
M15
G01X12.1024Y-5.9587
M16
G05
G00X12.1024Y-6.7185
M15
G01X12.1024Y-6.7067
M16
G05
G00X12.1024Y-7.4665
M15
G01X12.1024Y-7.4547
M16
G05
G00X12.1024Y-8.2146
M15
G01X12.1024Y-8.2028
M16
G05
G00X12.5531Y-5.9705
M15
G01X12.5531Y-5.9587
M16
G05
G00X12.5531Y-6.7185
M15
G01X12.5531Y-6.7067
M16
G05
G00X12.5531Y-7.4665
M15
G01X12.5531Y-7.4547
M16
G05
G00X12.8996Y-5.9705
M15
G01X12.8996Y-5.9587
M16
G05
G00X12.8996Y-6.7185
M15
G01X12.8996Y-6.7067
M16
G05
G00X12.8996Y-7.4665
M15
G01X12.8996Y-7.4547
M16
G05
G00X13.5472Y-5.9705
M15
G01X13.5472Y-5.9587
M16
G05
G00X13.5472Y-6.7185
M15
G01X13.5472Y-6.7067
M16
G05
G00X13.5472Y-7.4665
M15
G01X13.5472Y-7.4547
M16
G05
G00X13.5472Y-8.2146
M15
G01X13.5472Y-8.2028
M16
G05
G00X13.5472Y-9.1201
M15
G01X13.5472Y-9.1083
M16
G05
G00X13.8937Y-5.9705
M15
G01X13.8937Y-5.9587
M16
G05
G00X13.8937Y-6.7185
M15
G01X13.8937Y-6.7067
M16
G05
G00X13.8937Y-7.4665
M15
G01X13.8937Y-7.4547
M16
G05
G00X13.8937Y-8.2146
M15
G01X13.8937Y-8.2028
M16
G05
G00X13.8937Y-9.1201
M15
G01X13.8937Y-9.1083
M16
G05
G00X14.3386Y-9.1201
M15
G01X14.3386Y-9.1083
M16
G05
G00X14.3445Y-5.9705
M15
G01X14.3445Y-5.9587
M16
G05
G00X14.3445Y-6.7185
M15
G01X14.3445Y-6.7067
M16
G05
G00X14.3484Y-8.2146
M15
G01X14.3484Y-8.2028
M16
G05
G00X14.685Y-9.1201
M15
G01X14.685Y-9.1083
M16
G05
G00X14.6909Y-5.9705
M15
G01X14.6909Y-5.9587
M16
G05
G00X14.6909Y-6.7185
M15
G01X14.6909Y-6.7067
M16
G05
G00X14.6949Y-8.2146
M15
G01X14.6949Y-8.2028
M16
G05
G00X14.7441Y-7.4665
M15
G01X14.7441Y-7.4547
M16
G05
G00X15.0906Y-7.4665
M15
G01X15.0906Y-7.4547
M16
G05
G00X15.1417Y-5.9705
M15
G01X15.1417Y-5.9587
M16
G05
G00X15.1417Y-6.7185
M15
G01X15.1417Y-6.7067
M16
G05
G00X15.1441Y-8.2146
M15
G01X15.1441Y-8.2028
M16
G05
G00X15.4882Y-5.9705
M15
G01X15.4882Y-5.9587
M16
G05
G00X15.4882Y-6.7185
M15
G01X15.4882Y-6.7067
M16
G05
G00X15.4906Y-8.2146
M15
G01X15.4906Y-8.2028
M16
G05
T0
M30
