%TF.GenerationSoftware,KiCad,Pcbnew,7.0.9*%
%TF.CreationDate,2023-12-31T11:37:50-06:00*%
%TF.ProjectId,SynthProj,53796e74-6850-4726-9f6a-2e6b69636164,rev?*%
%TF.SameCoordinates,Original*%
%TF.FileFunction,Legend,Bot*%
%TF.FilePolarity,Positive*%
%FSLAX46Y46*%
G04 Gerber Fmt 4.6, Leading zero omitted, Abs format (unit mm)*
G04 Created by KiCad (PCBNEW 7.0.9) date 2023-12-31 11:37:50*
%MOMM*%
%LPD*%
G01*
G04 APERTURE LIST*
%ADD10C,0.150000*%
%ADD11C,0.300000*%
%ADD12C,0.600000*%
%ADD13C,0.120000*%
G04 APERTURE END LIST*
D10*
X157607846Y-138938000D02*
X189356154Y-138938000D01*
X189356154Y-143254308D01*
X157607846Y-143254308D01*
X157607846Y-138938000D01*
G36*
X157607846Y-138938000D02*
G01*
X189356154Y-138938000D01*
X189356154Y-143254308D01*
X157607846Y-143254308D01*
X157607846Y-138938000D01*
G37*
D11*
G36*
X275111747Y-145563743D02*
G01*
X274176785Y-145563743D01*
X274176785Y-147191866D01*
X274176875Y-147223684D01*
X274177143Y-147255024D01*
X274177590Y-147285886D01*
X274178216Y-147316270D01*
X274179021Y-147346176D01*
X274180005Y-147375604D01*
X274182510Y-147433025D01*
X274185730Y-147488535D01*
X274189665Y-147542133D01*
X274194316Y-147593819D01*
X274199683Y-147643593D01*
X274205765Y-147691455D01*
X274212563Y-147737406D01*
X274220076Y-147781444D01*
X274228305Y-147823570D01*
X274237250Y-147863784D01*
X274246910Y-147902086D01*
X274257285Y-147938477D01*
X274268376Y-147972955D01*
X274280552Y-148006068D01*
X274294182Y-148038545D01*
X274309266Y-148070388D01*
X274325804Y-148101594D01*
X274343796Y-148132166D01*
X274363242Y-148162102D01*
X274384142Y-148191402D01*
X274406496Y-148220068D01*
X274430304Y-148248097D01*
X274455566Y-148275492D01*
X274482282Y-148302250D01*
X274510452Y-148328374D01*
X274540076Y-148353862D01*
X274571153Y-148378715D01*
X274603686Y-148402932D01*
X274637672Y-148426514D01*
X274672903Y-148448962D01*
X274709353Y-148469962D01*
X274747023Y-148489514D01*
X274785912Y-148507618D01*
X274826020Y-148524273D01*
X274867348Y-148539480D01*
X274909894Y-148553239D01*
X274953661Y-148565549D01*
X274998646Y-148576411D01*
X275044851Y-148585825D01*
X275092275Y-148593791D01*
X275140919Y-148600308D01*
X275190781Y-148605377D01*
X275241863Y-148608998D01*
X275294165Y-148611170D01*
X275347685Y-148611894D01*
X275404034Y-148611419D01*
X275458774Y-148609994D01*
X275511905Y-148607618D01*
X275563428Y-148604292D01*
X275613342Y-148600016D01*
X275661648Y-148594789D01*
X275708345Y-148588613D01*
X275753434Y-148581486D01*
X275796914Y-148573409D01*
X275838785Y-148564381D01*
X275879048Y-148554404D01*
X275917702Y-148543476D01*
X275954748Y-148531597D01*
X275990185Y-148518769D01*
X276024014Y-148504990D01*
X276056234Y-148490261D01*
X276087203Y-148474619D01*
X276117279Y-148458101D01*
X276146463Y-148440708D01*
X276174753Y-148422438D01*
X276202150Y-148403293D01*
X276228654Y-148383271D01*
X276254265Y-148362374D01*
X276278983Y-148340601D01*
X276302809Y-148317953D01*
X276325741Y-148294428D01*
X276347780Y-148270028D01*
X276368926Y-148244751D01*
X276389179Y-148218599D01*
X276408539Y-148191571D01*
X276427006Y-148163667D01*
X276444580Y-148134888D01*
X276461270Y-148105147D01*
X276477083Y-148074541D01*
X276492021Y-148043071D01*
X276506083Y-148010736D01*
X276519270Y-147977537D01*
X276531580Y-147943474D01*
X276543015Y-147908546D01*
X276553573Y-147872754D01*
X276563256Y-147836098D01*
X276572063Y-147798577D01*
X276579995Y-147760192D01*
X276587050Y-147720942D01*
X276593230Y-147680828D01*
X276598533Y-147639850D01*
X276602961Y-147598007D01*
X276606513Y-147555300D01*
X275714050Y-147439528D01*
X275713367Y-147474386D01*
X275712144Y-147507518D01*
X275710379Y-147538923D01*
X275708073Y-147568603D01*
X275704158Y-147605491D01*
X275699281Y-147639311D01*
X275693442Y-147670063D01*
X275684791Y-147704188D01*
X275678879Y-147722362D01*
X275667466Y-147750143D01*
X275653834Y-147776243D01*
X275634549Y-147805343D01*
X275612069Y-147832022D01*
X275590896Y-147852405D01*
X275567504Y-147871106D01*
X275541929Y-147885666D01*
X275512006Y-147896651D01*
X275482897Y-147903220D01*
X275450594Y-147907161D01*
X275421235Y-147908438D01*
X275415096Y-147908475D01*
X275377201Y-147906677D01*
X275341915Y-147901285D01*
X275309240Y-147892297D01*
X275279175Y-147879715D01*
X275251721Y-147863538D01*
X275226877Y-147843766D01*
X275204643Y-147820398D01*
X275185020Y-147793436D01*
X275167846Y-147762204D01*
X275152963Y-147726025D01*
X275143303Y-147695646D01*
X275134931Y-147662484D01*
X275127847Y-147626540D01*
X275122051Y-147587814D01*
X275117543Y-147546306D01*
X275114323Y-147502016D01*
X275112892Y-147470944D01*
X275112033Y-147438635D01*
X275111747Y-147405090D01*
X275111747Y-145563743D01*
G37*
G36*
X272631335Y-146314209D02*
G01*
X272674637Y-146315006D01*
X272717373Y-146316485D01*
X272759542Y-146318646D01*
X272801145Y-146321491D01*
X272842180Y-146325018D01*
X272882649Y-146329227D01*
X272922551Y-146334119D01*
X272961887Y-146339694D01*
X273000656Y-146345952D01*
X273038858Y-146352892D01*
X273063796Y-146357875D01*
X273099927Y-146365833D01*
X273134525Y-146374370D01*
X273167590Y-146383487D01*
X273199122Y-146393184D01*
X273229122Y-146403460D01*
X273257589Y-146414315D01*
X273293160Y-146429691D01*
X273326007Y-146446097D01*
X273356129Y-146463534D01*
X273375985Y-146475950D01*
X273404662Y-146495111D01*
X273432012Y-146514917D01*
X273458037Y-146535366D01*
X273482734Y-146556459D01*
X273506105Y-146578196D01*
X273528149Y-146600577D01*
X273548866Y-146623602D01*
X273568257Y-146647271D01*
X273586321Y-146671585D01*
X273603059Y-146696542D01*
X273618648Y-146722559D01*
X273633541Y-146750329D01*
X273647740Y-146779850D01*
X273661242Y-146811122D01*
X273674049Y-146844146D01*
X273686161Y-146878922D01*
X273697576Y-146915450D01*
X273708297Y-146953729D01*
X273718322Y-146993760D01*
X273727651Y-147035543D01*
X273733484Y-147064371D01*
X272931879Y-147158161D01*
X272928736Y-147148640D01*
X272915576Y-147112472D01*
X272901476Y-147079374D01*
X272886438Y-147049343D01*
X272870461Y-147022381D01*
X272849170Y-146992993D01*
X272826412Y-146968400D01*
X272802187Y-146948600D01*
X272788871Y-146939905D01*
X272759837Y-146924197D01*
X272727597Y-146910733D01*
X272692151Y-146899513D01*
X272663463Y-146892571D01*
X272632972Y-146886891D01*
X272600678Y-146882473D01*
X272566580Y-146879317D01*
X272530679Y-146877424D01*
X272492975Y-146876793D01*
X272454198Y-146877778D01*
X272418466Y-146880731D01*
X272385779Y-146885654D01*
X272356138Y-146892547D01*
X272323369Y-146903931D01*
X272295359Y-146918392D01*
X272268027Y-146939808D01*
X272246363Y-146966461D01*
X272231734Y-146993709D01*
X272220217Y-147025537D01*
X272213245Y-147054296D01*
X272208264Y-147085987D01*
X272205276Y-147120608D01*
X272204280Y-147158161D01*
X272214064Y-147161848D01*
X272243218Y-147172644D01*
X272272075Y-147183040D01*
X272300637Y-147193037D01*
X272328902Y-147202635D01*
X272356871Y-147211833D01*
X272393702Y-147223477D01*
X272430006Y-147234410D01*
X272465784Y-147244634D01*
X272501035Y-147254148D01*
X272530193Y-147261500D01*
X272565186Y-147269819D01*
X272606013Y-147279103D01*
X272636473Y-147285829D01*
X272669526Y-147292985D01*
X272705172Y-147300570D01*
X272743412Y-147308584D01*
X272784244Y-147317028D01*
X272827670Y-147325900D01*
X272873688Y-147335203D01*
X272922300Y-147344934D01*
X272973505Y-147355095D01*
X273027304Y-147365685D01*
X273083695Y-147376705D01*
X273112863Y-147382376D01*
X273161169Y-147392119D01*
X273207534Y-147402480D01*
X273251959Y-147413459D01*
X273294443Y-147425057D01*
X273334986Y-147437273D01*
X273373589Y-147450107D01*
X273410251Y-147463560D01*
X273444973Y-147477630D01*
X273477754Y-147492319D01*
X273508594Y-147507626D01*
X273537494Y-147523552D01*
X273564453Y-147540095D01*
X273589472Y-147557257D01*
X273623361Y-147584159D01*
X273652884Y-147612452D01*
X273679074Y-147642188D01*
X273702687Y-147673418D01*
X273723724Y-147706141D01*
X273742186Y-147740359D01*
X273758071Y-147776071D01*
X273771380Y-147813277D01*
X273782114Y-147851977D01*
X273790271Y-147892172D01*
X273795852Y-147933860D01*
X273798858Y-147977042D01*
X273799430Y-148006660D01*
X273798637Y-148038397D01*
X273796259Y-148069492D01*
X273792295Y-148099946D01*
X273786745Y-148129759D01*
X273779609Y-148158931D01*
X273770888Y-148187461D01*
X273760581Y-148215351D01*
X273748689Y-148242599D01*
X273735210Y-148269206D01*
X273720147Y-148295172D01*
X273703497Y-148320497D01*
X273685262Y-148345181D01*
X273665441Y-148369224D01*
X273644034Y-148392625D01*
X273621042Y-148415385D01*
X273596464Y-148437505D01*
X273570355Y-148458622D01*
X273542769Y-148478377D01*
X273513706Y-148496770D01*
X273483166Y-148513800D01*
X273451149Y-148529468D01*
X273417656Y-148543773D01*
X273382685Y-148556716D01*
X273346237Y-148568297D01*
X273308313Y-148578515D01*
X273268912Y-148587371D01*
X273228033Y-148594864D01*
X273185678Y-148600995D01*
X273141846Y-148605763D01*
X273096537Y-148609169D01*
X273049751Y-148611213D01*
X273001489Y-148611894D01*
X272964950Y-148611539D01*
X272928971Y-148610474D01*
X272893554Y-148608700D01*
X272858698Y-148606215D01*
X272824403Y-148603021D01*
X272790669Y-148599117D01*
X272757496Y-148594503D01*
X272724884Y-148589180D01*
X272692833Y-148583146D01*
X272661342Y-148576403D01*
X272630413Y-148568949D01*
X272600045Y-148560786D01*
X272570238Y-148551913D01*
X272540992Y-148542331D01*
X272512307Y-148532038D01*
X272484182Y-148521036D01*
X272463841Y-148512074D01*
X272433296Y-148497312D01*
X272402712Y-148480965D01*
X272372090Y-148463034D01*
X272341429Y-148443518D01*
X272310730Y-148422419D01*
X272279991Y-148399735D01*
X272249215Y-148375467D01*
X272218399Y-148349615D01*
X272187545Y-148322178D01*
X272156653Y-148293157D01*
X272153911Y-148310710D01*
X272148467Y-148343151D01*
X272143075Y-148372036D01*
X272135965Y-148405021D01*
X272128076Y-148434574D01*
X272121422Y-148452778D01*
X272108942Y-148481537D01*
X272094642Y-148510909D01*
X272079873Y-148539211D01*
X272065794Y-148565000D01*
X271278844Y-148565000D01*
X271282920Y-148556484D01*
X271298325Y-148523379D01*
X271312287Y-148491809D01*
X271324806Y-148461773D01*
X271335883Y-148433271D01*
X271347700Y-148399801D01*
X271357264Y-148368728D01*
X271364573Y-148340052D01*
X271366880Y-148328798D01*
X271371996Y-148298358D01*
X271376182Y-148264627D01*
X271378861Y-148235272D01*
X271380945Y-148203810D01*
X271382433Y-148170242D01*
X271383326Y-148134567D01*
X271383624Y-148096786D01*
X271383624Y-147580212D01*
X272204280Y-147580212D01*
X272204280Y-147701113D01*
X272204329Y-147709945D01*
X272205514Y-147744228D01*
X272208279Y-147776840D01*
X272212624Y-147807781D01*
X272218549Y-147837050D01*
X272228177Y-147871286D01*
X272240273Y-147902910D01*
X272254838Y-147931922D01*
X272272355Y-147958755D01*
X272293307Y-147984301D01*
X272317693Y-148008558D01*
X272345513Y-148031527D01*
X272370243Y-148048975D01*
X272397171Y-148065599D01*
X272426297Y-148081399D01*
X272456648Y-148095824D01*
X272487617Y-148108326D01*
X272519204Y-148118905D01*
X272551410Y-148127561D01*
X272584234Y-148134293D01*
X272617676Y-148139101D01*
X272651737Y-148141986D01*
X272686415Y-148142948D01*
X272702922Y-148142727D01*
X272734406Y-148140964D01*
X272770896Y-148136281D01*
X272804202Y-148128843D01*
X272834323Y-148118650D01*
X272861260Y-148105702D01*
X272889381Y-148086528D01*
X272897722Y-148079258D01*
X272919515Y-148055936D01*
X272936465Y-148030348D01*
X272948572Y-148002493D01*
X272955836Y-147972371D01*
X272958258Y-147939982D01*
X272954892Y-147906488D01*
X272944794Y-147874606D01*
X272930780Y-147848563D01*
X272911821Y-147823704D01*
X272887916Y-147800031D01*
X272862252Y-147781430D01*
X272835101Y-147766472D01*
X272802066Y-147751445D01*
X272773427Y-147740130D01*
X272741478Y-147728777D01*
X272706219Y-147717384D01*
X272667650Y-147705953D01*
X272625771Y-147694484D01*
X272596012Y-147686816D01*
X272564782Y-147679131D01*
X272541392Y-147673678D01*
X272506522Y-147665317D01*
X272471909Y-147656737D01*
X272437554Y-147647937D01*
X272403456Y-147638919D01*
X272369616Y-147629682D01*
X272336034Y-147620226D01*
X272302709Y-147610551D01*
X272269642Y-147600657D01*
X272236832Y-147590544D01*
X272204280Y-147580212D01*
X271383624Y-147580212D01*
X271383624Y-147124455D01*
X271383867Y-147104978D01*
X271385145Y-147075536D01*
X271387517Y-147045824D01*
X271390984Y-147015842D01*
X271395545Y-146985589D01*
X271401202Y-146955065D01*
X271407953Y-146924271D01*
X271415799Y-146893207D01*
X271424740Y-146861872D01*
X271434776Y-146830267D01*
X271445906Y-146798391D01*
X271449797Y-146787751D01*
X271462003Y-146756751D01*
X271475008Y-146727130D01*
X271488811Y-146698886D01*
X271503412Y-146672020D01*
X271518812Y-146646533D01*
X271540588Y-146614694D01*
X271563784Y-146585304D01*
X271588399Y-146558365D01*
X271614434Y-146533876D01*
X271633785Y-146517384D01*
X271663939Y-146493998D01*
X271695446Y-146472235D01*
X271728305Y-146452095D01*
X271762516Y-146433578D01*
X271798080Y-146416684D01*
X271834996Y-146401412D01*
X271873265Y-146387764D01*
X271912886Y-146375738D01*
X271953859Y-146365336D01*
X271996185Y-146356556D01*
X272025343Y-146351409D01*
X272055662Y-146346595D01*
X272087144Y-146342113D01*
X272119787Y-146337963D01*
X272153593Y-146334144D01*
X272188561Y-146330658D01*
X272224691Y-146327504D01*
X272261982Y-146324682D01*
X272300436Y-146322192D01*
X272340052Y-146320034D01*
X272380830Y-146318208D01*
X272422771Y-146316714D01*
X272465873Y-146315551D01*
X272510137Y-146314721D01*
X272555563Y-146314223D01*
X272602152Y-146314057D01*
X272631335Y-146314209D01*
G37*
G36*
X269265306Y-147720896D02*
G01*
X268467364Y-147814685D01*
X268475940Y-147844842D01*
X268485179Y-147874494D01*
X268495082Y-147903643D01*
X268505650Y-147932288D01*
X268516881Y-147960430D01*
X268528776Y-147988067D01*
X268541336Y-148015201D01*
X268554559Y-148041831D01*
X268568447Y-148067958D01*
X268582998Y-148093580D01*
X268598214Y-148118699D01*
X268622282Y-148155433D01*
X268647845Y-148191033D01*
X268674901Y-148225500D01*
X268684252Y-148236737D01*
X268713151Y-148269427D01*
X268743517Y-148300725D01*
X268775352Y-148330632D01*
X268808656Y-148359149D01*
X268831674Y-148377387D01*
X268855344Y-148395006D01*
X268879667Y-148412008D01*
X268904643Y-148428391D01*
X268930271Y-148444157D01*
X268956552Y-148459303D01*
X268983486Y-148473832D01*
X269011072Y-148487742D01*
X269039311Y-148501035D01*
X269068202Y-148513709D01*
X269097915Y-148525598D01*
X269128618Y-148536721D01*
X269160311Y-148547076D01*
X269192995Y-148556665D01*
X269226669Y-148565486D01*
X269261333Y-148573540D01*
X269296988Y-148580828D01*
X269333633Y-148587348D01*
X269371268Y-148593101D01*
X269409894Y-148598087D01*
X269449510Y-148602306D01*
X269490116Y-148605758D01*
X269531713Y-148608442D01*
X269574300Y-148610360D01*
X269617877Y-148611511D01*
X269662445Y-148611894D01*
X269705587Y-148611639D01*
X269747819Y-148610875D01*
X269789141Y-148609601D01*
X269829553Y-148607818D01*
X269869054Y-148605526D01*
X269907645Y-148602724D01*
X269945327Y-148599412D01*
X269982098Y-148595591D01*
X270017958Y-148591260D01*
X270052909Y-148586420D01*
X270086949Y-148581071D01*
X270120079Y-148575212D01*
X270152300Y-148568843D01*
X270183609Y-148561966D01*
X270214009Y-148554578D01*
X270243498Y-148546681D01*
X270272189Y-148538215D01*
X270300377Y-148529119D01*
X270328060Y-148519393D01*
X270368640Y-148503623D01*
X270408088Y-148486437D01*
X270446401Y-148467834D01*
X270483582Y-148447814D01*
X270519628Y-148426378D01*
X270554542Y-148403524D01*
X270588322Y-148379254D01*
X270620968Y-148353567D01*
X270642103Y-148335655D01*
X270672665Y-148307871D01*
X270701978Y-148279198D01*
X270730041Y-148249636D01*
X270756855Y-148219186D01*
X270782420Y-148187847D01*
X270806735Y-148155619D01*
X270829801Y-148122502D01*
X270851617Y-148088497D01*
X270872185Y-148053603D01*
X270891502Y-148017820D01*
X270903687Y-147993471D01*
X270920579Y-147955525D01*
X270935810Y-147915324D01*
X270945040Y-147887271D01*
X270953532Y-147858217D01*
X270961286Y-147828161D01*
X270968302Y-147797103D01*
X270974578Y-147765043D01*
X270980117Y-147731982D01*
X270984917Y-147697918D01*
X270988978Y-147662853D01*
X270992301Y-147626786D01*
X270994886Y-147589718D01*
X270996732Y-147551647D01*
X270997840Y-147512575D01*
X270998209Y-147472501D01*
X270997757Y-147430538D01*
X270996400Y-147389462D01*
X270994139Y-147349274D01*
X270990973Y-147309973D01*
X270986903Y-147271559D01*
X270981929Y-147234032D01*
X270976050Y-147197393D01*
X270969266Y-147161641D01*
X270961578Y-147126776D01*
X270952986Y-147092799D01*
X270943489Y-147059709D01*
X270933088Y-147027506D01*
X270921782Y-146996190D01*
X270909572Y-146965762D01*
X270896457Y-146936221D01*
X270882438Y-146907568D01*
X270866097Y-146876821D01*
X270848675Y-146846680D01*
X270830171Y-146817144D01*
X270810585Y-146788213D01*
X270789916Y-146759888D01*
X270768166Y-146732168D01*
X270745334Y-146705053D01*
X270721421Y-146678544D01*
X270696425Y-146652640D01*
X270670347Y-146627342D01*
X270652361Y-146610812D01*
X270624813Y-146586806D01*
X270597123Y-146563972D01*
X270569291Y-146542310D01*
X270541318Y-146521820D01*
X270513203Y-146502502D01*
X270484947Y-146484357D01*
X270456549Y-146467383D01*
X270428009Y-146451581D01*
X270399327Y-146436952D01*
X270370504Y-146423494D01*
X270351210Y-146415174D01*
X270319988Y-146402929D01*
X270287691Y-146391475D01*
X270254318Y-146380810D01*
X270219868Y-146370935D01*
X270184342Y-146361851D01*
X270147740Y-146353556D01*
X270110062Y-146346051D01*
X270071307Y-146339337D01*
X270031477Y-146333412D01*
X269990570Y-146328277D01*
X269948587Y-146323932D01*
X269905527Y-146320377D01*
X269861392Y-146317612D01*
X269816180Y-146315637D01*
X269769892Y-146314452D01*
X269722528Y-146314057D01*
X269689300Y-146314244D01*
X269656569Y-146314804D01*
X269624334Y-146315738D01*
X269592595Y-146317046D01*
X269561353Y-146318726D01*
X269530608Y-146320781D01*
X269500359Y-146323209D01*
X269470607Y-146326010D01*
X269441352Y-146329185D01*
X269384331Y-146336655D01*
X269329296Y-146345620D01*
X269276247Y-146356078D01*
X269225185Y-146368031D01*
X269176110Y-146381478D01*
X269129020Y-146396419D01*
X269083918Y-146412853D01*
X269040801Y-146430782D01*
X268999671Y-146450205D01*
X268960527Y-146471123D01*
X268923370Y-146493534D01*
X268905536Y-146505300D01*
X268871021Y-146529895D01*
X268837816Y-146555869D01*
X268805922Y-146583224D01*
X268775339Y-146611957D01*
X268746067Y-146642071D01*
X268718106Y-146673564D01*
X268691456Y-146706436D01*
X268666117Y-146740689D01*
X268642089Y-146776320D01*
X268619371Y-146813332D01*
X268597965Y-146851723D01*
X268577869Y-146891493D01*
X268559084Y-146932643D01*
X268541610Y-146975173D01*
X268525448Y-147019083D01*
X268510595Y-147064371D01*
X269299744Y-147158161D01*
X269310037Y-147124261D01*
X269322230Y-147092536D01*
X269336323Y-147062986D01*
X269352317Y-147035612D01*
X269370212Y-147010413D01*
X269390007Y-146987389D01*
X269411703Y-146966541D01*
X269435299Y-146947868D01*
X269460715Y-146931209D01*
X269488239Y-146916772D01*
X269517868Y-146904556D01*
X269549605Y-146894562D01*
X269583447Y-146886788D01*
X269619397Y-146881235D01*
X269657453Y-146877903D01*
X269687378Y-146876862D01*
X269697616Y-146876793D01*
X269735938Y-146878132D01*
X269772869Y-146882151D01*
X269808409Y-146888849D01*
X269842559Y-146898225D01*
X269875317Y-146910281D01*
X269906684Y-146925016D01*
X269936660Y-146942429D01*
X269965245Y-146962522D01*
X269992439Y-146985294D01*
X270018242Y-147010745D01*
X270034671Y-147029200D01*
X270057717Y-147059018D01*
X270078497Y-147091591D01*
X270097010Y-147126921D01*
X270113256Y-147165007D01*
X270127235Y-147205850D01*
X270135295Y-147234609D01*
X270142348Y-147264594D01*
X270148393Y-147295803D01*
X270153430Y-147328238D01*
X270157460Y-147361898D01*
X270160483Y-147396783D01*
X270162498Y-147432892D01*
X270163505Y-147470227D01*
X270163631Y-147489354D01*
X270163133Y-147523185D01*
X270161639Y-147555987D01*
X270159149Y-147587757D01*
X270155663Y-147618497D01*
X270151180Y-147648207D01*
X270142589Y-147690840D01*
X270131757Y-147731154D01*
X270118684Y-147769150D01*
X270103370Y-147804828D01*
X270085814Y-147838187D01*
X270066018Y-147869228D01*
X270043980Y-147897950D01*
X270036136Y-147907009D01*
X270011482Y-147932413D01*
X269985604Y-147955318D01*
X269958502Y-147975724D01*
X269930177Y-147993632D01*
X269900628Y-148009040D01*
X269869856Y-148021950D01*
X269837859Y-148032362D01*
X269804640Y-148040274D01*
X269770197Y-148045688D01*
X269734530Y-148048603D01*
X269710072Y-148049159D01*
X269679624Y-148048450D01*
X269650103Y-148046325D01*
X269612184Y-148041287D01*
X269575914Y-148033731D01*
X269541293Y-148023656D01*
X269508320Y-148011062D01*
X269476996Y-147995950D01*
X269447320Y-147978319D01*
X269433101Y-147968558D01*
X269405955Y-147947057D01*
X269380573Y-147922855D01*
X269356954Y-147895950D01*
X269335098Y-147866343D01*
X269315005Y-147834034D01*
X269301093Y-147808029D01*
X269288172Y-147780505D01*
X269276243Y-147751460D01*
X269265306Y-147720896D01*
G37*
G36*
X266985602Y-146314376D02*
G01*
X267020858Y-146315331D01*
X267055652Y-146316923D01*
X267089984Y-146319152D01*
X267123853Y-146322018D01*
X267157260Y-146325521D01*
X267190205Y-146329660D01*
X267222688Y-146334436D01*
X267254708Y-146339850D01*
X267286266Y-146345900D01*
X267317362Y-146352586D01*
X267347996Y-146359910D01*
X267378167Y-146367871D01*
X267407876Y-146376468D01*
X267437123Y-146385702D01*
X267465908Y-146395573D01*
X267494230Y-146406081D01*
X267522090Y-146417226D01*
X267549488Y-146429008D01*
X267576424Y-146441426D01*
X267602897Y-146454482D01*
X267654457Y-146482503D01*
X267704168Y-146513071D01*
X267752030Y-146546187D01*
X267798043Y-146581850D01*
X267842207Y-146620061D01*
X267863596Y-146640122D01*
X267884378Y-146660673D01*
X267923963Y-146702811D01*
X267960908Y-146746328D01*
X267995215Y-146791225D01*
X268026882Y-146837501D01*
X268055911Y-146885157D01*
X268082301Y-146934193D01*
X268106051Y-146984608D01*
X268127163Y-147036403D01*
X268145636Y-147089577D01*
X268161470Y-147144131D01*
X268174664Y-147200064D01*
X268185220Y-147257377D01*
X268189509Y-147286551D01*
X268193137Y-147316070D01*
X268196106Y-147345934D01*
X268198415Y-147376142D01*
X268200065Y-147406696D01*
X268201054Y-147437594D01*
X268201384Y-147468838D01*
X268200993Y-147502432D01*
X268199821Y-147535622D01*
X268197868Y-147568406D01*
X268195133Y-147600786D01*
X268191617Y-147632761D01*
X268187319Y-147664330D01*
X268182240Y-147695495D01*
X268176380Y-147726254D01*
X268169738Y-147756609D01*
X268162315Y-147786558D01*
X268154110Y-147816103D01*
X268145124Y-147845243D01*
X268135357Y-147873977D01*
X268124808Y-147902307D01*
X268113478Y-147930231D01*
X268101367Y-147957751D01*
X268088474Y-147984865D01*
X268074799Y-148011575D01*
X268060344Y-148037879D01*
X268045107Y-148063779D01*
X268029088Y-148089273D01*
X268012289Y-148114363D01*
X267994707Y-148139047D01*
X267976345Y-148163327D01*
X267957201Y-148187201D01*
X267937275Y-148210671D01*
X267916569Y-148233735D01*
X267895081Y-148256395D01*
X267872811Y-148278649D01*
X267849760Y-148300499D01*
X267825928Y-148321943D01*
X267801314Y-148342983D01*
X267780784Y-148359527D01*
X267738537Y-148391040D01*
X267694711Y-148420452D01*
X267649305Y-148447764D01*
X267602318Y-148472974D01*
X267553752Y-148496084D01*
X267503606Y-148517092D01*
X267451880Y-148536000D01*
X267398574Y-148552807D01*
X267343688Y-148567513D01*
X267287222Y-148580118D01*
X267258397Y-148585633D01*
X267229176Y-148590623D01*
X267199561Y-148595087D01*
X267169551Y-148599026D01*
X267139145Y-148602440D01*
X267108345Y-148605329D01*
X267077149Y-148607692D01*
X267045559Y-148609531D01*
X267013574Y-148610844D01*
X266981193Y-148611632D01*
X266948418Y-148611894D01*
X266911667Y-148611578D01*
X266875417Y-148610629D01*
X266839670Y-148609048D01*
X266804426Y-148606834D01*
X266769683Y-148603987D01*
X266735443Y-148600508D01*
X266701705Y-148596397D01*
X266668470Y-148591653D01*
X266635737Y-148586276D01*
X266603506Y-148580267D01*
X266571778Y-148573625D01*
X266540552Y-148566350D01*
X266509828Y-148558444D01*
X266479606Y-148549904D01*
X266449887Y-148540732D01*
X266420670Y-148530928D01*
X266391956Y-148520491D01*
X266363744Y-148509421D01*
X266336034Y-148497719D01*
X266308826Y-148485384D01*
X266282121Y-148472417D01*
X266255918Y-148458817D01*
X266205019Y-148429719D01*
X266156130Y-148398092D01*
X266109249Y-148363934D01*
X266064378Y-148327246D01*
X266021517Y-148288028D01*
X265980968Y-148246829D01*
X265943034Y-148204199D01*
X265907718Y-148160138D01*
X265875017Y-148114646D01*
X265844932Y-148067723D01*
X265817463Y-148019369D01*
X265792610Y-147969583D01*
X265770374Y-147918367D01*
X265750753Y-147865719D01*
X265733749Y-147811640D01*
X265719361Y-147756130D01*
X265707588Y-147699189D01*
X265702683Y-147670182D01*
X265698432Y-147640817D01*
X265694835Y-147611094D01*
X265691892Y-147581014D01*
X265689603Y-147550575D01*
X265687968Y-147519779D01*
X265686987Y-147488626D01*
X265686660Y-147457114D01*
X265686729Y-147453450D01*
X266530030Y-147453450D01*
X266530144Y-147472838D01*
X266531054Y-147510607D01*
X266532875Y-147547038D01*
X266535605Y-147582129D01*
X266539246Y-147615880D01*
X266543797Y-147648292D01*
X266549258Y-147679364D01*
X266555629Y-147709097D01*
X266562911Y-147737490D01*
X266575540Y-147777568D01*
X266590216Y-147814633D01*
X266606941Y-147848683D01*
X266625714Y-147879719D01*
X266646534Y-147907742D01*
X266661349Y-147924867D01*
X266684516Y-147948482D01*
X266708816Y-147969612D01*
X266734250Y-147988256D01*
X266760817Y-148004414D01*
X266788517Y-148018086D01*
X266817351Y-148029272D01*
X266847319Y-148037972D01*
X266878420Y-148044187D01*
X266910654Y-148047916D01*
X266944022Y-148049159D01*
X266966224Y-148048598D01*
X266998637Y-148045652D01*
X267029980Y-148040183D01*
X267060254Y-148032188D01*
X267089460Y-148021670D01*
X267117596Y-148008627D01*
X267144664Y-147993059D01*
X267170662Y-147974967D01*
X267195591Y-147954350D01*
X267219451Y-147931209D01*
X267242242Y-147905544D01*
X267263325Y-147877244D01*
X267282333Y-147846201D01*
X267299269Y-147812415D01*
X267314130Y-147775885D01*
X267326918Y-147736612D01*
X267337632Y-147694595D01*
X267343622Y-147665060D01*
X267348691Y-147634305D01*
X267352839Y-147602332D01*
X267356064Y-147569138D01*
X267358368Y-147534726D01*
X267359751Y-147499094D01*
X267360212Y-147462243D01*
X267359745Y-147425833D01*
X267358345Y-147390607D01*
X267356013Y-147356567D01*
X267352747Y-147323712D01*
X267348548Y-147292041D01*
X267343416Y-147261556D01*
X267337351Y-147232255D01*
X267326504Y-147190526D01*
X267313557Y-147151463D01*
X267298511Y-147115066D01*
X267281366Y-147081336D01*
X267262121Y-147050271D01*
X267240777Y-147021873D01*
X267225599Y-147004305D01*
X267201897Y-146980078D01*
X267177075Y-146958401D01*
X267151133Y-146939274D01*
X267124070Y-146922697D01*
X267095886Y-146908671D01*
X267066582Y-146897195D01*
X267036157Y-146888269D01*
X267004612Y-146881893D01*
X266971946Y-146878068D01*
X266938160Y-146876793D01*
X266916762Y-146877351D01*
X266885481Y-146880281D01*
X266855178Y-146885723D01*
X266825855Y-146893676D01*
X266797510Y-146904141D01*
X266770145Y-146917118D01*
X266743758Y-146932606D01*
X266718350Y-146950606D01*
X266693921Y-146971117D01*
X266670471Y-146994140D01*
X266647999Y-147019675D01*
X266626917Y-147047642D01*
X266607908Y-147078236D01*
X266590973Y-147111458D01*
X266576112Y-147147307D01*
X266563324Y-147185784D01*
X266552610Y-147226888D01*
X266546620Y-147255751D01*
X266541551Y-147285781D01*
X266537403Y-147316980D01*
X266534178Y-147349346D01*
X266531873Y-147382879D01*
X266530491Y-147417581D01*
X266530030Y-147453450D01*
X265686729Y-147453450D01*
X265687716Y-147401252D01*
X265690884Y-147346506D01*
X265696165Y-147292877D01*
X265703558Y-147240364D01*
X265713064Y-147188967D01*
X265724681Y-147138686D01*
X265738411Y-147089522D01*
X265754254Y-147041474D01*
X265772209Y-146994542D01*
X265792276Y-146948726D01*
X265814455Y-146904027D01*
X265838747Y-146860444D01*
X265865151Y-146817977D01*
X265893667Y-146776627D01*
X265924296Y-146736392D01*
X265957036Y-146697274D01*
X265978325Y-146673698D01*
X266000242Y-146650869D01*
X266022787Y-146628789D01*
X266045960Y-146607458D01*
X266069761Y-146586875D01*
X266094191Y-146567041D01*
X266119249Y-146547955D01*
X266144936Y-146529617D01*
X266171250Y-146512028D01*
X266198193Y-146495187D01*
X266225764Y-146479095D01*
X266253963Y-146463752D01*
X266282791Y-146449156D01*
X266312247Y-146435310D01*
X266342331Y-146422211D01*
X266373043Y-146409862D01*
X266404384Y-146398260D01*
X266436353Y-146387408D01*
X266468950Y-146377303D01*
X266502175Y-146367947D01*
X266536029Y-146359340D01*
X266570511Y-146351481D01*
X266605621Y-146344370D01*
X266641359Y-146338008D01*
X266677726Y-146332395D01*
X266714721Y-146327530D01*
X266752344Y-146323413D01*
X266790595Y-146320045D01*
X266829475Y-146317426D01*
X266868983Y-146315554D01*
X266909119Y-146314432D01*
X266949884Y-146314057D01*
X266985602Y-146314376D01*
G37*
G36*
X265294650Y-148565000D02*
G01*
X264509898Y-148565000D01*
X264509898Y-148269710D01*
X264499755Y-148281272D01*
X264479610Y-148303700D01*
X264459655Y-148325201D01*
X264430076Y-148355714D01*
X264400922Y-148384140D01*
X264372193Y-148410480D01*
X264343890Y-148434733D01*
X264316011Y-148456899D01*
X264288557Y-148476979D01*
X264261528Y-148494972D01*
X264234925Y-148510879D01*
X264208746Y-148524699D01*
X264185702Y-148535258D01*
X264150589Y-148549819D01*
X264114820Y-148562847D01*
X264078393Y-148574343D01*
X264041309Y-148584305D01*
X264003569Y-148592735D01*
X263965171Y-148599632D01*
X263926117Y-148604997D01*
X263886406Y-148608829D01*
X263846038Y-148611128D01*
X263805013Y-148611894D01*
X263773045Y-148611365D01*
X263741437Y-148609776D01*
X263710190Y-148607129D01*
X263679304Y-148603422D01*
X263648778Y-148598656D01*
X263618613Y-148592832D01*
X263588809Y-148585948D01*
X263559366Y-148578005D01*
X263530282Y-148569004D01*
X263501560Y-148558943D01*
X263473198Y-148547823D01*
X263445197Y-148535645D01*
X263417557Y-148522407D01*
X263390277Y-148508110D01*
X263363358Y-148492754D01*
X263336799Y-148476339D01*
X263310690Y-148458854D01*
X263285302Y-148440287D01*
X263260636Y-148420638D01*
X263236690Y-148399907D01*
X263213466Y-148378094D01*
X263190963Y-148355199D01*
X263169182Y-148331222D01*
X263148122Y-148306163D01*
X263127783Y-148280022D01*
X263108165Y-148252800D01*
X263089269Y-148224495D01*
X263071094Y-148195109D01*
X263053640Y-148164641D01*
X263036907Y-148133090D01*
X263020896Y-148100458D01*
X263005606Y-148066744D01*
X262991143Y-148032065D01*
X262977613Y-147996723D01*
X262965017Y-147960716D01*
X262953353Y-147924045D01*
X262942623Y-147886710D01*
X262932825Y-147848712D01*
X262923961Y-147810049D01*
X262916030Y-147770722D01*
X262909032Y-147730731D01*
X262902967Y-147690076D01*
X262897835Y-147648757D01*
X262893636Y-147606774D01*
X262890370Y-147564127D01*
X262888037Y-147520816D01*
X262886638Y-147476840D01*
X262886255Y-147440261D01*
X263724413Y-147440261D01*
X263724513Y-147460684D01*
X263725314Y-147500417D01*
X263726917Y-147538668D01*
X263729321Y-147575436D01*
X263732527Y-147610721D01*
X263736534Y-147644524D01*
X263741343Y-147676844D01*
X263746953Y-147707682D01*
X263753364Y-147737037D01*
X263764484Y-147778289D01*
X263777407Y-147816206D01*
X263792133Y-147850787D01*
X263808662Y-147882031D01*
X263826995Y-147909940D01*
X263839915Y-147926799D01*
X263860003Y-147950047D01*
X263880942Y-147970848D01*
X263910182Y-147994776D01*
X263940934Y-148014354D01*
X263973197Y-148029581D01*
X264006971Y-148040457D01*
X264042257Y-148046983D01*
X264079053Y-148049159D01*
X264089165Y-148049021D01*
X264118838Y-148046949D01*
X264156860Y-148040320D01*
X264193118Y-148029272D01*
X264227614Y-148013804D01*
X264260346Y-147993918D01*
X264283739Y-147976103D01*
X264306139Y-147955802D01*
X264327548Y-147933015D01*
X264347965Y-147907742D01*
X264354501Y-147898687D01*
X264372866Y-147869480D01*
X264389363Y-147837207D01*
X264403993Y-147801868D01*
X264416755Y-147763465D01*
X264427649Y-147721995D01*
X264433874Y-147692646D01*
X264439269Y-147661934D01*
X264443835Y-147629860D01*
X264447570Y-147596424D01*
X264450475Y-147561625D01*
X264452550Y-147525464D01*
X264453795Y-147487940D01*
X264454210Y-147449054D01*
X264454105Y-147431154D01*
X264453264Y-147396218D01*
X264451581Y-147362432D01*
X264449056Y-147329797D01*
X264445690Y-147298313D01*
X264441483Y-147267979D01*
X264433594Y-147224636D01*
X264423811Y-147183881D01*
X264412136Y-147145716D01*
X264398567Y-147110139D01*
X264383104Y-147077151D01*
X264365748Y-147046752D01*
X264346499Y-147018942D01*
X264332698Y-147001729D01*
X264311072Y-146977991D01*
X264288339Y-146956752D01*
X264264498Y-146938012D01*
X264239549Y-146921770D01*
X264213493Y-146908027D01*
X264186329Y-146896783D01*
X264158058Y-146888037D01*
X264128678Y-146881790D01*
X264098191Y-146878042D01*
X264066597Y-146876793D01*
X264048994Y-146877325D01*
X264014785Y-146881584D01*
X263981904Y-146890102D01*
X263950351Y-146902879D01*
X263920126Y-146919915D01*
X263891229Y-146941210D01*
X263863660Y-146966764D01*
X263843855Y-146988724D01*
X263824796Y-147013080D01*
X263812641Y-147030720D01*
X263795877Y-147059445D01*
X263780879Y-147090887D01*
X263767644Y-147125047D01*
X263756175Y-147161925D01*
X263746470Y-147201520D01*
X263738529Y-147243833D01*
X263734216Y-147273551D01*
X263730687Y-147304477D01*
X263727942Y-147336612D01*
X263725981Y-147369954D01*
X263724805Y-147404503D01*
X263724413Y-147440261D01*
X262886255Y-147440261D01*
X262886171Y-147432201D01*
X262886427Y-147398650D01*
X262887193Y-147365592D01*
X262888470Y-147333025D01*
X262890258Y-147300951D01*
X262892557Y-147269369D01*
X262895367Y-147238280D01*
X262898688Y-147207683D01*
X262902520Y-147177578D01*
X262906863Y-147147965D01*
X262911716Y-147118845D01*
X262922956Y-147062082D01*
X262936240Y-147007287D01*
X262951567Y-146954462D01*
X262968938Y-146903606D01*
X262988352Y-146854719D01*
X263009811Y-146807802D01*
X263033312Y-146762854D01*
X263058858Y-146719875D01*
X263086446Y-146678865D01*
X263116079Y-146639824D01*
X263147755Y-146602752D01*
X263180991Y-146567793D01*
X263215304Y-146535090D01*
X263250692Y-146504641D01*
X263287157Y-146476448D01*
X263324698Y-146450511D01*
X263363315Y-146426829D01*
X263403008Y-146405402D01*
X263443778Y-146386231D01*
X263485623Y-146369315D01*
X263528545Y-146354655D01*
X263572543Y-146342250D01*
X263617617Y-146332101D01*
X263663768Y-146324207D01*
X263710995Y-146318568D01*
X263759297Y-146315185D01*
X263808676Y-146314057D01*
X263832814Y-146314289D01*
X263868515Y-146315506D01*
X263903611Y-146317767D01*
X263938101Y-146321071D01*
X263971986Y-146325418D01*
X264005266Y-146330808D01*
X264037940Y-146337241D01*
X264070009Y-146344718D01*
X264101473Y-146353238D01*
X264132331Y-146362802D01*
X264162584Y-146373408D01*
X264182417Y-146380970D01*
X264211661Y-146393194D01*
X264240299Y-146406473D01*
X264268333Y-146420808D01*
X264295761Y-146436200D01*
X264322583Y-146452648D01*
X264348800Y-146470151D01*
X264374412Y-146488712D01*
X264399419Y-146508328D01*
X264423820Y-146529000D01*
X264447616Y-146550729D01*
X264447616Y-145563743D01*
X265294650Y-145563743D01*
X265294650Y-148565000D01*
G37*
G36*
X261041161Y-148565000D02*
G01*
X259429891Y-148565000D01*
X259400753Y-148564335D01*
X259364998Y-148562343D01*
X259333840Y-148559978D01*
X259298958Y-148556865D01*
X259260355Y-148553005D01*
X259218029Y-148548399D01*
X259187744Y-148544912D01*
X259155804Y-148541094D01*
X259122210Y-148536944D01*
X259086962Y-148532462D01*
X259050060Y-148527648D01*
X259011503Y-148522501D01*
X258968046Y-148516252D01*
X258926701Y-148509321D01*
X258887468Y-148501706D01*
X258850348Y-148493410D01*
X258815340Y-148484430D01*
X258782445Y-148474768D01*
X258751662Y-148464423D01*
X258722991Y-148453396D01*
X258688049Y-148437631D01*
X258656862Y-148420652D01*
X258633455Y-148406324D01*
X258599525Y-148383651D01*
X258567011Y-148359561D01*
X258535915Y-148334054D01*
X258506235Y-148307131D01*
X258477972Y-148278790D01*
X258451126Y-148249033D01*
X258425696Y-148217859D01*
X258401684Y-148185269D01*
X258379088Y-148151261D01*
X258357909Y-148115837D01*
X258351192Y-148103745D01*
X258332321Y-148066904D01*
X258315368Y-148029213D01*
X258300335Y-147990672D01*
X258287221Y-147951281D01*
X258276026Y-147911039D01*
X258266751Y-147869948D01*
X258259394Y-147828006D01*
X258253956Y-147785215D01*
X258250438Y-147741573D01*
X258249159Y-147712006D01*
X258248732Y-147682062D01*
X258249333Y-147645362D01*
X258251136Y-147609453D01*
X258254142Y-147574333D01*
X258257462Y-147547240D01*
X259184427Y-147547240D01*
X259185972Y-147582239D01*
X259190609Y-147615429D01*
X259198337Y-147646810D01*
X259209156Y-147676383D01*
X259223067Y-147704147D01*
X259240068Y-147730101D01*
X259260161Y-147754247D01*
X259283345Y-147776584D01*
X259289666Y-147781813D01*
X259317727Y-147801070D01*
X259350231Y-147817671D01*
X259377523Y-147828378D01*
X259407315Y-147837592D01*
X259439605Y-147845311D01*
X259474394Y-147851537D01*
X259511681Y-147856268D01*
X259551468Y-147859505D01*
X259593753Y-147861248D01*
X259623331Y-147861580D01*
X260099605Y-147861580D01*
X260099605Y-147251950D01*
X259625529Y-147251950D01*
X259595424Y-147252268D01*
X259552435Y-147253936D01*
X259512048Y-147257033D01*
X259474262Y-147261561D01*
X259439078Y-147267518D01*
X259406496Y-147274904D01*
X259376516Y-147283721D01*
X259340589Y-147297700D01*
X259309288Y-147314220D01*
X259282612Y-147333283D01*
X259259600Y-147354257D01*
X259239656Y-147376880D01*
X259222780Y-147401152D01*
X259208973Y-147427072D01*
X259198234Y-147454641D01*
X259190563Y-147483859D01*
X259185961Y-147514725D01*
X259184427Y-147547240D01*
X258257462Y-147547240D01*
X258258349Y-147540004D01*
X258263759Y-147506464D01*
X258270371Y-147473715D01*
X258278184Y-147441755D01*
X258287200Y-147410586D01*
X258297419Y-147380206D01*
X258308839Y-147350616D01*
X258321461Y-147321817D01*
X258335286Y-147293807D01*
X258350312Y-147266587D01*
X258366541Y-147240158D01*
X258383972Y-147214518D01*
X258402605Y-147189668D01*
X258422423Y-147165663D01*
X258443592Y-147142556D01*
X258466112Y-147120348D01*
X258489983Y-147099039D01*
X258515205Y-147078628D01*
X258541778Y-147059116D01*
X258569702Y-147040503D01*
X258598976Y-147022789D01*
X258629602Y-147005974D01*
X258661579Y-146990057D01*
X258694907Y-146975039D01*
X258729585Y-146960919D01*
X258765615Y-146947699D01*
X258802996Y-146935377D01*
X258841727Y-146923954D01*
X258881810Y-146913429D01*
X258855466Y-146904348D01*
X258817453Y-146889984D01*
X258781243Y-146874732D01*
X258746836Y-146858591D01*
X258714232Y-146841562D01*
X258683432Y-146823644D01*
X258654435Y-146804837D01*
X258627241Y-146785141D01*
X258601850Y-146764557D01*
X258578263Y-146743084D01*
X258556478Y-146720722D01*
X258536248Y-146697541D01*
X258517323Y-146673793D01*
X258499703Y-146649478D01*
X258483389Y-146624597D01*
X258468379Y-146599149D01*
X258454675Y-146573134D01*
X258442276Y-146546553D01*
X258431182Y-146519405D01*
X258421393Y-146491690D01*
X258412909Y-146463408D01*
X258405731Y-146434560D01*
X258403908Y-146425432D01*
X259303861Y-146425432D01*
X259304615Y-146448947D01*
X259307964Y-146478657D01*
X259315917Y-146513154D01*
X259328056Y-146544717D01*
X259344382Y-146573346D01*
X259364893Y-146599042D01*
X259389591Y-146621803D01*
X259419619Y-146641224D01*
X259448304Y-146654390D01*
X259481134Y-146665449D01*
X259518108Y-146674402D01*
X259548558Y-146679735D01*
X259581340Y-146683882D01*
X259616453Y-146686845D01*
X259653897Y-146688622D01*
X259693673Y-146689214D01*
X260099605Y-146689214D01*
X260099605Y-146173374D01*
X259687078Y-146173374D01*
X259648481Y-146173960D01*
X259612100Y-146175718D01*
X259577933Y-146178648D01*
X259545982Y-146182750D01*
X259516247Y-146188025D01*
X259480045Y-146196880D01*
X259447782Y-146207820D01*
X259419458Y-146220843D01*
X259389591Y-146240052D01*
X259379209Y-146248590D01*
X259356186Y-146271713D01*
X259337349Y-146297376D01*
X259322698Y-146325580D01*
X259312233Y-146356324D01*
X259305954Y-146389608D01*
X259303861Y-146425432D01*
X258403908Y-146425432D01*
X258399857Y-146405145D01*
X258395289Y-146375163D01*
X258392026Y-146344614D01*
X258390069Y-146313499D01*
X258389416Y-146281817D01*
X258390329Y-146244099D01*
X258393068Y-146207148D01*
X258397634Y-146170964D01*
X258404025Y-146135546D01*
X258412242Y-146100896D01*
X258422286Y-146067013D01*
X258434155Y-146033898D01*
X258447851Y-146001549D01*
X258463373Y-145969967D01*
X258480721Y-145939152D01*
X258499895Y-145909105D01*
X258520895Y-145879824D01*
X258543721Y-145851311D01*
X258568374Y-145823564D01*
X258594852Y-145796585D01*
X258623157Y-145770373D01*
X258653167Y-145745351D01*
X258684763Y-145721944D01*
X258717945Y-145700151D01*
X258752712Y-145679972D01*
X258789065Y-145661408D01*
X258827004Y-145644458D01*
X258866528Y-145629122D01*
X258907638Y-145615401D01*
X258950334Y-145603294D01*
X258994616Y-145592801D01*
X259040483Y-145583922D01*
X259087935Y-145576658D01*
X259136974Y-145571008D01*
X259187598Y-145566972D01*
X259239808Y-145564551D01*
X259293603Y-145563743D01*
X261041161Y-145563743D01*
X261041161Y-148565000D01*
G37*
G36*
X256721541Y-146314376D02*
G01*
X256756797Y-146315331D01*
X256791591Y-146316923D01*
X256825922Y-146319152D01*
X256859792Y-146322018D01*
X256893199Y-146325521D01*
X256926144Y-146329660D01*
X256958626Y-146334436D01*
X256990647Y-146339850D01*
X257022205Y-146345900D01*
X257053301Y-146352586D01*
X257083934Y-146359910D01*
X257114106Y-146367871D01*
X257143815Y-146376468D01*
X257173062Y-146385702D01*
X257201846Y-146395573D01*
X257230169Y-146406081D01*
X257258029Y-146417226D01*
X257285427Y-146429008D01*
X257312362Y-146441426D01*
X257338836Y-146454482D01*
X257390396Y-146482503D01*
X257440107Y-146513071D01*
X257487969Y-146546187D01*
X257533982Y-146581850D01*
X257578146Y-146620061D01*
X257599535Y-146640122D01*
X257620317Y-146660673D01*
X257659901Y-146702811D01*
X257696847Y-146746328D01*
X257731153Y-146791225D01*
X257762821Y-146837501D01*
X257791850Y-146885157D01*
X257818239Y-146934193D01*
X257841990Y-146984608D01*
X257863102Y-147036403D01*
X257881574Y-147089577D01*
X257897408Y-147144131D01*
X257910603Y-147200064D01*
X257921159Y-147257377D01*
X257925447Y-147286551D01*
X257929076Y-147316070D01*
X257932045Y-147345934D01*
X257934354Y-147376142D01*
X257936003Y-147406696D01*
X257936993Y-147437594D01*
X257937323Y-147468838D01*
X257936932Y-147502432D01*
X257935760Y-147535622D01*
X257933806Y-147568406D01*
X257931072Y-147600786D01*
X257927555Y-147632761D01*
X257923258Y-147664330D01*
X257918179Y-147695495D01*
X257912318Y-147726254D01*
X257905676Y-147756609D01*
X257898253Y-147786558D01*
X257890049Y-147816103D01*
X257881063Y-147845243D01*
X257871295Y-147873977D01*
X257860747Y-147902307D01*
X257849417Y-147930231D01*
X257837305Y-147957751D01*
X257824412Y-147984865D01*
X257810738Y-148011575D01*
X257796282Y-148037879D01*
X257781045Y-148063779D01*
X257765027Y-148089273D01*
X257748227Y-148114363D01*
X257730646Y-148139047D01*
X257712283Y-148163327D01*
X257693139Y-148187201D01*
X257673214Y-148210671D01*
X257652507Y-148233735D01*
X257631019Y-148256395D01*
X257608750Y-148278649D01*
X257585699Y-148300499D01*
X257561866Y-148321943D01*
X257537253Y-148342983D01*
X257516722Y-148359527D01*
X257474476Y-148391040D01*
X257430649Y-148420452D01*
X257385243Y-148447764D01*
X257338257Y-148472974D01*
X257289691Y-148496084D01*
X257239545Y-148517092D01*
X257187819Y-148536000D01*
X257134513Y-148552807D01*
X257079627Y-148567513D01*
X257023161Y-148580118D01*
X256994335Y-148585633D01*
X256965115Y-148590623D01*
X256935499Y-148595087D01*
X256905489Y-148599026D01*
X256875084Y-148602440D01*
X256844283Y-148605329D01*
X256813088Y-148607692D01*
X256781498Y-148609531D01*
X256749512Y-148610844D01*
X256717132Y-148611632D01*
X256684357Y-148611894D01*
X256647605Y-148611578D01*
X256611356Y-148610629D01*
X256575609Y-148609048D01*
X256540364Y-148606834D01*
X256505622Y-148603987D01*
X256471382Y-148600508D01*
X256437644Y-148596397D01*
X256404409Y-148591653D01*
X256371676Y-148586276D01*
X256339445Y-148580267D01*
X256307716Y-148573625D01*
X256276490Y-148566350D01*
X256245767Y-148558444D01*
X256215545Y-148549904D01*
X256185826Y-148540732D01*
X256156609Y-148530928D01*
X256127895Y-148520491D01*
X256099682Y-148509421D01*
X256071972Y-148497719D01*
X256044765Y-148485384D01*
X256018060Y-148472417D01*
X255991857Y-148458817D01*
X255940958Y-148429719D01*
X255892068Y-148398092D01*
X255845188Y-148363934D01*
X255800317Y-148327246D01*
X255757455Y-148288028D01*
X255716906Y-148246829D01*
X255678973Y-148204199D01*
X255643656Y-148160138D01*
X255610955Y-148114646D01*
X255580870Y-148067723D01*
X255553402Y-148019369D01*
X255528549Y-147969583D01*
X255506312Y-147918367D01*
X255486692Y-147865719D01*
X255469687Y-147811640D01*
X255455299Y-147756130D01*
X255443527Y-147699189D01*
X255438622Y-147670182D01*
X255434371Y-147640817D01*
X255430773Y-147611094D01*
X255427830Y-147581014D01*
X255425541Y-147550575D01*
X255423906Y-147519779D01*
X255422925Y-147488626D01*
X255422598Y-147457114D01*
X255422667Y-147453450D01*
X256265969Y-147453450D01*
X256266083Y-147472838D01*
X256266993Y-147510607D01*
X256268813Y-147547038D01*
X256271544Y-147582129D01*
X256275184Y-147615880D01*
X256279735Y-147648292D01*
X256285196Y-147679364D01*
X256291568Y-147709097D01*
X256298849Y-147737490D01*
X256311478Y-147777568D01*
X256326155Y-147814633D01*
X256342880Y-147848683D01*
X256361652Y-147879719D01*
X256382473Y-147907742D01*
X256397287Y-147924867D01*
X256420454Y-147948482D01*
X256444755Y-147969612D01*
X256470188Y-147988256D01*
X256496755Y-148004414D01*
X256524456Y-148018086D01*
X256553290Y-148029272D01*
X256583257Y-148037972D01*
X256614358Y-148044187D01*
X256646593Y-148047916D01*
X256679960Y-148049159D01*
X256702163Y-148048598D01*
X256734575Y-148045652D01*
X256765919Y-148040183D01*
X256796193Y-148032188D01*
X256825398Y-148021670D01*
X256853535Y-148008627D01*
X256880602Y-147993059D01*
X256906600Y-147974967D01*
X256931530Y-147954350D01*
X256955390Y-147931209D01*
X256978181Y-147905544D01*
X256999263Y-147877244D01*
X257018272Y-147846201D01*
X257035207Y-147812415D01*
X257050068Y-147775885D01*
X257062856Y-147736612D01*
X257073570Y-147694595D01*
X257079561Y-147665060D01*
X257084630Y-147634305D01*
X257088777Y-147602332D01*
X257092003Y-147569138D01*
X257094307Y-147534726D01*
X257095689Y-147499094D01*
X257096150Y-147462243D01*
X257095684Y-147425833D01*
X257094284Y-147390607D01*
X257091951Y-147356567D01*
X257088686Y-147323712D01*
X257084487Y-147292041D01*
X257079355Y-147261556D01*
X257073290Y-147232255D01*
X257062443Y-147190526D01*
X257049496Y-147151463D01*
X257034450Y-147115066D01*
X257017305Y-147081336D01*
X256998060Y-147050271D01*
X256976715Y-147021873D01*
X256961537Y-147004305D01*
X256937836Y-146980078D01*
X256913014Y-146958401D01*
X256887071Y-146939274D01*
X256860008Y-146922697D01*
X256831825Y-146908671D01*
X256802521Y-146897195D01*
X256772096Y-146888269D01*
X256740551Y-146881893D01*
X256707885Y-146878068D01*
X256674099Y-146876793D01*
X256652701Y-146877351D01*
X256621419Y-146880281D01*
X256591117Y-146885723D01*
X256561794Y-146893676D01*
X256533449Y-146904141D01*
X256506083Y-146917118D01*
X256479697Y-146932606D01*
X256454289Y-146950606D01*
X256429860Y-146971117D01*
X256406409Y-146994140D01*
X256383938Y-147019675D01*
X256362856Y-147047642D01*
X256343847Y-147078236D01*
X256326912Y-147111458D01*
X256312051Y-147147307D01*
X256299263Y-147185784D01*
X256288549Y-147226888D01*
X256282558Y-147255751D01*
X256277489Y-147285781D01*
X256273342Y-147316980D01*
X256270116Y-147349346D01*
X256267812Y-147382879D01*
X256266430Y-147417581D01*
X256265969Y-147453450D01*
X255422667Y-147453450D01*
X255423654Y-147401252D01*
X255426823Y-147346506D01*
X255432104Y-147292877D01*
X255439497Y-147240364D01*
X255449002Y-147188967D01*
X255460620Y-147138686D01*
X255474350Y-147089522D01*
X255490192Y-147041474D01*
X255508147Y-146994542D01*
X255528214Y-146948726D01*
X255550394Y-146904027D01*
X255574685Y-146860444D01*
X255601089Y-146817977D01*
X255629606Y-146776627D01*
X255660234Y-146736392D01*
X255692975Y-146697274D01*
X255714264Y-146673698D01*
X255736180Y-146650869D01*
X255758725Y-146628789D01*
X255781899Y-146607458D01*
X255805700Y-146586875D01*
X255830130Y-146567041D01*
X255855188Y-146547955D01*
X255880874Y-146529617D01*
X255907189Y-146512028D01*
X255934131Y-146495187D01*
X255961703Y-146479095D01*
X255989902Y-146463752D01*
X256018729Y-146449156D01*
X256048185Y-146435310D01*
X256078269Y-146422211D01*
X256108982Y-146409862D01*
X256140322Y-146398260D01*
X256172291Y-146387408D01*
X256204888Y-146377303D01*
X256238114Y-146367947D01*
X256271967Y-146359340D01*
X256306449Y-146351481D01*
X256341559Y-146344370D01*
X256377298Y-146338008D01*
X256413664Y-146332395D01*
X256450659Y-146327530D01*
X256488282Y-146323413D01*
X256526534Y-146320045D01*
X256565414Y-146317426D01*
X256604922Y-146315554D01*
X256645058Y-146314432D01*
X256685822Y-146314057D01*
X256721541Y-146314376D01*
G37*
G36*
X253922518Y-146314376D02*
G01*
X253957774Y-146315331D01*
X253992568Y-146316923D01*
X254026899Y-146319152D01*
X254060769Y-146322018D01*
X254094176Y-146325521D01*
X254127121Y-146329660D01*
X254159603Y-146334436D01*
X254191624Y-146339850D01*
X254223182Y-146345900D01*
X254254278Y-146352586D01*
X254284911Y-146359910D01*
X254315083Y-146367871D01*
X254344792Y-146376468D01*
X254374039Y-146385702D01*
X254402823Y-146395573D01*
X254431146Y-146406081D01*
X254459006Y-146417226D01*
X254486404Y-146429008D01*
X254513339Y-146441426D01*
X254539813Y-146454482D01*
X254591373Y-146482503D01*
X254641084Y-146513071D01*
X254688946Y-146546187D01*
X254734959Y-146581850D01*
X254779123Y-146620061D01*
X254800512Y-146640122D01*
X254821294Y-146660673D01*
X254860878Y-146702811D01*
X254897824Y-146746328D01*
X254932130Y-146791225D01*
X254963798Y-146837501D01*
X254992826Y-146885157D01*
X255019216Y-146934193D01*
X255042967Y-146984608D01*
X255064079Y-147036403D01*
X255082551Y-147089577D01*
X255098385Y-147144131D01*
X255111580Y-147200064D01*
X255122136Y-147257377D01*
X255126424Y-147286551D01*
X255130053Y-147316070D01*
X255133022Y-147345934D01*
X255135331Y-147376142D01*
X255136980Y-147406696D01*
X255137970Y-147437594D01*
X255138300Y-147468838D01*
X255137909Y-147502432D01*
X255136737Y-147535622D01*
X255134783Y-147568406D01*
X255132048Y-147600786D01*
X255128532Y-147632761D01*
X255124235Y-147664330D01*
X255119156Y-147695495D01*
X255113295Y-147726254D01*
X255106653Y-147756609D01*
X255099230Y-147786558D01*
X255091026Y-147816103D01*
X255082040Y-147845243D01*
X255072272Y-147873977D01*
X255061724Y-147902307D01*
X255050394Y-147930231D01*
X255038282Y-147957751D01*
X255025389Y-147984865D01*
X255011715Y-148011575D01*
X254997259Y-148037879D01*
X254982022Y-148063779D01*
X254966004Y-148089273D01*
X254949204Y-148114363D01*
X254931623Y-148139047D01*
X254913260Y-148163327D01*
X254894116Y-148187201D01*
X254874191Y-148210671D01*
X254853484Y-148233735D01*
X254831996Y-148256395D01*
X254809727Y-148278649D01*
X254786676Y-148300499D01*
X254762843Y-148321943D01*
X254738230Y-148342983D01*
X254717699Y-148359527D01*
X254675453Y-148391040D01*
X254631626Y-148420452D01*
X254586220Y-148447764D01*
X254539234Y-148472974D01*
X254490668Y-148496084D01*
X254440522Y-148517092D01*
X254388796Y-148536000D01*
X254335490Y-148552807D01*
X254280604Y-148567513D01*
X254224138Y-148580118D01*
X254195312Y-148585633D01*
X254166092Y-148590623D01*
X254136476Y-148595087D01*
X254106466Y-148599026D01*
X254076061Y-148602440D01*
X254045260Y-148605329D01*
X254014065Y-148607692D01*
X253982475Y-148609531D01*
X253950489Y-148610844D01*
X253918109Y-148611632D01*
X253885334Y-148611894D01*
X253848582Y-148611578D01*
X253812333Y-148610629D01*
X253776586Y-148609048D01*
X253741341Y-148606834D01*
X253706599Y-148603987D01*
X253672359Y-148600508D01*
X253638621Y-148596397D01*
X253605386Y-148591653D01*
X253572653Y-148586276D01*
X253540422Y-148580267D01*
X253508693Y-148573625D01*
X253477467Y-148566350D01*
X253446743Y-148558444D01*
X253416522Y-148549904D01*
X253386803Y-148540732D01*
X253357586Y-148530928D01*
X253328872Y-148520491D01*
X253300659Y-148509421D01*
X253272949Y-148497719D01*
X253245742Y-148485384D01*
X253219037Y-148472417D01*
X253192834Y-148458817D01*
X253141935Y-148429719D01*
X253093045Y-148398092D01*
X253046165Y-148363934D01*
X253001294Y-148327246D01*
X252958432Y-148288028D01*
X252917883Y-148246829D01*
X252879950Y-148204199D01*
X252844633Y-148160138D01*
X252811932Y-148114646D01*
X252781847Y-148067723D01*
X252754379Y-148019369D01*
X252729526Y-147969583D01*
X252707289Y-147918367D01*
X252687669Y-147865719D01*
X252670664Y-147811640D01*
X252656276Y-147756130D01*
X252644504Y-147699189D01*
X252639599Y-147670182D01*
X252635348Y-147640817D01*
X252631750Y-147611094D01*
X252628807Y-147581014D01*
X252626518Y-147550575D01*
X252624883Y-147519779D01*
X252623902Y-147488626D01*
X252623575Y-147457114D01*
X252623644Y-147453450D01*
X253466946Y-147453450D01*
X253467060Y-147472838D01*
X253467970Y-147510607D01*
X253469790Y-147547038D01*
X253472521Y-147582129D01*
X253476161Y-147615880D01*
X253480712Y-147648292D01*
X253486173Y-147679364D01*
X253492545Y-147709097D01*
X253499826Y-147737490D01*
X253512455Y-147777568D01*
X253527132Y-147814633D01*
X253543856Y-147848683D01*
X253562629Y-147879719D01*
X253583450Y-147907742D01*
X253598264Y-147924867D01*
X253621431Y-147948482D01*
X253645732Y-147969612D01*
X253671165Y-147988256D01*
X253697732Y-148004414D01*
X253725433Y-148018086D01*
X253754267Y-148029272D01*
X253784234Y-148037972D01*
X253815335Y-148044187D01*
X253847570Y-148047916D01*
X253880937Y-148049159D01*
X253903140Y-148048598D01*
X253935552Y-148045652D01*
X253966896Y-148040183D01*
X253997170Y-148032188D01*
X254026375Y-148021670D01*
X254054512Y-148008627D01*
X254081579Y-147993059D01*
X254107577Y-147974967D01*
X254132507Y-147954350D01*
X254156367Y-147931209D01*
X254179158Y-147905544D01*
X254200240Y-147877244D01*
X254219249Y-147846201D01*
X254236184Y-147812415D01*
X254251045Y-147775885D01*
X254263833Y-147736612D01*
X254274547Y-147694595D01*
X254280538Y-147665060D01*
X254285607Y-147634305D01*
X254289754Y-147602332D01*
X254292980Y-147569138D01*
X254295284Y-147534726D01*
X254296666Y-147499094D01*
X254297127Y-147462243D01*
X254296661Y-147425833D01*
X254295261Y-147390607D01*
X254292928Y-147356567D01*
X254289663Y-147323712D01*
X254285464Y-147292041D01*
X254280332Y-147261556D01*
X254274267Y-147232255D01*
X254263420Y-147190526D01*
X254250473Y-147151463D01*
X254235427Y-147115066D01*
X254218282Y-147081336D01*
X254199037Y-147050271D01*
X254177692Y-147021873D01*
X254162514Y-147004305D01*
X254138813Y-146980078D01*
X254113991Y-146958401D01*
X254088048Y-146939274D01*
X254060985Y-146922697D01*
X254032802Y-146908671D01*
X254003498Y-146897195D01*
X253973073Y-146888269D01*
X253941528Y-146881893D01*
X253908862Y-146878068D01*
X253875076Y-146876793D01*
X253853678Y-146877351D01*
X253822396Y-146880281D01*
X253792094Y-146885723D01*
X253762771Y-146893676D01*
X253734426Y-146904141D01*
X253707060Y-146917118D01*
X253680674Y-146932606D01*
X253655266Y-146950606D01*
X253630837Y-146971117D01*
X253607386Y-146994140D01*
X253584915Y-147019675D01*
X253563833Y-147047642D01*
X253544824Y-147078236D01*
X253527889Y-147111458D01*
X253513028Y-147147307D01*
X253500240Y-147185784D01*
X253489526Y-147226888D01*
X253483535Y-147255751D01*
X253478466Y-147285781D01*
X253474319Y-147316980D01*
X253471093Y-147349346D01*
X253468789Y-147382879D01*
X253467407Y-147417581D01*
X253466946Y-147453450D01*
X252623644Y-147453450D01*
X252624631Y-147401252D01*
X252627800Y-147346506D01*
X252633081Y-147292877D01*
X252640474Y-147240364D01*
X252649979Y-147188967D01*
X252661597Y-147138686D01*
X252675327Y-147089522D01*
X252691169Y-147041474D01*
X252709124Y-146994542D01*
X252729191Y-146948726D01*
X252751371Y-146904027D01*
X252775662Y-146860444D01*
X252802066Y-146817977D01*
X252830582Y-146776627D01*
X252861211Y-146736392D01*
X252893952Y-146697274D01*
X252915241Y-146673698D01*
X252937157Y-146650869D01*
X252959702Y-146628789D01*
X252982876Y-146607458D01*
X253006677Y-146586875D01*
X253031107Y-146567041D01*
X253056165Y-146547955D01*
X253081851Y-146529617D01*
X253108166Y-146512028D01*
X253135108Y-146495187D01*
X253162680Y-146479095D01*
X253190879Y-146463752D01*
X253219706Y-146449156D01*
X253249162Y-146435310D01*
X253279246Y-146422211D01*
X253309959Y-146409862D01*
X253341299Y-146398260D01*
X253373268Y-146387408D01*
X253405865Y-146377303D01*
X253439091Y-146367947D01*
X253472944Y-146359340D01*
X253507426Y-146351481D01*
X253542536Y-146344370D01*
X253578275Y-146338008D01*
X253614641Y-146332395D01*
X253651636Y-146327530D01*
X253689259Y-146323413D01*
X253727511Y-146320045D01*
X253766391Y-146317426D01*
X253805899Y-146315554D01*
X253846035Y-146314432D01*
X253886799Y-146314057D01*
X253922518Y-146314376D01*
G37*
G36*
X251224064Y-145563743D02*
G01*
X251224064Y-146360952D01*
X250762445Y-146360952D01*
X250762445Y-146970582D01*
X251224064Y-146970582D01*
X251224064Y-147782445D01*
X251223640Y-147817365D01*
X251222369Y-147849215D01*
X251219589Y-147884714D01*
X251215486Y-147915418D01*
X251208814Y-147945935D01*
X251196953Y-147975886D01*
X251179376Y-148000787D01*
X251157420Y-148020536D01*
X251131084Y-148035134D01*
X251100370Y-148044579D01*
X251065276Y-148048872D01*
X251052605Y-148049159D01*
X251021929Y-148047799D01*
X250987604Y-148043720D01*
X250957517Y-148038500D01*
X250925093Y-148031539D01*
X250890334Y-148022838D01*
X250853240Y-148012396D01*
X250823887Y-148003423D01*
X250793219Y-147993471D01*
X250731670Y-148547414D01*
X250770433Y-148555222D01*
X250808870Y-148562527D01*
X250846980Y-148569327D01*
X250884765Y-148575624D01*
X250922222Y-148581417D01*
X250959354Y-148586707D01*
X250996159Y-148591492D01*
X251032638Y-148595774D01*
X251068791Y-148599552D01*
X251104617Y-148602827D01*
X251140118Y-148605597D01*
X251175291Y-148607864D01*
X251210139Y-148609627D01*
X251244660Y-148610887D01*
X251278855Y-148611642D01*
X251312724Y-148611894D01*
X251351281Y-148611579D01*
X251388550Y-148610635D01*
X251424531Y-148609061D01*
X251459224Y-148606857D01*
X251492629Y-148604023D01*
X251524746Y-148600560D01*
X251555575Y-148596467D01*
X251585116Y-148591744D01*
X251627012Y-148583479D01*
X251666011Y-148573798D01*
X251702111Y-148562700D01*
X251735314Y-148550185D01*
X251765618Y-148536253D01*
X251775076Y-148531294D01*
X251802151Y-148515303D01*
X251827875Y-148497832D01*
X251852246Y-148478879D01*
X251875265Y-148458445D01*
X251896931Y-148436529D01*
X251917245Y-148413133D01*
X251936206Y-148388255D01*
X251953816Y-148361896D01*
X251970072Y-148334056D01*
X251984977Y-148304735D01*
X251994161Y-148284364D01*
X252006863Y-148251518D01*
X252018316Y-148215079D01*
X252028519Y-148175046D01*
X252034627Y-148146360D01*
X252040179Y-148116078D01*
X252045177Y-148084199D01*
X252049619Y-148050722D01*
X252053506Y-148015648D01*
X252056838Y-147978978D01*
X252059614Y-147940710D01*
X252061835Y-147900845D01*
X252063501Y-147859383D01*
X252064611Y-147816323D01*
X252065167Y-147771667D01*
X252065236Y-147748740D01*
X252065236Y-146970582D01*
X252373715Y-146970582D01*
X252373715Y-146360952D01*
X252065236Y-146360952D01*
X252065236Y-145976270D01*
X251224064Y-145563743D01*
G37*
G36*
X250371900Y-145563743D02*
G01*
X249532926Y-145563743D01*
X249532926Y-146650380D01*
X249511594Y-146628160D01*
X249490279Y-146606748D01*
X249468981Y-146586143D01*
X249437067Y-146556749D01*
X249405191Y-146529170D01*
X249373354Y-146503408D01*
X249341555Y-146479462D01*
X249309795Y-146457332D01*
X249278074Y-146437018D01*
X249246391Y-146418521D01*
X249214747Y-146401839D01*
X249193673Y-146391727D01*
X249161396Y-146377846D01*
X249128036Y-146365331D01*
X249093595Y-146354181D01*
X249058072Y-146344397D01*
X249021467Y-146335978D01*
X248983781Y-146328924D01*
X248945012Y-146323235D01*
X248905161Y-146318912D01*
X248864228Y-146315954D01*
X248822214Y-146314361D01*
X248793603Y-146314057D01*
X248751400Y-146314876D01*
X248710335Y-146317332D01*
X248670410Y-146321425D01*
X248631624Y-146327155D01*
X248593978Y-146334522D01*
X248557470Y-146343527D01*
X248522101Y-146354169D01*
X248487872Y-146366448D01*
X248454782Y-146380364D01*
X248422831Y-146395917D01*
X248392019Y-146413107D01*
X248362347Y-146431935D01*
X248333813Y-146452400D01*
X248306419Y-146474502D01*
X248280164Y-146498241D01*
X248255048Y-146523618D01*
X248231180Y-146550600D01*
X248208851Y-146579339D01*
X248188063Y-146609836D01*
X248168815Y-146642091D01*
X248151106Y-146676103D01*
X248134937Y-146711872D01*
X248120309Y-146749398D01*
X248107220Y-146788682D01*
X248095671Y-146829724D01*
X248085661Y-146872523D01*
X248077192Y-146917079D01*
X248070263Y-146963392D01*
X248064873Y-147011463D01*
X248061023Y-147061292D01*
X248058714Y-147112878D01*
X248057944Y-147166221D01*
X248057944Y-148565000D01*
X248900581Y-148565000D01*
X248900581Y-147350868D01*
X248901251Y-147312926D01*
X248903261Y-147277135D01*
X248906609Y-147243494D01*
X248911298Y-147212005D01*
X248917325Y-147182666D01*
X248927446Y-147146894D01*
X248939948Y-147114946D01*
X248954832Y-147086822D01*
X248972097Y-147062522D01*
X248976785Y-147057044D01*
X249002102Y-147032136D01*
X249030423Y-147011449D01*
X249061750Y-146994984D01*
X249096083Y-146982741D01*
X249125712Y-146975986D01*
X249157265Y-146971933D01*
X249190742Y-146970582D01*
X249227951Y-146972403D01*
X249263374Y-146977864D01*
X249297011Y-146986966D01*
X249328861Y-146999708D01*
X249358926Y-147016092D01*
X249387205Y-147036116D01*
X249413698Y-147059780D01*
X249438404Y-147087086D01*
X249460558Y-147119097D01*
X249475235Y-147146892D01*
X249488250Y-147177933D01*
X249499604Y-147212219D01*
X249509296Y-147249752D01*
X249517326Y-147290530D01*
X249521757Y-147319518D01*
X249525449Y-147349950D01*
X249528403Y-147381823D01*
X249530619Y-147415139D01*
X249532095Y-147449898D01*
X249532834Y-147486100D01*
X249532926Y-147504741D01*
X249532926Y-148565000D01*
X250371900Y-148565000D01*
X250371900Y-145563743D01*
G37*
G36*
X231607254Y-145517182D02*
G01*
X231645964Y-145518183D01*
X231684042Y-145519850D01*
X231721487Y-145522184D01*
X231758299Y-145525185D01*
X231794479Y-145528853D01*
X231830027Y-145533188D01*
X231864941Y-145538189D01*
X231899224Y-145543858D01*
X231932873Y-145550194D01*
X231965891Y-145557196D01*
X231998275Y-145564865D01*
X232030027Y-145573202D01*
X232061147Y-145582205D01*
X232091634Y-145591875D01*
X232121488Y-145602212D01*
X232150710Y-145613215D01*
X232179299Y-145624886D01*
X232207256Y-145637224D01*
X232234580Y-145650228D01*
X232261272Y-145663900D01*
X232287331Y-145678238D01*
X232312757Y-145693243D01*
X232337551Y-145708915D01*
X232385242Y-145742260D01*
X232430402Y-145778273D01*
X232473032Y-145816953D01*
X232513131Y-145858300D01*
X232532200Y-145880095D01*
X232550664Y-145902891D01*
X232568522Y-145926687D01*
X232585775Y-145951483D01*
X232602422Y-145977279D01*
X232618464Y-146004076D01*
X232633901Y-146031873D01*
X232648732Y-146060671D01*
X232662958Y-146090469D01*
X232676579Y-146121267D01*
X232689594Y-146153065D01*
X232702004Y-146185864D01*
X232713808Y-146219664D01*
X232725007Y-146254463D01*
X232735601Y-146290263D01*
X232745590Y-146327063D01*
X232754973Y-146364864D01*
X232763750Y-146403665D01*
X232771923Y-146443466D01*
X232779490Y-146484268D01*
X232786451Y-146526070D01*
X232792808Y-146568872D01*
X232798558Y-146612675D01*
X232803704Y-146657478D01*
X232808244Y-146703282D01*
X232812179Y-146750085D01*
X232815509Y-146797889D01*
X232818233Y-146846694D01*
X232820351Y-146896499D01*
X232821865Y-146947304D01*
X232822773Y-146999109D01*
X232823076Y-147051915D01*
X232822838Y-147095095D01*
X232822125Y-147137805D01*
X232820937Y-147180045D01*
X232819275Y-147221816D01*
X232817136Y-147263118D01*
X232814523Y-147303951D01*
X232811435Y-147344314D01*
X232807871Y-147384207D01*
X232803833Y-147423632D01*
X232799319Y-147462587D01*
X232794330Y-147501072D01*
X232788866Y-147539088D01*
X232782927Y-147576635D01*
X232776513Y-147613712D01*
X232769624Y-147650320D01*
X232762259Y-147686458D01*
X232758411Y-147704246D01*
X232750431Y-147739114D01*
X232742073Y-147773037D01*
X232733338Y-147806015D01*
X232724224Y-147838049D01*
X232714733Y-147869139D01*
X232704864Y-147899283D01*
X232694618Y-147928484D01*
X232683993Y-147956740D01*
X232667348Y-147997352D01*
X232649853Y-148035840D01*
X232631507Y-148072202D01*
X232612312Y-148106440D01*
X232592266Y-148138551D01*
X232573158Y-148167151D01*
X232553386Y-148194880D01*
X232532949Y-148221739D01*
X232511849Y-148247728D01*
X232490085Y-148272847D01*
X232467656Y-148297096D01*
X232444564Y-148320474D01*
X232420808Y-148342983D01*
X232396387Y-148364621D01*
X232371303Y-148385389D01*
X232345554Y-148405288D01*
X232319142Y-148424316D01*
X232292065Y-148442474D01*
X232264324Y-148459761D01*
X232235920Y-148476179D01*
X232206851Y-148491727D01*
X232176881Y-148506278D01*
X232145771Y-148519891D01*
X232113522Y-148532565D01*
X232080135Y-148544300D01*
X232045608Y-148555096D01*
X232009942Y-148564954D01*
X231973136Y-148573872D01*
X231935192Y-148581852D01*
X231896108Y-148588893D01*
X231855885Y-148594996D01*
X231814523Y-148600159D01*
X231772022Y-148604384D01*
X231728382Y-148607669D01*
X231683603Y-148610017D01*
X231637684Y-148611425D01*
X231590626Y-148611894D01*
X231548520Y-148611526D01*
X231507198Y-148610420D01*
X231466661Y-148608578D01*
X231426907Y-148605998D01*
X231387938Y-148602681D01*
X231349753Y-148598628D01*
X231312352Y-148593837D01*
X231275736Y-148588309D01*
X231239904Y-148582045D01*
X231204856Y-148575043D01*
X231170592Y-148567304D01*
X231137113Y-148558829D01*
X231104418Y-148549616D01*
X231072507Y-148539666D01*
X231041380Y-148528979D01*
X231011038Y-148517555D01*
X230981480Y-148505394D01*
X230952706Y-148492497D01*
X230924716Y-148478862D01*
X230897511Y-148464490D01*
X230871090Y-148449381D01*
X230845453Y-148433535D01*
X230820600Y-148416952D01*
X230796532Y-148399632D01*
X230773247Y-148381575D01*
X230750748Y-148362781D01*
X230708100Y-148322982D01*
X230668590Y-148280234D01*
X230632217Y-148234539D01*
X230615087Y-148210482D01*
X230598500Y-148185572D01*
X230582458Y-148159809D01*
X230566959Y-148133193D01*
X230552003Y-148105725D01*
X230537592Y-148077403D01*
X230523725Y-148048228D01*
X230510401Y-148018201D01*
X230497621Y-147987320D01*
X230485385Y-147955587D01*
X230473693Y-147923000D01*
X230462545Y-147889561D01*
X230451940Y-147855269D01*
X230441880Y-147820124D01*
X230432363Y-147784126D01*
X230423390Y-147747274D01*
X230414960Y-147709570D01*
X230407075Y-147671013D01*
X230399733Y-147631604D01*
X230392936Y-147591341D01*
X230386682Y-147550225D01*
X230380971Y-147508256D01*
X230375805Y-147465434D01*
X230371183Y-147421760D01*
X230367104Y-147377232D01*
X230363569Y-147331852D01*
X230360578Y-147285618D01*
X230358131Y-147238532D01*
X230356228Y-147190593D01*
X230354868Y-147141800D01*
X230354052Y-147092155D01*
X230354005Y-147083422D01*
X231188358Y-147083422D01*
X231188533Y-147133325D01*
X231189057Y-147181551D01*
X231189930Y-147228099D01*
X231191152Y-147272970D01*
X231192723Y-147316164D01*
X231194644Y-147357680D01*
X231196913Y-147397520D01*
X231199532Y-147435682D01*
X231202500Y-147472166D01*
X231205818Y-147506974D01*
X231209484Y-147540104D01*
X231213500Y-147571557D01*
X231217865Y-147601333D01*
X231225067Y-147642851D01*
X231233055Y-147680596D01*
X231235851Y-147692449D01*
X231244824Y-147726804D01*
X231254673Y-147759356D01*
X231265398Y-147790105D01*
X231276998Y-147819050D01*
X231289475Y-147846193D01*
X231307472Y-147879578D01*
X231327027Y-147909757D01*
X231348139Y-147936731D01*
X231370808Y-147960498D01*
X231394782Y-147981278D01*
X231419809Y-147999287D01*
X231445889Y-148014526D01*
X231473023Y-148026994D01*
X231501210Y-148036691D01*
X231530451Y-148043617D01*
X231560745Y-148047773D01*
X231592092Y-148049159D01*
X231616003Y-148048343D01*
X231650517Y-148044060D01*
X231683408Y-148036107D01*
X231714676Y-148024483D01*
X231744322Y-148009188D01*
X231772344Y-147990222D01*
X231798744Y-147967585D01*
X231823521Y-147941278D01*
X231846675Y-147911300D01*
X231868206Y-147877651D01*
X231888114Y-147840331D01*
X231894380Y-147826926D01*
X231906316Y-147798001D01*
X231917455Y-147766253D01*
X231927799Y-147731683D01*
X231937348Y-147694291D01*
X231946100Y-147654077D01*
X231954057Y-147611041D01*
X231961219Y-147565182D01*
X231967584Y-147516501D01*
X231973154Y-147464999D01*
X231977928Y-147410674D01*
X231981907Y-147353527D01*
X231983598Y-147323895D01*
X231985090Y-147293557D01*
X231986383Y-147262514D01*
X231987477Y-147230766D01*
X231988372Y-147198312D01*
X231989068Y-147165152D01*
X231989565Y-147131287D01*
X231989864Y-147096717D01*
X231989963Y-147061441D01*
X231989873Y-147026525D01*
X231989603Y-146992304D01*
X231989152Y-146958776D01*
X231988521Y-146925943D01*
X231987709Y-146893804D01*
X231986717Y-146862359D01*
X231985545Y-146831608D01*
X231984193Y-146801551D01*
X231980947Y-146743519D01*
X231976980Y-146688264D01*
X231972292Y-146635785D01*
X231966882Y-146586083D01*
X231960751Y-146539157D01*
X231953899Y-146495007D01*
X231946326Y-146453634D01*
X231938031Y-146415037D01*
X231929015Y-146379216D01*
X231919278Y-146346172D01*
X231908819Y-146315904D01*
X231897639Y-146288412D01*
X231885558Y-146263124D01*
X231865751Y-146228252D01*
X231843921Y-146197050D01*
X231820070Y-146169519D01*
X231794196Y-146145659D01*
X231766300Y-146125469D01*
X231736382Y-146108951D01*
X231704442Y-146096103D01*
X231670479Y-146086926D01*
X231634495Y-146081420D01*
X231596488Y-146079584D01*
X231571335Y-146080386D01*
X231535108Y-146084593D01*
X231500684Y-146092407D01*
X231468063Y-146103827D01*
X231437245Y-146118854D01*
X231408231Y-146137487D01*
X231381020Y-146159726D01*
X231355612Y-146185572D01*
X231332007Y-146215025D01*
X231310206Y-146248083D01*
X231290207Y-146284748D01*
X231277874Y-146311825D01*
X231266337Y-146341947D01*
X231255595Y-146375114D01*
X231245648Y-146411327D01*
X231236498Y-146450585D01*
X231228143Y-146492889D01*
X231220584Y-146538238D01*
X231213821Y-146586632D01*
X231207853Y-146638072D01*
X231202681Y-146692558D01*
X231198304Y-146750088D01*
X231196415Y-146779995D01*
X231194724Y-146810664D01*
X231193232Y-146842094D01*
X231191939Y-146874286D01*
X231190845Y-146907238D01*
X231189950Y-146940952D01*
X231189253Y-146975428D01*
X231188756Y-147010665D01*
X231188458Y-147046663D01*
X231188358Y-147083422D01*
X230354005Y-147083422D01*
X230353780Y-147041657D01*
X230354110Y-146996339D01*
X230355097Y-146951245D01*
X230356743Y-146906374D01*
X230359047Y-146861726D01*
X230362009Y-146817302D01*
X230365630Y-146773100D01*
X230369909Y-146729122D01*
X230374846Y-146685368D01*
X230380442Y-146641836D01*
X230386696Y-146598528D01*
X230393608Y-146555443D01*
X230401179Y-146512581D01*
X230409408Y-146469943D01*
X230418295Y-146427527D01*
X230427840Y-146385335D01*
X230438044Y-146343367D01*
X230446401Y-146310911D01*
X230455260Y-146279216D01*
X230464622Y-146248280D01*
X230474486Y-146218104D01*
X230484852Y-146188689D01*
X230495721Y-146160033D01*
X230507092Y-146132137D01*
X230518965Y-146105001D01*
X230535577Y-146070002D01*
X230553083Y-146036353D01*
X230566873Y-146011733D01*
X230586702Y-145979247D01*
X230608180Y-145947150D01*
X230625371Y-145923333D01*
X230643489Y-145899734D01*
X230662534Y-145876355D01*
X230682506Y-145853195D01*
X230703406Y-145830253D01*
X230725234Y-145807531D01*
X230747988Y-145785027D01*
X230763662Y-145770276D01*
X230788245Y-145748813D01*
X230814117Y-145728149D01*
X230841277Y-145708284D01*
X230869724Y-145689217D01*
X230899460Y-145670949D01*
X230930484Y-145653480D01*
X230962795Y-145636809D01*
X230996395Y-145620936D01*
X231031282Y-145605862D01*
X231067458Y-145591587D01*
X231079792Y-145586989D01*
X231118073Y-145574070D01*
X231158274Y-145562465D01*
X231200394Y-145552174D01*
X231229540Y-145546043D01*
X231259539Y-145540496D01*
X231290391Y-145535533D01*
X231322095Y-145531154D01*
X231354653Y-145527359D01*
X231388064Y-145524147D01*
X231422328Y-145521520D01*
X231457444Y-145519476D01*
X231493414Y-145518017D01*
X231530236Y-145517141D01*
X231567912Y-145516849D01*
X231607254Y-145517182D01*
G37*
G36*
X228121889Y-145516849D02*
G01*
X228121889Y-148565000D01*
X228971122Y-148565000D01*
X228971122Y-146569047D01*
X228996807Y-146588776D01*
X229022390Y-146608030D01*
X229047869Y-146626809D01*
X229073246Y-146645113D01*
X229098519Y-146662942D01*
X229123689Y-146680296D01*
X229148757Y-146697174D01*
X229173721Y-146713578D01*
X229198582Y-146729506D01*
X229235681Y-146752507D01*
X229272548Y-146774440D01*
X229309183Y-146795303D01*
X229345586Y-146815098D01*
X229369726Y-146827700D01*
X229406715Y-146846176D01*
X229445417Y-146864511D01*
X229472171Y-146876656D01*
X229499685Y-146888737D01*
X229527961Y-146900755D01*
X229556998Y-146912711D01*
X229586797Y-146924603D01*
X229617357Y-146936433D01*
X229648678Y-146948200D01*
X229680761Y-146959903D01*
X229713605Y-146971544D01*
X229747210Y-146983122D01*
X229781577Y-146994636D01*
X229816705Y-147006088D01*
X229852594Y-147017477D01*
X229852594Y-146314057D01*
X229799763Y-146296898D01*
X229748432Y-146279310D01*
X229698601Y-146261292D01*
X229650269Y-146242845D01*
X229603438Y-146223969D01*
X229558106Y-146204663D01*
X229514274Y-146184928D01*
X229471942Y-146164764D01*
X229431109Y-146144170D01*
X229391776Y-146123147D01*
X229353944Y-146101695D01*
X229317611Y-146079813D01*
X229282777Y-146057502D01*
X229249444Y-146034762D01*
X229217610Y-146011592D01*
X229187277Y-145987993D01*
X229158093Y-145963742D01*
X229129712Y-145938797D01*
X229102131Y-145913160D01*
X229075352Y-145886831D01*
X229049375Y-145859809D01*
X229024199Y-145832094D01*
X228999824Y-145803686D01*
X228976251Y-145774586D01*
X228953479Y-145744793D01*
X228931508Y-145714308D01*
X228910339Y-145683129D01*
X228889972Y-145651259D01*
X228870406Y-145618695D01*
X228851641Y-145585439D01*
X228833678Y-145551490D01*
X228816516Y-145516849D01*
X228121889Y-145516849D01*
G37*
G36*
X226641778Y-145516849D02*
G01*
X226213131Y-145516849D01*
X226971505Y-148611894D01*
X227395755Y-148611894D01*
X226641778Y-145516849D01*
G37*
G36*
X223601687Y-148565000D02*
G01*
X226120075Y-148565000D01*
X226113984Y-148518005D01*
X226106519Y-148471359D01*
X226097681Y-148425063D01*
X226087468Y-148379115D01*
X226075882Y-148333517D01*
X226062922Y-148288269D01*
X226048588Y-148243369D01*
X226032880Y-148198818D01*
X226015798Y-148154617D01*
X225997343Y-148110765D01*
X225977513Y-148067262D01*
X225956310Y-148024108D01*
X225933733Y-147981304D01*
X225909782Y-147938849D01*
X225884457Y-147896742D01*
X225857758Y-147854986D01*
X225828781Y-147812897D01*
X225796804Y-147769978D01*
X225761828Y-147726229D01*
X225723852Y-147681649D01*
X225703739Y-147659049D01*
X225682876Y-147636240D01*
X225661264Y-147613224D01*
X225638901Y-147590001D01*
X225615789Y-147566570D01*
X225591926Y-147542932D01*
X225567314Y-147519086D01*
X225541952Y-147495033D01*
X225515840Y-147470772D01*
X225488978Y-147446303D01*
X225461366Y-147421627D01*
X225433004Y-147396744D01*
X225403893Y-147371653D01*
X225374031Y-147346355D01*
X225343420Y-147320849D01*
X225312058Y-147295135D01*
X225279947Y-147269214D01*
X225247086Y-147243086D01*
X225213475Y-147216750D01*
X225179114Y-147190206D01*
X225144003Y-147163455D01*
X225108142Y-147136497D01*
X225071532Y-147109330D01*
X225034171Y-147081957D01*
X224989051Y-147048761D01*
X224946015Y-147016584D01*
X224905062Y-146985426D01*
X224866193Y-146955286D01*
X224829408Y-146926166D01*
X224794706Y-146898065D01*
X224762088Y-146870983D01*
X224731554Y-146844919D01*
X224703104Y-146819875D01*
X224676737Y-146795849D01*
X224652454Y-146772843D01*
X224630255Y-146750855D01*
X224600862Y-146719784D01*
X224576159Y-146691006D01*
X224562294Y-146673094D01*
X224543831Y-146646982D01*
X224527183Y-146621128D01*
X224512352Y-146595531D01*
X224495402Y-146561803D01*
X224481680Y-146528532D01*
X224471187Y-146495720D01*
X224463923Y-146463365D01*
X224459887Y-146431469D01*
X224458979Y-146407847D01*
X224460571Y-146374404D01*
X224465345Y-146342222D01*
X224473302Y-146311298D01*
X224484442Y-146281634D01*
X224498764Y-146253230D01*
X224516269Y-146226084D01*
X224536958Y-146200198D01*
X224560829Y-146175572D01*
X224587115Y-146153075D01*
X224615050Y-146133577D01*
X224644634Y-146117079D01*
X224675867Y-146103581D01*
X224708748Y-146093083D01*
X224743278Y-146085584D01*
X224779456Y-146081084D01*
X224817284Y-146079584D01*
X224846987Y-146080499D01*
X224884969Y-146084563D01*
X224921096Y-146091879D01*
X224955368Y-146102446D01*
X224987785Y-146116265D01*
X225018348Y-146133335D01*
X225047056Y-146153657D01*
X225073910Y-146177230D01*
X225080333Y-146183632D01*
X225104754Y-146211933D01*
X225121701Y-146236405D01*
X225137477Y-146263659D01*
X225152081Y-146293696D01*
X225165513Y-146326514D01*
X225177772Y-146362114D01*
X225188860Y-146400496D01*
X225198775Y-146441661D01*
X225204734Y-146470650D01*
X225210173Y-146500875D01*
X225215090Y-146532336D01*
X225217353Y-146548531D01*
X226058526Y-146478921D01*
X226051977Y-146435293D01*
X226044787Y-146392883D01*
X226036956Y-146351693D01*
X226028484Y-146311722D01*
X226019370Y-146272970D01*
X226009616Y-146235438D01*
X225999220Y-146199125D01*
X225988184Y-146164031D01*
X225976506Y-146130157D01*
X225964187Y-146097502D01*
X225951227Y-146066066D01*
X225937625Y-146035850D01*
X225923383Y-146006852D01*
X225908500Y-145979075D01*
X225892975Y-145952516D01*
X225876809Y-145927177D01*
X225859902Y-145902719D01*
X225842153Y-145878988D01*
X225823563Y-145855985D01*
X225804131Y-145833708D01*
X225783858Y-145812158D01*
X225762744Y-145791336D01*
X225740788Y-145771240D01*
X225717990Y-145751871D01*
X225694351Y-145733230D01*
X225669870Y-145715315D01*
X225644548Y-145698128D01*
X225618385Y-145681667D01*
X225591380Y-145665933D01*
X225563533Y-145650927D01*
X225534845Y-145636647D01*
X225505316Y-145623094D01*
X225474552Y-145610229D01*
X225442347Y-145598193D01*
X225408698Y-145586987D01*
X225373608Y-145576612D01*
X225337074Y-145567066D01*
X225299098Y-145558351D01*
X225259680Y-145550466D01*
X225218819Y-145543410D01*
X225176515Y-145537185D01*
X225132769Y-145531790D01*
X225087580Y-145527224D01*
X225040949Y-145523489D01*
X224992875Y-145520584D01*
X224943359Y-145518509D01*
X224892400Y-145517264D01*
X224839998Y-145516849D01*
X224785444Y-145517238D01*
X224732424Y-145518406D01*
X224680939Y-145520352D01*
X224630987Y-145523077D01*
X224582570Y-145526580D01*
X224535687Y-145530862D01*
X224490338Y-145535923D01*
X224446523Y-145541762D01*
X224404242Y-145548379D01*
X224363496Y-145555775D01*
X224324283Y-145563949D01*
X224286605Y-145572903D01*
X224250461Y-145582634D01*
X224215851Y-145593144D01*
X224182775Y-145604433D01*
X224151233Y-145616500D01*
X224120782Y-145629280D01*
X224091161Y-145642890D01*
X224062370Y-145657329D01*
X224034409Y-145672599D01*
X224007278Y-145688699D01*
X223980977Y-145705629D01*
X223955506Y-145723389D01*
X223930865Y-145741980D01*
X223907054Y-145761400D01*
X223884074Y-145781650D01*
X223861923Y-145802730D01*
X223840602Y-145824641D01*
X223820112Y-145847381D01*
X223800451Y-145870951D01*
X223781620Y-145895352D01*
X223763620Y-145920582D01*
X223746495Y-145946422D01*
X223730475Y-145972652D01*
X223715560Y-145999270D01*
X223701750Y-146026278D01*
X223689045Y-146053675D01*
X223677444Y-146081462D01*
X223666948Y-146109638D01*
X223657557Y-146138203D01*
X223649271Y-146167157D01*
X223642090Y-146196500D01*
X223636013Y-146226233D01*
X223631042Y-146256355D01*
X223627175Y-146286866D01*
X223624413Y-146317767D01*
X223622756Y-146349057D01*
X223622203Y-146380736D01*
X223622836Y-146414441D01*
X223624733Y-146447964D01*
X223627896Y-146481303D01*
X223632324Y-146514459D01*
X223638017Y-146547431D01*
X223644975Y-146580221D01*
X223653198Y-146612827D01*
X223662687Y-146645251D01*
X223673440Y-146677491D01*
X223685458Y-146709548D01*
X223698742Y-146741421D01*
X223713291Y-146773112D01*
X223729104Y-146804619D01*
X223746183Y-146835943D01*
X223764527Y-146867084D01*
X223784136Y-146898042D01*
X223805411Y-146929097D01*
X223828753Y-146960530D01*
X223854161Y-146992341D01*
X223881635Y-147024529D01*
X223911176Y-147057096D01*
X223942783Y-147090040D01*
X223976457Y-147123362D01*
X224012198Y-147157062D01*
X224050005Y-147191139D01*
X224089879Y-147225595D01*
X224131819Y-147260428D01*
X224175825Y-147295639D01*
X224221899Y-147331228D01*
X224245710Y-147349164D01*
X224270038Y-147367194D01*
X224294883Y-147385319D01*
X224320245Y-147403539D01*
X224346123Y-147421853D01*
X224372517Y-147440261D01*
X224403552Y-147461382D01*
X224433277Y-147481695D01*
X224461690Y-147501201D01*
X224488792Y-147519900D01*
X224514584Y-147537791D01*
X224539064Y-147554876D01*
X224573327Y-147578989D01*
X224604641Y-147601287D01*
X224633004Y-147621768D01*
X224658419Y-147640433D01*
X224687717Y-147662495D01*
X224711771Y-147681329D01*
X224739083Y-147703890D01*
X224762015Y-147723434D01*
X224785909Y-147744305D01*
X224810765Y-147766504D01*
X224836582Y-147790032D01*
X224863361Y-147814887D01*
X224891102Y-147841071D01*
X224912538Y-147861580D01*
X223601687Y-147861580D01*
X223601687Y-148565000D01*
G37*
G36*
X222043681Y-145517182D02*
G01*
X222082391Y-145518183D01*
X222120469Y-145519850D01*
X222157914Y-145522184D01*
X222194726Y-145525185D01*
X222230906Y-145528853D01*
X222266454Y-145533188D01*
X222301368Y-145538189D01*
X222335651Y-145543858D01*
X222369300Y-145550194D01*
X222402318Y-145557196D01*
X222434702Y-145564865D01*
X222466454Y-145573202D01*
X222497574Y-145582205D01*
X222528061Y-145591875D01*
X222557915Y-145602212D01*
X222587137Y-145613215D01*
X222615726Y-145624886D01*
X222643683Y-145637224D01*
X222671007Y-145650228D01*
X222697699Y-145663900D01*
X222723758Y-145678238D01*
X222749184Y-145693243D01*
X222773978Y-145708915D01*
X222821669Y-145742260D01*
X222866829Y-145778273D01*
X222909459Y-145816953D01*
X222949558Y-145858300D01*
X222968627Y-145880095D01*
X222987091Y-145902891D01*
X223004949Y-145926687D01*
X223022202Y-145951483D01*
X223038849Y-145977279D01*
X223054891Y-146004076D01*
X223070328Y-146031873D01*
X223085159Y-146060671D01*
X223099385Y-146090469D01*
X223113006Y-146121267D01*
X223126021Y-146153065D01*
X223138431Y-146185864D01*
X223150235Y-146219664D01*
X223161434Y-146254463D01*
X223172028Y-146290263D01*
X223182017Y-146327063D01*
X223191400Y-146364864D01*
X223200177Y-146403665D01*
X223208350Y-146443466D01*
X223215917Y-146484268D01*
X223222878Y-146526070D01*
X223229235Y-146568872D01*
X223234986Y-146612675D01*
X223240131Y-146657478D01*
X223244671Y-146703282D01*
X223248606Y-146750085D01*
X223251936Y-146797889D01*
X223254660Y-146846694D01*
X223256779Y-146896499D01*
X223258292Y-146947304D01*
X223259200Y-146999109D01*
X223259503Y-147051915D01*
X223259265Y-147095095D01*
X223258552Y-147137805D01*
X223257365Y-147180045D01*
X223255702Y-147221816D01*
X223253564Y-147263118D01*
X223250950Y-147303951D01*
X223247862Y-147344314D01*
X223244299Y-147384207D01*
X223240260Y-147423632D01*
X223235746Y-147462587D01*
X223230757Y-147501072D01*
X223225293Y-147539088D01*
X223219354Y-147576635D01*
X223212940Y-147613712D01*
X223206051Y-147650320D01*
X223198686Y-147686458D01*
X223194838Y-147704246D01*
X223186858Y-147739114D01*
X223178500Y-147773037D01*
X223169765Y-147806015D01*
X223160652Y-147838049D01*
X223151160Y-147869139D01*
X223141291Y-147899283D01*
X223131045Y-147928484D01*
X223120420Y-147956740D01*
X223103775Y-147997352D01*
X223086280Y-148035840D01*
X223067934Y-148072202D01*
X223048739Y-148106440D01*
X223028693Y-148138551D01*
X223009585Y-148167151D01*
X222989813Y-148194880D01*
X222969376Y-148221739D01*
X222948276Y-148247728D01*
X222926512Y-148272847D01*
X222904084Y-148297096D01*
X222880991Y-148320474D01*
X222857235Y-148342983D01*
X222832814Y-148364621D01*
X222807730Y-148385389D01*
X222781981Y-148405288D01*
X222755569Y-148424316D01*
X222728492Y-148442474D01*
X222700751Y-148459761D01*
X222672347Y-148476179D01*
X222643278Y-148491727D01*
X222613308Y-148506278D01*
X222582198Y-148519891D01*
X222549950Y-148532565D01*
X222516562Y-148544300D01*
X222482035Y-148555096D01*
X222446369Y-148564954D01*
X222409563Y-148573872D01*
X222371619Y-148581852D01*
X222332535Y-148588893D01*
X222292312Y-148594996D01*
X222250950Y-148600159D01*
X222208449Y-148604384D01*
X222164809Y-148607669D01*
X222120030Y-148610017D01*
X222074111Y-148611425D01*
X222027053Y-148611894D01*
X221984947Y-148611526D01*
X221943625Y-148610420D01*
X221903088Y-148608578D01*
X221863334Y-148605998D01*
X221824365Y-148602681D01*
X221786180Y-148598628D01*
X221748780Y-148593837D01*
X221712163Y-148588309D01*
X221676331Y-148582045D01*
X221641283Y-148575043D01*
X221607019Y-148567304D01*
X221573540Y-148558829D01*
X221540845Y-148549616D01*
X221508934Y-148539666D01*
X221477807Y-148528979D01*
X221447465Y-148517555D01*
X221417907Y-148505394D01*
X221389133Y-148492497D01*
X221361143Y-148478862D01*
X221333938Y-148464490D01*
X221307517Y-148449381D01*
X221281880Y-148433535D01*
X221257027Y-148416952D01*
X221232959Y-148399632D01*
X221209675Y-148381575D01*
X221187175Y-148362781D01*
X221144528Y-148322982D01*
X221105017Y-148280234D01*
X221068644Y-148234539D01*
X221051514Y-148210482D01*
X221034927Y-148185572D01*
X221018885Y-148159809D01*
X221003386Y-148133193D01*
X220988431Y-148105725D01*
X220974019Y-148077403D01*
X220960152Y-148048228D01*
X220946828Y-148018201D01*
X220934048Y-147987320D01*
X220921812Y-147955587D01*
X220910120Y-147923000D01*
X220898972Y-147889561D01*
X220888367Y-147855269D01*
X220878307Y-147820124D01*
X220868790Y-147784126D01*
X220859817Y-147747274D01*
X220851387Y-147709570D01*
X220843502Y-147671013D01*
X220836160Y-147631604D01*
X220829363Y-147591341D01*
X220823109Y-147550225D01*
X220817399Y-147508256D01*
X220812232Y-147465434D01*
X220807610Y-147421760D01*
X220803531Y-147377232D01*
X220799996Y-147331852D01*
X220797005Y-147285618D01*
X220794558Y-147238532D01*
X220792655Y-147190593D01*
X220791295Y-147141800D01*
X220790479Y-147092155D01*
X220790432Y-147083422D01*
X221624785Y-147083422D01*
X221624960Y-147133325D01*
X221625484Y-147181551D01*
X221626357Y-147228099D01*
X221627579Y-147272970D01*
X221629150Y-147316164D01*
X221631071Y-147357680D01*
X221633340Y-147397520D01*
X221635959Y-147435682D01*
X221638927Y-147472166D01*
X221642245Y-147506974D01*
X221645911Y-147540104D01*
X221649927Y-147571557D01*
X221654292Y-147601333D01*
X221661494Y-147642851D01*
X221669482Y-147680596D01*
X221672278Y-147692449D01*
X221681251Y-147726804D01*
X221691100Y-147759356D01*
X221701825Y-147790105D01*
X221713425Y-147819050D01*
X221725902Y-147846193D01*
X221743899Y-147879578D01*
X221763454Y-147909757D01*
X221784566Y-147936731D01*
X221807235Y-147960498D01*
X221831209Y-147981278D01*
X221856236Y-147999287D01*
X221882316Y-148014526D01*
X221909450Y-148026994D01*
X221937637Y-148036691D01*
X221966878Y-148043617D01*
X221997172Y-148047773D01*
X222028519Y-148049159D01*
X222052430Y-148048343D01*
X222086944Y-148044060D01*
X222119835Y-148036107D01*
X222151103Y-148024483D01*
X222180749Y-148009188D01*
X222208771Y-147990222D01*
X222235171Y-147967585D01*
X222259948Y-147941278D01*
X222283102Y-147911300D01*
X222304633Y-147877651D01*
X222324541Y-147840331D01*
X222330807Y-147826926D01*
X222342743Y-147798001D01*
X222353882Y-147766253D01*
X222364226Y-147731683D01*
X222373775Y-147694291D01*
X222382527Y-147654077D01*
X222390484Y-147611041D01*
X222397646Y-147565182D01*
X222404011Y-147516501D01*
X222409581Y-147464999D01*
X222414355Y-147410674D01*
X222418334Y-147353527D01*
X222420025Y-147323895D01*
X222421517Y-147293557D01*
X222422810Y-147262514D01*
X222423904Y-147230766D01*
X222424799Y-147198312D01*
X222425495Y-147165152D01*
X222425992Y-147131287D01*
X222426291Y-147096717D01*
X222426390Y-147061441D01*
X222426300Y-147026525D01*
X222426030Y-146992304D01*
X222425579Y-146958776D01*
X222424948Y-146925943D01*
X222424136Y-146893804D01*
X222423145Y-146862359D01*
X222421972Y-146831608D01*
X222420620Y-146801551D01*
X222417374Y-146743519D01*
X222413407Y-146688264D01*
X222408719Y-146635785D01*
X222403309Y-146586083D01*
X222397178Y-146539157D01*
X222390326Y-146495007D01*
X222382753Y-146453634D01*
X222374458Y-146415037D01*
X222365442Y-146379216D01*
X222355705Y-146346172D01*
X222345246Y-146315904D01*
X222334066Y-146288412D01*
X222321985Y-146263124D01*
X222302178Y-146228252D01*
X222280348Y-146197050D01*
X222256497Y-146169519D01*
X222230623Y-146145659D01*
X222202727Y-146125469D01*
X222172809Y-146108951D01*
X222140869Y-146096103D01*
X222106906Y-146086926D01*
X222070922Y-146081420D01*
X222032915Y-146079584D01*
X222007762Y-146080386D01*
X221971535Y-146084593D01*
X221937111Y-146092407D01*
X221904490Y-146103827D01*
X221873673Y-146118854D01*
X221844658Y-146137487D01*
X221817447Y-146159726D01*
X221792039Y-146185572D01*
X221768434Y-146215025D01*
X221746633Y-146248083D01*
X221726635Y-146284748D01*
X221714301Y-146311825D01*
X221702764Y-146341947D01*
X221692022Y-146375114D01*
X221682075Y-146411327D01*
X221672925Y-146450585D01*
X221664570Y-146492889D01*
X221657011Y-146538238D01*
X221650248Y-146586632D01*
X221644280Y-146638072D01*
X221639108Y-146692558D01*
X221634731Y-146750088D01*
X221632842Y-146779995D01*
X221631151Y-146810664D01*
X221629659Y-146842094D01*
X221628366Y-146874286D01*
X221627272Y-146907238D01*
X221626377Y-146940952D01*
X221625680Y-146975428D01*
X221625183Y-147010665D01*
X221624885Y-147046663D01*
X221624785Y-147083422D01*
X220790432Y-147083422D01*
X220790207Y-147041657D01*
X220790537Y-146996339D01*
X220791524Y-146951245D01*
X220793170Y-146906374D01*
X220795474Y-146861726D01*
X220798436Y-146817302D01*
X220802057Y-146773100D01*
X220806336Y-146729122D01*
X220811273Y-146685368D01*
X220816869Y-146641836D01*
X220823123Y-146598528D01*
X220830035Y-146555443D01*
X220837606Y-146512581D01*
X220845835Y-146469943D01*
X220854722Y-146427527D01*
X220864267Y-146385335D01*
X220874471Y-146343367D01*
X220882828Y-146310911D01*
X220891687Y-146279216D01*
X220901049Y-146248280D01*
X220910913Y-146218104D01*
X220921279Y-146188689D01*
X220932148Y-146160033D01*
X220943519Y-146132137D01*
X220955392Y-146105001D01*
X220972004Y-146070002D01*
X220989510Y-146036353D01*
X221003300Y-146011733D01*
X221023129Y-145979247D01*
X221044607Y-145947150D01*
X221061798Y-145923333D01*
X221079916Y-145899734D01*
X221098961Y-145876355D01*
X221118934Y-145853195D01*
X221139833Y-145830253D01*
X221161661Y-145807531D01*
X221184415Y-145785027D01*
X221200089Y-145770276D01*
X221224673Y-145748813D01*
X221250544Y-145728149D01*
X221277704Y-145708284D01*
X221306151Y-145689217D01*
X221335887Y-145670949D01*
X221366911Y-145653480D01*
X221399222Y-145636809D01*
X221432822Y-145620936D01*
X221467709Y-145605862D01*
X221503885Y-145591587D01*
X221516219Y-145586989D01*
X221554501Y-145574070D01*
X221594701Y-145562465D01*
X221636821Y-145552174D01*
X221665967Y-145546043D01*
X221695966Y-145540496D01*
X221726818Y-145535533D01*
X221758523Y-145531154D01*
X221791080Y-145527359D01*
X221824491Y-145524147D01*
X221858755Y-145521520D01*
X221893871Y-145519476D01*
X221929841Y-145518017D01*
X221966663Y-145517141D01*
X222004339Y-145516849D01*
X222043681Y-145517182D01*
G37*
G36*
X218003641Y-148565000D02*
G01*
X220522029Y-148565000D01*
X220515938Y-148518005D01*
X220508473Y-148471359D01*
X220499635Y-148425063D01*
X220489422Y-148379115D01*
X220477836Y-148333517D01*
X220464876Y-148288269D01*
X220450542Y-148243369D01*
X220434834Y-148198818D01*
X220417752Y-148154617D01*
X220399297Y-148110765D01*
X220379467Y-148067262D01*
X220358264Y-148024108D01*
X220335687Y-147981304D01*
X220311736Y-147938849D01*
X220286411Y-147896742D01*
X220259712Y-147854986D01*
X220230735Y-147812897D01*
X220198758Y-147769978D01*
X220163782Y-147726229D01*
X220125806Y-147681649D01*
X220105693Y-147659049D01*
X220084830Y-147636240D01*
X220063218Y-147613224D01*
X220040855Y-147590001D01*
X220017743Y-147566570D01*
X219993880Y-147542932D01*
X219969268Y-147519086D01*
X219943906Y-147495033D01*
X219917794Y-147470772D01*
X219890932Y-147446303D01*
X219863320Y-147421627D01*
X219834958Y-147396744D01*
X219805847Y-147371653D01*
X219775985Y-147346355D01*
X219745374Y-147320849D01*
X219714012Y-147295135D01*
X219681901Y-147269214D01*
X219649040Y-147243086D01*
X219615429Y-147216750D01*
X219581068Y-147190206D01*
X219545957Y-147163455D01*
X219510096Y-147136497D01*
X219473486Y-147109330D01*
X219436125Y-147081957D01*
X219391005Y-147048761D01*
X219347969Y-147016584D01*
X219307016Y-146985426D01*
X219268147Y-146955286D01*
X219231362Y-146926166D01*
X219196660Y-146898065D01*
X219164042Y-146870983D01*
X219133508Y-146844919D01*
X219105058Y-146819875D01*
X219078691Y-146795849D01*
X219054408Y-146772843D01*
X219032209Y-146750855D01*
X219002816Y-146719784D01*
X218978113Y-146691006D01*
X218964248Y-146673094D01*
X218945784Y-146646982D01*
X218929137Y-146621128D01*
X218914306Y-146595531D01*
X218897356Y-146561803D01*
X218883634Y-146528532D01*
X218873141Y-146495720D01*
X218865877Y-146463365D01*
X218861841Y-146431469D01*
X218860933Y-146407847D01*
X218862525Y-146374404D01*
X218867299Y-146342222D01*
X218875256Y-146311298D01*
X218886396Y-146281634D01*
X218900718Y-146253230D01*
X218918223Y-146226084D01*
X218938912Y-146200198D01*
X218962782Y-146175572D01*
X218989069Y-146153075D01*
X219017004Y-146133577D01*
X219046588Y-146117079D01*
X219077821Y-146103581D01*
X219110702Y-146093083D01*
X219145232Y-146085584D01*
X219181410Y-146081084D01*
X219219237Y-146079584D01*
X219248941Y-146080499D01*
X219286923Y-146084563D01*
X219323049Y-146091879D01*
X219357322Y-146102446D01*
X219389739Y-146116265D01*
X219420302Y-146133335D01*
X219449010Y-146153657D01*
X219475863Y-146177230D01*
X219482287Y-146183632D01*
X219506707Y-146211933D01*
X219523655Y-146236405D01*
X219539431Y-146263659D01*
X219554035Y-146293696D01*
X219567467Y-146326514D01*
X219579726Y-146362114D01*
X219590814Y-146400496D01*
X219600729Y-146441661D01*
X219606688Y-146470650D01*
X219612127Y-146500875D01*
X219617044Y-146532336D01*
X219619307Y-146548531D01*
X220460480Y-146478921D01*
X220453931Y-146435293D01*
X220446741Y-146392883D01*
X220438910Y-146351693D01*
X220430438Y-146311722D01*
X220421324Y-146272970D01*
X220411570Y-146235438D01*
X220401174Y-146199125D01*
X220390138Y-146164031D01*
X220378460Y-146130157D01*
X220366141Y-146097502D01*
X220353181Y-146066066D01*
X220339579Y-146035850D01*
X220325337Y-146006852D01*
X220310453Y-145979075D01*
X220294929Y-145952516D01*
X220278763Y-145927177D01*
X220261856Y-145902719D01*
X220244107Y-145878988D01*
X220225517Y-145855985D01*
X220206085Y-145833708D01*
X220185812Y-145812158D01*
X220164698Y-145791336D01*
X220142742Y-145771240D01*
X220119944Y-145751871D01*
X220096305Y-145733230D01*
X220071824Y-145715315D01*
X220046502Y-145698128D01*
X220020339Y-145681667D01*
X219993334Y-145665933D01*
X219965487Y-145650927D01*
X219936799Y-145636647D01*
X219907270Y-145623094D01*
X219876506Y-145610229D01*
X219844301Y-145598193D01*
X219810652Y-145586987D01*
X219775562Y-145576612D01*
X219739028Y-145567066D01*
X219701052Y-145558351D01*
X219661634Y-145550466D01*
X219620773Y-145543410D01*
X219578469Y-145537185D01*
X219534723Y-145531790D01*
X219489534Y-145527224D01*
X219442903Y-145523489D01*
X219394829Y-145520584D01*
X219345313Y-145518509D01*
X219294354Y-145517264D01*
X219241952Y-145516849D01*
X219187398Y-145517238D01*
X219134378Y-145518406D01*
X219082893Y-145520352D01*
X219032941Y-145523077D01*
X218984524Y-145526580D01*
X218937641Y-145530862D01*
X218892292Y-145535923D01*
X218848477Y-145541762D01*
X218806196Y-145548379D01*
X218765450Y-145555775D01*
X218726237Y-145563949D01*
X218688559Y-145572903D01*
X218652415Y-145582634D01*
X218617805Y-145593144D01*
X218584729Y-145604433D01*
X218553187Y-145616500D01*
X218522736Y-145629280D01*
X218493115Y-145642890D01*
X218464324Y-145657329D01*
X218436363Y-145672599D01*
X218409232Y-145688699D01*
X218382931Y-145705629D01*
X218357460Y-145723389D01*
X218332819Y-145741980D01*
X218309008Y-145761400D01*
X218286028Y-145781650D01*
X218263877Y-145802730D01*
X218242556Y-145824641D01*
X218222065Y-145847381D01*
X218202405Y-145870951D01*
X218183574Y-145895352D01*
X218165574Y-145920582D01*
X218148449Y-145946422D01*
X218132429Y-145972652D01*
X218117514Y-145999270D01*
X218103704Y-146026278D01*
X218090999Y-146053675D01*
X218079398Y-146081462D01*
X218068902Y-146109638D01*
X218059511Y-146138203D01*
X218051225Y-146167157D01*
X218044044Y-146196500D01*
X218037967Y-146226233D01*
X218032996Y-146256355D01*
X218029129Y-146286866D01*
X218026367Y-146317767D01*
X218024710Y-146349057D01*
X218024157Y-146380736D01*
X218024790Y-146414441D01*
X218026687Y-146447964D01*
X218029850Y-146481303D01*
X218034278Y-146514459D01*
X218039971Y-146547431D01*
X218046929Y-146580221D01*
X218055152Y-146612827D01*
X218064640Y-146645251D01*
X218075394Y-146677491D01*
X218087412Y-146709548D01*
X218100696Y-146741421D01*
X218115245Y-146773112D01*
X218131058Y-146804619D01*
X218148137Y-146835943D01*
X218166481Y-146867084D01*
X218186090Y-146898042D01*
X218207365Y-146929097D01*
X218230707Y-146960530D01*
X218256114Y-146992341D01*
X218283589Y-147024529D01*
X218313130Y-147057096D01*
X218344737Y-147090040D01*
X218378411Y-147123362D01*
X218414152Y-147157062D01*
X218451959Y-147191139D01*
X218491833Y-147225595D01*
X218533773Y-147260428D01*
X218577779Y-147295639D01*
X218623853Y-147331228D01*
X218647664Y-147349164D01*
X218671992Y-147367194D01*
X218696837Y-147385319D01*
X218722198Y-147403539D01*
X218748077Y-147421853D01*
X218774471Y-147440261D01*
X218805506Y-147461382D01*
X218835230Y-147481695D01*
X218863644Y-147501201D01*
X218890746Y-147519900D01*
X218916538Y-147537791D01*
X218941018Y-147554876D01*
X218975281Y-147578989D01*
X219006594Y-147601287D01*
X219034958Y-147621768D01*
X219060373Y-147640433D01*
X219089670Y-147662495D01*
X219113725Y-147681329D01*
X219141037Y-147703890D01*
X219163969Y-147723434D01*
X219187863Y-147744305D01*
X219212719Y-147766504D01*
X219238536Y-147790032D01*
X219265315Y-147814887D01*
X219293056Y-147841071D01*
X219314492Y-147861580D01*
X218003641Y-147861580D01*
X218003641Y-148565000D01*
G37*
G36*
X217747919Y-147352334D02*
G01*
X217747919Y-148049159D01*
X216218714Y-148049159D01*
X216218714Y-148565000D01*
X215487451Y-148565000D01*
X215487451Y-148049159D01*
X215107898Y-148049159D01*
X215107898Y-147345739D01*
X215487451Y-147345739D01*
X215487451Y-146399787D01*
X216218714Y-146399787D01*
X216218714Y-147345739D01*
X217026181Y-147345739D01*
X216218714Y-146399787D01*
X215487451Y-146399787D01*
X215487451Y-145516849D01*
X216218714Y-145516849D01*
X217747919Y-147352334D01*
G37*
G36*
X275141759Y-142085436D02*
G01*
X274244899Y-141969371D01*
X274235499Y-142036231D01*
X274223563Y-142100081D01*
X274209093Y-142160923D01*
X274192088Y-142218756D01*
X274172548Y-142273580D01*
X274150474Y-142325395D01*
X274125864Y-142374202D01*
X274098720Y-142420000D01*
X274069041Y-142462789D01*
X274036827Y-142502569D01*
X274013943Y-142527418D01*
X273978072Y-142561778D01*
X273940799Y-142592759D01*
X273902124Y-142620360D01*
X273848379Y-142651904D01*
X273792142Y-142677439D01*
X273733414Y-142696966D01*
X273687733Y-142707669D01*
X273640650Y-142714991D01*
X273592167Y-142718934D01*
X273559066Y-142719685D01*
X273506223Y-142717759D01*
X273454968Y-142711978D01*
X273405299Y-142702344D01*
X273357217Y-142688856D01*
X273310722Y-142671514D01*
X273265814Y-142650319D01*
X273222492Y-142625270D01*
X273180758Y-142596367D01*
X273140610Y-142563611D01*
X273102049Y-142527001D01*
X273077223Y-142500453D01*
X273042025Y-142457997D01*
X273010288Y-142412842D01*
X272982014Y-142364986D01*
X272957202Y-142314432D01*
X272935852Y-142261177D01*
X272917965Y-142205223D01*
X272903539Y-142146569D01*
X272892576Y-142085216D01*
X272885074Y-142021163D01*
X272881035Y-141954410D01*
X272880266Y-141908408D01*
X272881925Y-141843741D01*
X272886902Y-141781628D01*
X272895196Y-141722071D01*
X272906809Y-141665069D01*
X272921739Y-141610623D01*
X272939988Y-141558732D01*
X272961554Y-141509397D01*
X272986438Y-141462616D01*
X273014640Y-141418392D01*
X273046160Y-141376722D01*
X273069017Y-141350362D01*
X273104909Y-141313488D01*
X273142244Y-141280240D01*
X273181021Y-141250620D01*
X273221241Y-141224626D01*
X273262903Y-141202260D01*
X273306009Y-141183520D01*
X273350556Y-141168408D01*
X273396546Y-141156922D01*
X273443979Y-141149064D01*
X273492854Y-141144832D01*
X273526239Y-141144026D01*
X273583615Y-141145715D01*
X273631948Y-141149497D01*
X273682442Y-141155442D01*
X273735098Y-141163548D01*
X273789915Y-141173815D01*
X273846894Y-141186244D01*
X273906034Y-141200834D01*
X273951808Y-141213196D01*
X273849812Y-140468743D01*
X273780827Y-140469039D01*
X273714995Y-140466408D01*
X273652316Y-140460851D01*
X273592789Y-140452367D01*
X273536416Y-140440957D01*
X273483196Y-140426621D01*
X273433129Y-140409358D01*
X273386215Y-140389169D01*
X273342454Y-140366054D01*
X273301846Y-140340012D01*
X273276525Y-140321025D01*
X273230089Y-140280139D01*
X273189844Y-140236029D01*
X273155790Y-140188695D01*
X273127928Y-140138136D01*
X273106258Y-140084354D01*
X273090779Y-140027348D01*
X273081491Y-139967117D01*
X273078589Y-139919829D01*
X273078396Y-139903663D01*
X273080667Y-139849679D01*
X273087481Y-139798517D01*
X273098839Y-139750175D01*
X273114739Y-139704654D01*
X273135182Y-139661954D01*
X273160168Y-139622076D01*
X273189697Y-139585018D01*
X273223769Y-139550781D01*
X273261340Y-139519732D01*
X273301951Y-139492822D01*
X273345603Y-139470053D01*
X273392296Y-139451423D01*
X273442030Y-139436933D01*
X273494805Y-139426584D01*
X273550621Y-139420374D01*
X273609477Y-139418304D01*
X273667619Y-139420703D01*
X273723636Y-139427903D01*
X273777529Y-139439901D01*
X273829296Y-139456699D01*
X273878938Y-139478296D01*
X273926456Y-139504692D01*
X273971848Y-139535888D01*
X274015116Y-139571884D01*
X274054976Y-139612202D01*
X274090733Y-139656953D01*
X274122387Y-139706138D01*
X274149938Y-139759755D01*
X274173385Y-139817806D01*
X274188278Y-139864253D01*
X274200862Y-139913193D01*
X274211139Y-139964627D01*
X274219107Y-140018555D01*
X275072590Y-139883733D01*
X275061099Y-139828458D01*
X275048904Y-139774593D01*
X275036004Y-139722139D01*
X275022398Y-139671095D01*
X275008087Y-139621462D01*
X274993070Y-139573239D01*
X274977349Y-139526427D01*
X274960922Y-139481025D01*
X274943790Y-139437034D01*
X274916769Y-139373692D01*
X274888162Y-139313524D01*
X274857968Y-139256529D01*
X274826187Y-139202708D01*
X274804118Y-139168590D01*
X274769239Y-139119261D01*
X274731866Y-139071952D01*
X274692000Y-139026663D01*
X274649640Y-138983393D01*
X274604787Y-138942142D01*
X274557440Y-138902912D01*
X274507600Y-138865700D01*
X274455266Y-138830509D01*
X274400438Y-138797337D01*
X274343117Y-138766185D01*
X274303518Y-138746538D01*
X274242398Y-138719092D01*
X274179938Y-138694345D01*
X274116140Y-138672298D01*
X274051001Y-138652950D01*
X273984523Y-138636303D01*
X273916706Y-138622354D01*
X273847549Y-138611106D01*
X273800700Y-138605107D01*
X273753256Y-138600307D01*
X273705216Y-138596708D01*
X273656581Y-138594308D01*
X273607351Y-138593108D01*
X273582513Y-138592958D01*
X273498281Y-138594621D01*
X273416165Y-138599608D01*
X273336165Y-138607920D01*
X273258280Y-138619556D01*
X273182512Y-138634518D01*
X273108859Y-138652804D01*
X273037322Y-138674415D01*
X272967900Y-138699351D01*
X272900594Y-138727611D01*
X272835404Y-138759196D01*
X272772330Y-138794106D01*
X272711372Y-138832341D01*
X272652529Y-138873900D01*
X272595802Y-138918784D01*
X272541191Y-138966993D01*
X272488696Y-139018527D01*
X272447525Y-139062408D01*
X272409011Y-139107004D01*
X272373154Y-139152314D01*
X272339952Y-139198339D01*
X272309406Y-139245078D01*
X272281517Y-139292531D01*
X272256283Y-139340699D01*
X272233706Y-139389581D01*
X272213785Y-139439177D01*
X272196520Y-139489488D01*
X272181911Y-139540514D01*
X272169959Y-139592254D01*
X272160662Y-139644708D01*
X272154022Y-139697876D01*
X272150038Y-139751759D01*
X272148710Y-139806357D01*
X272151425Y-139883188D01*
X272159572Y-139958050D01*
X272173151Y-140030943D01*
X272192160Y-140101866D01*
X272216601Y-140170821D01*
X272246474Y-140237806D01*
X272281778Y-140302822D01*
X272322513Y-140365868D01*
X272368679Y-140426946D01*
X272420277Y-140486054D01*
X272477306Y-140543193D01*
X272539767Y-140598363D01*
X272607659Y-140651564D01*
X272680982Y-140702795D01*
X272759737Y-140752057D01*
X272801151Y-140775950D01*
X272843922Y-140799351D01*
X272792696Y-140811665D01*
X272742769Y-140825747D01*
X272694144Y-140841597D01*
X272646818Y-140859214D01*
X272600794Y-140878600D01*
X272556070Y-140899753D01*
X272512647Y-140922673D01*
X272470524Y-140947362D01*
X272429702Y-140973818D01*
X272390180Y-141002042D01*
X272351959Y-141032033D01*
X272315039Y-141063792D01*
X272279419Y-141097319D01*
X272245100Y-141132614D01*
X272212081Y-141169676D01*
X272180363Y-141208506D01*
X272150125Y-141248591D01*
X272121837Y-141289711D01*
X272095500Y-141331866D01*
X272071114Y-141375055D01*
X272048678Y-141419280D01*
X272028194Y-141464540D01*
X272009661Y-141510835D01*
X271993078Y-141558164D01*
X271978446Y-141606529D01*
X271965766Y-141655928D01*
X271955036Y-141706363D01*
X271946257Y-141757833D01*
X271939429Y-141810337D01*
X271934551Y-141863877D01*
X271931625Y-141918451D01*
X271930650Y-141974061D01*
X271932468Y-142054789D01*
X271937922Y-142134016D01*
X271947012Y-142211740D01*
X271959739Y-142287962D01*
X271976102Y-142362682D01*
X271996101Y-142435900D01*
X272019736Y-142507616D01*
X272047007Y-142577829D01*
X272077914Y-142646541D01*
X272112458Y-142713750D01*
X272150638Y-142779458D01*
X272192453Y-142843663D01*
X272237906Y-142906366D01*
X272286994Y-142967568D01*
X272339718Y-143027267D01*
X272396079Y-143085464D01*
X272455004Y-143141114D01*
X272515715Y-143193175D01*
X272578212Y-143241645D01*
X272642495Y-143286524D01*
X272708565Y-143327814D01*
X272776420Y-143365512D01*
X272846061Y-143399621D01*
X272917488Y-143430139D01*
X272990702Y-143457067D01*
X273065701Y-143480404D01*
X273142486Y-143500151D01*
X273221058Y-143516308D01*
X273301415Y-143528874D01*
X273383559Y-143537850D01*
X273467488Y-143543236D01*
X273553204Y-143545031D01*
X273634253Y-143543456D01*
X273713561Y-143538729D01*
X273791130Y-143530853D01*
X273866958Y-143519825D01*
X273941046Y-143505647D01*
X274013394Y-143488318D01*
X274084001Y-143467838D01*
X274152869Y-143444207D01*
X274219996Y-143417426D01*
X274285383Y-143387494D01*
X274349029Y-143354412D01*
X274410936Y-143318178D01*
X274471102Y-143278794D01*
X274529528Y-143236259D01*
X274586214Y-143190573D01*
X274641159Y-143141737D01*
X274693673Y-143090213D01*
X274743356Y-143036755D01*
X274790210Y-142981366D01*
X274834233Y-142924043D01*
X274875426Y-142864789D01*
X274913789Y-142803601D01*
X274949322Y-142740481D01*
X274982024Y-142675429D01*
X275011897Y-142608444D01*
X275038939Y-142539526D01*
X275063151Y-142468676D01*
X275084533Y-142395893D01*
X275103085Y-142321177D01*
X275118806Y-142244529D01*
X275131698Y-142165949D01*
X275141759Y-142085436D01*
G37*
G36*
X268067705Y-143470000D02*
G01*
X269795772Y-138592958D01*
X268737126Y-138592958D01*
X267514348Y-142194466D01*
X266330259Y-138592958D01*
X265295060Y-138592958D01*
X267025472Y-143470000D01*
X268067705Y-143470000D01*
G37*
G36*
X263800797Y-139869385D02*
G01*
X263863858Y-139872064D01*
X263926167Y-139876529D01*
X263987726Y-139882780D01*
X264048533Y-139890817D01*
X264108589Y-139900641D01*
X264167894Y-139912250D01*
X264226449Y-139925645D01*
X264284252Y-139940826D01*
X264341304Y-139957793D01*
X264397605Y-139976547D01*
X264453155Y-139997086D01*
X264507954Y-140019411D01*
X264562002Y-140043523D01*
X264615298Y-140069420D01*
X264667844Y-140097103D01*
X264719273Y-140126481D01*
X264769217Y-140157462D01*
X264817678Y-140190046D01*
X264864655Y-140224232D01*
X264910148Y-140260021D01*
X264954158Y-140297413D01*
X264996684Y-140336408D01*
X265037726Y-140377006D01*
X265077284Y-140419206D01*
X265115358Y-140463010D01*
X265151949Y-140508416D01*
X265187056Y-140555425D01*
X265220679Y-140604037D01*
X265252818Y-140654252D01*
X265283474Y-140706070D01*
X265312645Y-140759490D01*
X265340187Y-140813831D01*
X265365951Y-140868410D01*
X265389939Y-140923227D01*
X265412150Y-140978283D01*
X265432584Y-141033576D01*
X265451241Y-141089108D01*
X265468121Y-141144878D01*
X265483225Y-141200886D01*
X265496551Y-141257132D01*
X265508101Y-141313616D01*
X265517874Y-141370338D01*
X265525869Y-141427299D01*
X265532088Y-141484497D01*
X265536531Y-141541934D01*
X265539196Y-141599609D01*
X265540084Y-141657522D01*
X265539196Y-141732567D01*
X265536531Y-141806174D01*
X265532088Y-141878344D01*
X265525869Y-141949075D01*
X265517874Y-142018368D01*
X265508101Y-142086223D01*
X265496551Y-142152641D01*
X265483225Y-142217620D01*
X265468121Y-142281161D01*
X265451241Y-142343265D01*
X265432584Y-142403930D01*
X265412150Y-142463157D01*
X265389939Y-142520947D01*
X265365951Y-142577298D01*
X265340187Y-142632211D01*
X265312645Y-142685687D01*
X265283400Y-142737651D01*
X265252525Y-142788031D01*
X265220019Y-142836826D01*
X265185883Y-142884036D01*
X265150117Y-142929663D01*
X265112720Y-142973704D01*
X265073693Y-143016161D01*
X265033036Y-143057034D01*
X264990749Y-143096322D01*
X264946831Y-143134025D01*
X264901282Y-143170144D01*
X264854104Y-143204678D01*
X264805295Y-143237628D01*
X264754856Y-143268994D01*
X264702786Y-143298775D01*
X264649086Y-143326971D01*
X264594251Y-143353377D01*
X264539067Y-143378079D01*
X264483536Y-143401077D01*
X264427656Y-143422372D01*
X264371428Y-143441963D01*
X264314852Y-143459851D01*
X264257928Y-143476035D01*
X264200657Y-143490516D01*
X264143037Y-143503293D01*
X264085069Y-143514366D01*
X264026753Y-143523736D01*
X263968089Y-143531402D01*
X263909076Y-143537365D01*
X263849716Y-143541624D01*
X263790008Y-143544179D01*
X263729952Y-143545031D01*
X263681631Y-143544518D01*
X263633827Y-143542979D01*
X263586541Y-143540415D01*
X263539772Y-143536824D01*
X263447787Y-143526566D01*
X263357872Y-143512205D01*
X263270027Y-143493740D01*
X263184252Y-143471172D01*
X263100547Y-143444501D01*
X263018912Y-143413726D01*
X262939347Y-143378848D01*
X262861852Y-143339867D01*
X262786426Y-143296782D01*
X262713071Y-143249595D01*
X262641786Y-143198304D01*
X262572570Y-143142909D01*
X262505425Y-143083412D01*
X262440350Y-143019811D01*
X262378168Y-142953096D01*
X262319999Y-142884256D01*
X262265841Y-142813292D01*
X262215695Y-142740202D01*
X262169561Y-142664987D01*
X262127438Y-142587648D01*
X262089327Y-142508183D01*
X262055227Y-142426594D01*
X262025140Y-142342880D01*
X261999064Y-142257041D01*
X261976999Y-142169077D01*
X261958947Y-142078988D01*
X261944906Y-141986774D01*
X261939390Y-141939870D01*
X261934877Y-141892435D01*
X261931367Y-141844469D01*
X261928859Y-141795971D01*
X261927355Y-141746943D01*
X261926877Y-141699727D01*
X262879987Y-141699727D01*
X262880948Y-141770037D01*
X262883833Y-141838231D01*
X262888642Y-141904310D01*
X262895374Y-141968272D01*
X262904029Y-142030119D01*
X262914608Y-142089850D01*
X262927110Y-142147466D01*
X262941536Y-142202965D01*
X262957885Y-142256349D01*
X262976157Y-142307617D01*
X262996353Y-142356770D01*
X263018472Y-142403806D01*
X263042515Y-142448727D01*
X263068481Y-142491532D01*
X263096371Y-142532221D01*
X263126183Y-142570795D01*
X263157269Y-142606996D01*
X263205616Y-142656919D01*
X263256023Y-142701587D01*
X263308491Y-142741000D01*
X263363020Y-142775158D01*
X263419609Y-142804060D01*
X263478259Y-142827708D01*
X263538971Y-142846101D01*
X263601743Y-142859238D01*
X263666575Y-142867121D01*
X263733469Y-142869748D01*
X263800383Y-142867121D01*
X263865278Y-142859238D01*
X263928153Y-142846101D01*
X263989008Y-142827708D01*
X264047844Y-142804060D01*
X264104660Y-142775158D01*
X264159457Y-142741000D01*
X264212234Y-142701587D01*
X264262991Y-142656919D01*
X264311729Y-142606996D01*
X264343099Y-142570795D01*
X264373054Y-142532249D01*
X264401076Y-142491642D01*
X264427166Y-142448974D01*
X264451323Y-142404246D01*
X264473548Y-142357457D01*
X264493840Y-142308606D01*
X264512199Y-142257696D01*
X264528626Y-142204724D01*
X264543120Y-142149691D01*
X264555682Y-142092598D01*
X264566311Y-142033444D01*
X264575008Y-141972229D01*
X264581772Y-141908953D01*
X264586603Y-141843617D01*
X264589502Y-141776220D01*
X264590468Y-141706762D01*
X264589502Y-141637308D01*
X264586603Y-141569924D01*
X264581772Y-141504611D01*
X264575008Y-141441367D01*
X264566311Y-141380194D01*
X264555682Y-141321090D01*
X264543120Y-141264056D01*
X264528626Y-141209092D01*
X264512199Y-141156198D01*
X264493840Y-141105375D01*
X264473548Y-141056621D01*
X264451323Y-141009937D01*
X264427166Y-140965323D01*
X264401076Y-140922779D01*
X264373054Y-140882305D01*
X264343099Y-140843900D01*
X264311729Y-140807557D01*
X264262991Y-140757438D01*
X264212234Y-140712595D01*
X264159457Y-140673028D01*
X264104660Y-140638736D01*
X264047844Y-140609720D01*
X263989008Y-140585980D01*
X263928153Y-140567515D01*
X263865278Y-140554326D01*
X263800383Y-140546413D01*
X263733469Y-140543775D01*
X263666575Y-140546413D01*
X263601743Y-140554326D01*
X263538971Y-140567515D01*
X263478259Y-140585980D01*
X263419609Y-140609720D01*
X263363020Y-140638736D01*
X263308491Y-140673028D01*
X263256023Y-140712595D01*
X263205616Y-140757438D01*
X263157269Y-140807557D01*
X263126183Y-140843900D01*
X263096371Y-140882277D01*
X263068481Y-140922669D01*
X263042515Y-140965075D01*
X263018472Y-141009497D01*
X262996353Y-141055934D01*
X262976157Y-141104385D01*
X262957885Y-141154852D01*
X262941536Y-141207334D01*
X262927110Y-141261830D01*
X262914608Y-141318342D01*
X262904029Y-141376869D01*
X262895374Y-141437411D01*
X262888642Y-141499967D01*
X262883833Y-141564539D01*
X262880948Y-141631126D01*
X262879987Y-141699727D01*
X261926877Y-141699727D01*
X261926853Y-141697383D01*
X261927349Y-141648118D01*
X261928836Y-141599389D01*
X261931315Y-141551196D01*
X261934785Y-141503539D01*
X261939247Y-141456418D01*
X261944700Y-141409832D01*
X261958581Y-141318269D01*
X261976427Y-141228849D01*
X261998239Y-141141571D01*
X262024018Y-141056437D01*
X262053762Y-140973447D01*
X262087472Y-140892599D01*
X262125148Y-140813895D01*
X262166790Y-140737334D01*
X262212398Y-140662916D01*
X262261971Y-140590642D01*
X262315511Y-140520511D01*
X262373016Y-140452523D01*
X262434488Y-140386678D01*
X262499064Y-140323929D01*
X262565884Y-140265228D01*
X262634948Y-140210576D01*
X262706257Y-140159972D01*
X262779809Y-140113416D01*
X262855605Y-140070908D01*
X262933645Y-140032449D01*
X263013929Y-139998039D01*
X263096458Y-139967676D01*
X263181230Y-139941362D01*
X263268246Y-139919096D01*
X263357506Y-139900879D01*
X263449010Y-139886710D01*
X263495603Y-139881143D01*
X263542758Y-139876589D01*
X263590473Y-139873047D01*
X263638750Y-139870516D01*
X263687587Y-139868998D01*
X263736986Y-139868492D01*
X263800797Y-139869385D01*
G37*
G36*
X261223434Y-139418304D02*
G01*
X261223434Y-138592958D01*
X260296093Y-138592958D01*
X260296093Y-139418304D01*
X261223434Y-139418304D01*
G37*
G36*
X261223434Y-143470000D02*
G01*
X261223434Y-139943524D01*
X260296093Y-139943524D01*
X260296093Y-143470000D01*
X261223434Y-143470000D01*
G37*
G36*
X256303015Y-140918932D02*
G01*
X257216288Y-141068995D01*
X257225902Y-141021119D01*
X257237597Y-140975531D01*
X257256428Y-140918304D01*
X257278959Y-140865145D01*
X257305191Y-140816052D01*
X257335123Y-140771026D01*
X257368755Y-140730066D01*
X257406088Y-140693174D01*
X257426142Y-140676252D01*
X257468402Y-140645203D01*
X257513703Y-140618293D01*
X257562044Y-140595524D01*
X257613427Y-140576894D01*
X257667850Y-140562404D01*
X257725315Y-140552055D01*
X257785820Y-140545845D01*
X257833194Y-140543904D01*
X257849366Y-140543775D01*
X257912986Y-140546021D01*
X257974154Y-140552760D01*
X258032869Y-140563991D01*
X258089133Y-140579715D01*
X258142944Y-140599932D01*
X258194302Y-140624641D01*
X258243208Y-140653842D01*
X258289662Y-140687536D01*
X258333664Y-140725723D01*
X258375213Y-140768402D01*
X258401550Y-140799351D01*
X258438424Y-140850290D01*
X258471672Y-140907268D01*
X258501292Y-140970283D01*
X258519025Y-141015649D01*
X258535145Y-141063697D01*
X258549653Y-141114430D01*
X258562549Y-141167845D01*
X258573833Y-141223945D01*
X258583505Y-141282728D01*
X258591565Y-141344195D01*
X258598013Y-141408345D01*
X258602849Y-141475179D01*
X258606073Y-141544697D01*
X258607685Y-141616898D01*
X258607886Y-141654005D01*
X258607071Y-141735718D01*
X258604626Y-141814381D01*
X258600550Y-141889994D01*
X258594844Y-141962557D01*
X258587507Y-142032070D01*
X258578540Y-142098533D01*
X258567943Y-142161946D01*
X258555716Y-142222309D01*
X258541858Y-142279622D01*
X258526370Y-142333886D01*
X258509252Y-142385099D01*
X258490503Y-142433262D01*
X258470124Y-142478375D01*
X258448115Y-142520438D01*
X258412044Y-142577814D01*
X258399205Y-142595415D01*
X258358600Y-142644441D01*
X258315482Y-142688645D01*
X258269849Y-142728027D01*
X258221702Y-142762587D01*
X258171040Y-142792324D01*
X258117865Y-142817239D01*
X258062175Y-142837332D01*
X258003971Y-142852602D01*
X257943253Y-142863051D01*
X257880021Y-142868677D01*
X257836470Y-142869748D01*
X257787855Y-142868419D01*
X257740931Y-142864431D01*
X257680994Y-142854979D01*
X257624061Y-142840801D01*
X257570132Y-142821897D01*
X257519207Y-142798266D01*
X257471287Y-142769909D01*
X257426371Y-142736827D01*
X257405039Y-142718513D01*
X257364391Y-142676986D01*
X257326857Y-142628607D01*
X257300750Y-142587828D01*
X257276395Y-142543194D01*
X257253791Y-142494707D01*
X257232939Y-142442366D01*
X257213839Y-142386171D01*
X257196491Y-142326123D01*
X257180894Y-142262221D01*
X257167049Y-142194466D01*
X256257293Y-142344528D01*
X256276042Y-142417691D01*
X256296824Y-142488583D01*
X256319639Y-142557203D01*
X256344488Y-142623551D01*
X256371370Y-142687629D01*
X256400285Y-142749434D01*
X256431234Y-142808968D01*
X256464216Y-142866231D01*
X256499231Y-142921222D01*
X256536279Y-142973942D01*
X256575361Y-143024391D01*
X256616477Y-143072568D01*
X256659625Y-143118473D01*
X256704807Y-143162107D01*
X256752022Y-143203469D01*
X256801271Y-143242561D01*
X256852607Y-143279188D01*
X256906087Y-143313452D01*
X256961711Y-143345353D01*
X257019477Y-143374891D01*
X257079387Y-143402066D01*
X257141440Y-143426878D01*
X257205636Y-143449327D01*
X257271975Y-143469413D01*
X257340458Y-143487136D01*
X257411084Y-143502496D01*
X257483853Y-143515493D01*
X257558765Y-143526127D01*
X257635821Y-143534397D01*
X257715020Y-143540305D01*
X257796362Y-143543849D01*
X257879847Y-143545031D01*
X257927537Y-143544556D01*
X257974621Y-143543130D01*
X258066968Y-143537429D01*
X258156887Y-143527926D01*
X258244380Y-143514623D01*
X258329445Y-143497518D01*
X258412083Y-143476612D01*
X258492294Y-143451906D01*
X258570077Y-143423398D01*
X258645434Y-143391089D01*
X258718363Y-143354979D01*
X258788866Y-143315069D01*
X258856941Y-143271357D01*
X258922588Y-143223844D01*
X258985809Y-143172530D01*
X259046603Y-143117415D01*
X259104969Y-143058499D01*
X259160194Y-142996080D01*
X259211856Y-142930748D01*
X259259955Y-142862503D01*
X259304491Y-142791346D01*
X259345464Y-142717277D01*
X259382875Y-142640294D01*
X259416722Y-142560399D01*
X259447007Y-142477592D01*
X259473729Y-142391872D01*
X259496887Y-142303239D01*
X259516483Y-142211694D01*
X259524945Y-142164829D01*
X259532516Y-142117236D01*
X259539197Y-142068915D01*
X259544986Y-142019866D01*
X259549885Y-141970088D01*
X259553894Y-141919583D01*
X259557011Y-141868349D01*
X259559238Y-141816387D01*
X259560574Y-141763697D01*
X259561019Y-141710279D01*
X259560572Y-141656214D01*
X259559229Y-141602902D01*
X259556991Y-141550343D01*
X259553857Y-141498538D01*
X259549828Y-141447487D01*
X259544904Y-141397188D01*
X259539085Y-141347643D01*
X259532370Y-141298852D01*
X259524760Y-141250813D01*
X259516254Y-141203528D01*
X259506854Y-141156996D01*
X259496558Y-141111218D01*
X259473280Y-141021921D01*
X259446421Y-140935638D01*
X259415980Y-140852368D01*
X259381959Y-140772111D01*
X259344356Y-140694868D01*
X259303172Y-140620638D01*
X259258407Y-140549421D01*
X259210061Y-140481218D01*
X259158133Y-140416028D01*
X259102624Y-140353852D01*
X259044061Y-140295078D01*
X258982970Y-140240095D01*
X258919351Y-140188905D01*
X258853204Y-140141507D01*
X258784529Y-140097900D01*
X258713326Y-140058086D01*
X258639595Y-140022063D01*
X258563336Y-139989832D01*
X258484550Y-139961393D01*
X258403235Y-139936746D01*
X258319393Y-139915891D01*
X258233022Y-139898827D01*
X258144124Y-139885556D01*
X258052698Y-139876076D01*
X257958744Y-139870388D01*
X257910819Y-139868966D01*
X257862262Y-139868492D01*
X257783415Y-139869509D01*
X257706612Y-139872559D01*
X257631851Y-139877642D01*
X257559132Y-139884759D01*
X257488456Y-139893909D01*
X257419822Y-139905092D01*
X257353230Y-139918309D01*
X257288682Y-139933558D01*
X257226175Y-139950842D01*
X257165712Y-139970158D01*
X257107290Y-139991508D01*
X257050911Y-140014891D01*
X256996575Y-140040308D01*
X256944281Y-140067758D01*
X256894030Y-140097241D01*
X256845821Y-140128757D01*
X256799462Y-140162206D01*
X256754761Y-140197780D01*
X256711717Y-140235479D01*
X256670332Y-140275303D01*
X256630604Y-140317252D01*
X256592535Y-140361325D01*
X256556123Y-140407524D01*
X256521368Y-140455847D01*
X256488272Y-140506296D01*
X256456833Y-140558869D01*
X256427052Y-140613567D01*
X256398929Y-140670390D01*
X256372464Y-140729338D01*
X256347657Y-140790411D01*
X256324507Y-140853609D01*
X256303015Y-140918932D01*
G37*
G36*
X254369134Y-139870429D02*
G01*
X254453352Y-139876241D01*
X254535683Y-139885927D01*
X254616128Y-139899487D01*
X254694685Y-139916921D01*
X254771356Y-139938230D01*
X254846140Y-139963413D01*
X254919038Y-139992470D01*
X254990048Y-140025401D01*
X255059172Y-140062207D01*
X255126409Y-140102887D01*
X255191759Y-140147442D01*
X255255223Y-140195871D01*
X255316799Y-140248174D01*
X255376489Y-140304351D01*
X255434292Y-140364403D01*
X255489375Y-140427729D01*
X255540904Y-140494023D01*
X255588880Y-140563284D01*
X255633301Y-140635512D01*
X255674169Y-140710709D01*
X255711484Y-140788872D01*
X255745244Y-140870004D01*
X255775451Y-140954103D01*
X255802104Y-141041169D01*
X255825203Y-141131203D01*
X255835420Y-141177333D01*
X255844749Y-141224205D01*
X255853189Y-141271818D01*
X255860740Y-141320174D01*
X255867404Y-141369271D01*
X255873178Y-141419111D01*
X255878065Y-141469692D01*
X255882063Y-141521015D01*
X255885172Y-141573080D01*
X255887393Y-141625887D01*
X255888726Y-141679435D01*
X255889170Y-141733726D01*
X255887819Y-141824190D01*
X255883766Y-141912695D01*
X255877011Y-141999239D01*
X255867555Y-142083824D01*
X255855396Y-142166448D01*
X255840535Y-142247112D01*
X255822973Y-142325816D01*
X255802708Y-142402561D01*
X255779742Y-142477345D01*
X255754073Y-142550169D01*
X255725703Y-142621033D01*
X255694631Y-142689937D01*
X255660857Y-142756881D01*
X255624380Y-142821864D01*
X255585202Y-142884888D01*
X255543322Y-142945952D01*
X255486655Y-143018497D01*
X255426269Y-143086361D01*
X255362164Y-143149545D01*
X255294341Y-143208049D01*
X255222799Y-143261873D01*
X255147539Y-143311016D01*
X255068560Y-143355479D01*
X254985862Y-143395261D01*
X254899446Y-143430363D01*
X254854844Y-143446159D01*
X254809311Y-143460785D01*
X254762850Y-143474241D01*
X254715458Y-143486527D01*
X254667137Y-143497643D01*
X254617886Y-143507588D01*
X254567706Y-143516364D01*
X254516596Y-143523970D01*
X254464556Y-143530405D01*
X254411586Y-143535670D01*
X254357687Y-143539766D01*
X254302859Y-143542691D01*
X254247100Y-143544446D01*
X254190412Y-143545031D01*
X254119067Y-143544060D01*
X254049234Y-143541147D01*
X253980911Y-143536293D01*
X253914100Y-143529497D01*
X253848801Y-143520759D01*
X253785012Y-143510080D01*
X253722735Y-143497459D01*
X253661969Y-143482896D01*
X253602714Y-143466391D01*
X253544970Y-143447944D01*
X253488738Y-143427556D01*
X253434017Y-143405226D01*
X253380807Y-143380955D01*
X253329108Y-143354741D01*
X253278921Y-143326586D01*
X253230245Y-143296489D01*
X253182984Y-143264387D01*
X253137335Y-143230507D01*
X253093298Y-143194851D01*
X253050873Y-143157418D01*
X253010060Y-143118207D01*
X252970859Y-143077220D01*
X252933270Y-143034456D01*
X252897293Y-142989916D01*
X252862928Y-142943598D01*
X252830175Y-142895504D01*
X252799034Y-142845632D01*
X252769505Y-142793984D01*
X252741588Y-142740559D01*
X252715283Y-142685357D01*
X252690590Y-142628378D01*
X252667509Y-142569623D01*
X253591333Y-142419560D01*
X253606261Y-142462819D01*
X253628151Y-142516941D01*
X253652313Y-142566995D01*
X253678746Y-142612983D01*
X253707450Y-142654904D01*
X253738426Y-142692759D01*
X253771674Y-142726547D01*
X253816428Y-142763063D01*
X253835163Y-142775982D01*
X253884364Y-142804633D01*
X253936943Y-142828074D01*
X253981438Y-142843077D01*
X254028095Y-142854746D01*
X254076913Y-142863080D01*
X254127892Y-142868081D01*
X254181033Y-142869748D01*
X254220628Y-142868823D01*
X254278475Y-142863967D01*
X254334467Y-142854947D01*
X254388604Y-142841765D01*
X254440886Y-142824420D01*
X254491314Y-142802912D01*
X254539887Y-142777241D01*
X254586606Y-142747408D01*
X254631469Y-142713411D01*
X254674478Y-142675252D01*
X254715632Y-142632930D01*
X254728841Y-142617944D01*
X254766062Y-142570758D01*
X254799677Y-142520234D01*
X254829686Y-142466372D01*
X254856088Y-142409171D01*
X254878884Y-142348632D01*
X254898074Y-142284754D01*
X254913657Y-142217537D01*
X254922042Y-142170872D01*
X254928824Y-142122722D01*
X254934004Y-142073089D01*
X254937580Y-142021972D01*
X254939554Y-141969371D01*
X252618270Y-141969371D01*
X252617486Y-141903230D01*
X252617624Y-141838163D01*
X252618686Y-141774169D01*
X252620670Y-141711250D01*
X252623577Y-141649404D01*
X252627406Y-141588632D01*
X252632159Y-141528934D01*
X252637834Y-141470310D01*
X252644432Y-141412760D01*
X252650244Y-141369120D01*
X253538577Y-141369120D01*
X254923141Y-141369120D01*
X254922793Y-141322111D01*
X254919317Y-141253916D01*
X254912296Y-141188503D01*
X254901731Y-141125872D01*
X254887622Y-141066022D01*
X254869968Y-141008956D01*
X254848769Y-140954671D01*
X254824026Y-140903168D01*
X254795738Y-140854447D01*
X254763905Y-140808508D01*
X254728528Y-140765352D01*
X254703354Y-140738520D01*
X254664065Y-140701519D01*
X254622942Y-140668412D01*
X254579985Y-140639200D01*
X254535193Y-140613883D01*
X254488568Y-140592461D01*
X254440108Y-140574934D01*
X254389814Y-140561302D01*
X254337686Y-140551565D01*
X254283724Y-140545722D01*
X254227928Y-140543775D01*
X254192798Y-140544599D01*
X254141357Y-140548927D01*
X254091421Y-140556964D01*
X254042988Y-140568710D01*
X253996061Y-140584166D01*
X253950637Y-140603332D01*
X253906718Y-140626207D01*
X253864303Y-140652791D01*
X253823393Y-140683085D01*
X253783987Y-140717088D01*
X253746086Y-140754801D01*
X253722057Y-140781793D01*
X253688778Y-140825131D01*
X253658818Y-140871891D01*
X253632175Y-140922071D01*
X253608850Y-140975672D01*
X253588843Y-141032695D01*
X253572154Y-141093138D01*
X253558783Y-141157002D01*
X253548730Y-141224287D01*
X253543871Y-141271045D01*
X253540487Y-141319322D01*
X253538577Y-141369120D01*
X252650244Y-141369120D01*
X252651953Y-141356284D01*
X252660396Y-141300881D01*
X252669762Y-141246553D01*
X252680052Y-141193299D01*
X252691263Y-141141118D01*
X252703398Y-141090011D01*
X252716456Y-141039979D01*
X252730436Y-140991020D01*
X252745339Y-140943135D01*
X252761165Y-140896324D01*
X252777913Y-140850587D01*
X252795585Y-140805923D01*
X252814179Y-140762334D01*
X252854135Y-140678377D01*
X252897783Y-140598716D01*
X252945122Y-140523350D01*
X252996152Y-140452280D01*
X253050873Y-140385505D01*
X253079405Y-140353697D01*
X253138398Y-140293110D01*
X253199966Y-140236561D01*
X253264107Y-140184052D01*
X253330822Y-140135582D01*
X253400111Y-140091151D01*
X253471973Y-140050760D01*
X253546409Y-140014407D01*
X253623419Y-139982094D01*
X253703002Y-139953820D01*
X253785160Y-139929585D01*
X253869891Y-139909389D01*
X253957195Y-139893232D01*
X254047073Y-139881115D01*
X254139525Y-139873036D01*
X254186717Y-139870512D01*
X254234551Y-139868997D01*
X254283029Y-139868492D01*
X254369134Y-139870429D01*
G37*
G36*
X250255953Y-141894340D02*
G01*
X249306337Y-141819309D01*
X249294952Y-141876379D01*
X249282194Y-141931526D01*
X249268061Y-141984750D01*
X249252555Y-142036050D01*
X249235674Y-142085426D01*
X249217420Y-142132880D01*
X249197792Y-142178410D01*
X249176791Y-142222016D01*
X249154415Y-142263699D01*
X249118275Y-142322618D01*
X249079045Y-142377208D01*
X249036723Y-142427471D01*
X248991309Y-142473406D01*
X248959317Y-142501625D01*
X248908470Y-142540595D01*
X248854408Y-142575732D01*
X248797132Y-142607035D01*
X248736641Y-142634506D01*
X248672934Y-142658143D01*
X248606013Y-142677947D01*
X248559613Y-142689021D01*
X248511784Y-142698391D01*
X248462527Y-142706057D01*
X248411840Y-142712019D01*
X248359725Y-142716278D01*
X248306181Y-142718834D01*
X248251208Y-142719685D01*
X248193203Y-142718921D01*
X248137012Y-142716626D01*
X248082634Y-142712802D01*
X248030070Y-142707449D01*
X247979320Y-142700566D01*
X247930383Y-142692153D01*
X247883259Y-142682211D01*
X247815974Y-142664430D01*
X247752769Y-142643207D01*
X247693645Y-142618543D01*
X247638601Y-142590437D01*
X247587637Y-142558889D01*
X247540754Y-142523900D01*
X247498013Y-142486394D01*
X247459476Y-142447733D01*
X247425143Y-142407919D01*
X247395015Y-142366950D01*
X247369090Y-142324827D01*
X247347369Y-142281550D01*
X247329852Y-142237120D01*
X247316539Y-142191535D01*
X247307431Y-142144796D01*
X247302526Y-142096903D01*
X247301592Y-142064333D01*
X247304053Y-142012807D01*
X247311438Y-141963743D01*
X247323745Y-141917140D01*
X247340976Y-141872999D01*
X247363129Y-141831320D01*
X247390206Y-141792102D01*
X247402415Y-141777103D01*
X247437557Y-141740845D01*
X247479970Y-141706075D01*
X247519134Y-141679330D01*
X247562951Y-141653538D01*
X247611421Y-141628698D01*
X247664544Y-141604812D01*
X247722320Y-141581877D01*
X247752952Y-141570767D01*
X247802870Y-141554024D01*
X247849275Y-141539496D01*
X247903368Y-141523277D01*
X247965147Y-141505369D01*
X248010604Y-141492491D01*
X248059477Y-141478862D01*
X248111766Y-141464483D01*
X248167472Y-141449352D01*
X248226594Y-141433470D01*
X248289132Y-141416837D01*
X248355087Y-141399453D01*
X248424458Y-141381318D01*
X248497246Y-141362432D01*
X248534920Y-141352707D01*
X248583483Y-141340093D01*
X248631132Y-141327309D01*
X248677868Y-141314356D01*
X248723690Y-141301233D01*
X248812592Y-141274479D01*
X248897841Y-141247048D01*
X248979435Y-141218938D01*
X249057374Y-141190151D01*
X249131659Y-141160686D01*
X249202290Y-141130544D01*
X249269265Y-141099723D01*
X249332587Y-141068225D01*
X249392254Y-141036049D01*
X249448266Y-141003196D01*
X249500625Y-140969664D01*
X249549328Y-140935455D01*
X249594377Y-140900568D01*
X249635772Y-140865003D01*
X249689719Y-140813900D01*
X249740186Y-140761413D01*
X249787172Y-140707544D01*
X249830678Y-140652292D01*
X249870703Y-140595657D01*
X249907248Y-140537638D01*
X249940312Y-140478237D01*
X249969896Y-140417452D01*
X249995999Y-140355285D01*
X250018622Y-140291734D01*
X250037765Y-140226801D01*
X250053427Y-140160484D01*
X250065609Y-140092785D01*
X250074310Y-140023702D01*
X250079530Y-139953237D01*
X250081271Y-139881388D01*
X250079437Y-139811908D01*
X250073934Y-139743273D01*
X250064764Y-139675483D01*
X250051925Y-139608538D01*
X250035418Y-139542438D01*
X250015243Y-139477183D01*
X249991399Y-139412773D01*
X249963888Y-139349207D01*
X249932708Y-139286487D01*
X249909883Y-139245143D01*
X249885428Y-139204174D01*
X249872590Y-139183831D01*
X249845639Y-139143700D01*
X249817250Y-139104788D01*
X249787424Y-139067093D01*
X249756159Y-139030617D01*
X249723456Y-138995359D01*
X249689316Y-138961319D01*
X249653737Y-138928498D01*
X249616721Y-138896894D01*
X249578266Y-138866509D01*
X249538374Y-138837342D01*
X249497043Y-138809393D01*
X249454275Y-138782662D01*
X249410068Y-138757149D01*
X249364424Y-138732855D01*
X249317342Y-138709778D01*
X249268821Y-138687920D01*
X249218803Y-138667335D01*
X249167522Y-138648078D01*
X249114976Y-138630149D01*
X249061166Y-138613548D01*
X249006092Y-138598275D01*
X248949755Y-138584330D01*
X248892153Y-138571714D01*
X248833287Y-138560425D01*
X248773158Y-138550465D01*
X248711764Y-138541832D01*
X248649107Y-138534528D01*
X248585186Y-138528551D01*
X248520000Y-138523903D01*
X248453551Y-138520583D01*
X248385838Y-138518591D01*
X248316860Y-138517927D01*
X248260440Y-138518326D01*
X248204899Y-138519525D01*
X248150238Y-138521523D01*
X248096456Y-138524320D01*
X248043553Y-138527916D01*
X247991529Y-138532311D01*
X247940384Y-138537506D01*
X247890119Y-138543499D01*
X247840733Y-138550292D01*
X247792227Y-138557884D01*
X247744599Y-138566274D01*
X247697851Y-138575464D01*
X247651982Y-138585454D01*
X247562883Y-138607829D01*
X247477300Y-138633402D01*
X247395234Y-138662170D01*
X247316686Y-138694136D01*
X247241654Y-138729297D01*
X247170140Y-138767656D01*
X247102143Y-138809211D01*
X247037663Y-138853962D01*
X246976700Y-138901910D01*
X246947537Y-138927083D01*
X246891653Y-138979294D01*
X246839185Y-139033640D01*
X246790133Y-139090119D01*
X246744498Y-139148733D01*
X246702279Y-139209481D01*
X246663477Y-139272363D01*
X246628090Y-139337378D01*
X246596121Y-139404528D01*
X246567567Y-139473813D01*
X246542430Y-139545231D01*
X246520709Y-139618783D01*
X246502405Y-139694469D01*
X246487517Y-139772289D01*
X246476045Y-139852244D01*
X246467989Y-139934332D01*
X246463350Y-140018555D01*
X247439931Y-140018555D01*
X247452849Y-139952853D01*
X247468301Y-139890717D01*
X247486288Y-139832145D01*
X247506811Y-139777139D01*
X247529868Y-139725698D01*
X247555459Y-139677822D01*
X247583586Y-139633512D01*
X247614247Y-139592766D01*
X247647443Y-139555586D01*
X247683174Y-139521971D01*
X247708403Y-139501542D01*
X247748904Y-139473257D01*
X247793033Y-139447755D01*
X247840788Y-139425035D01*
X247892171Y-139405096D01*
X247947180Y-139387940D01*
X248005817Y-139373566D01*
X248068081Y-139361974D01*
X248133971Y-139353164D01*
X248203489Y-139347136D01*
X248251849Y-139344663D01*
X248301821Y-139343427D01*
X248327412Y-139343272D01*
X248379747Y-139343941D01*
X248430653Y-139345947D01*
X248480131Y-139349290D01*
X248528179Y-139353970D01*
X248574799Y-139359988D01*
X248642050Y-139371521D01*
X248706086Y-139386064D01*
X248766907Y-139403615D01*
X248824513Y-139424175D01*
X248878904Y-139447743D01*
X248930081Y-139474321D01*
X248978043Y-139503907D01*
X248993315Y-139514438D01*
X249037897Y-139550708D01*
X249074923Y-139590642D01*
X249104392Y-139634239D01*
X249126306Y-139681500D01*
X249140662Y-139732424D01*
X249147463Y-139787013D01*
X249148068Y-139809874D01*
X249144518Y-139861090D01*
X249133871Y-139909960D01*
X249116125Y-139956483D01*
X249091281Y-140000658D01*
X249059339Y-140042487D01*
X249020298Y-140081968D01*
X249002694Y-140097103D01*
X248963536Y-140125876D01*
X248915083Y-140155039D01*
X248857336Y-140184595D01*
X248813674Y-140204516D01*
X248765882Y-140224611D01*
X248713959Y-140244880D01*
X248657905Y-140265323D01*
X248597721Y-140285940D01*
X248533406Y-140306731D01*
X248464960Y-140327697D01*
X248392383Y-140348836D01*
X248315675Y-140370149D01*
X248234837Y-140391636D01*
X248149868Y-140413298D01*
X248105835Y-140424193D01*
X248018186Y-140445910D01*
X247933442Y-140467681D01*
X247851601Y-140489507D01*
X247772663Y-140511388D01*
X247696629Y-140533324D01*
X247623498Y-140555315D01*
X247553270Y-140577361D01*
X247485946Y-140599462D01*
X247421526Y-140621618D01*
X247360008Y-140643829D01*
X247301395Y-140666095D01*
X247245684Y-140688415D01*
X247192878Y-140710791D01*
X247142974Y-140733222D01*
X247095974Y-140755707D01*
X247051878Y-140778248D01*
X247009815Y-140801333D01*
X246968915Y-140825454D01*
X246929178Y-140850609D01*
X246871754Y-140890283D01*
X246816947Y-140932286D01*
X246764757Y-140976617D01*
X246715184Y-141023277D01*
X246668229Y-141072266D01*
X246623891Y-141123583D01*
X246582170Y-141177229D01*
X246543067Y-141233204D01*
X246518451Y-141271814D01*
X246483882Y-141331793D01*
X246452712Y-141394349D01*
X246433821Y-141437484D01*
X246416442Y-141481764D01*
X246400574Y-141527188D01*
X246386217Y-141573758D01*
X246373371Y-141621472D01*
X246362037Y-141670331D01*
X246352214Y-141720335D01*
X246343902Y-141771484D01*
X246337101Y-141823778D01*
X246331812Y-141877217D01*
X246328034Y-141931801D01*
X246325767Y-141987529D01*
X246325011Y-142044403D01*
X246325913Y-142096367D01*
X246328620Y-142147919D01*
X246333131Y-142199059D01*
X246339446Y-142249787D01*
X246347565Y-142300102D01*
X246357489Y-142350006D01*
X246369217Y-142399497D01*
X246382750Y-142448576D01*
X246398087Y-142497243D01*
X246415228Y-142545498D01*
X246434174Y-142593340D01*
X246454924Y-142640771D01*
X246477478Y-142687789D01*
X246501837Y-142734395D01*
X246528000Y-142780589D01*
X246555967Y-142826371D01*
X246585583Y-142871214D01*
X246616692Y-142914591D01*
X246649294Y-142956503D01*
X246683389Y-142996950D01*
X246718976Y-143035931D01*
X246756057Y-143073447D01*
X246794631Y-143109497D01*
X246834697Y-143144082D01*
X246876256Y-143177201D01*
X246919309Y-143208855D01*
X246963854Y-143239043D01*
X247009892Y-143267766D01*
X247057424Y-143295024D01*
X247106448Y-143320816D01*
X247156965Y-143345143D01*
X247208975Y-143368004D01*
X247262542Y-143389441D01*
X247317730Y-143409494D01*
X247374539Y-143428165D01*
X247432970Y-143445453D01*
X247493022Y-143461358D01*
X247554694Y-143475880D01*
X247617988Y-143489018D01*
X247682904Y-143500774D01*
X247749440Y-143511147D01*
X247817597Y-143520136D01*
X247887376Y-143527743D01*
X247958776Y-143533967D01*
X248031797Y-143538807D01*
X248106439Y-143542265D01*
X248182702Y-143544339D01*
X248260587Y-143545031D01*
X248317471Y-143544620D01*
X248373523Y-143543387D01*
X248428745Y-143541332D01*
X248483135Y-143538455D01*
X248536694Y-143534756D01*
X248589422Y-143530234D01*
X248641318Y-143524891D01*
X248692384Y-143518726D01*
X248742618Y-143511739D01*
X248792021Y-143503929D01*
X248840593Y-143495298D01*
X248888334Y-143485845D01*
X248935243Y-143475569D01*
X248981321Y-143464472D01*
X249070985Y-143439811D01*
X249157323Y-143411862D01*
X249240336Y-143380625D01*
X249320025Y-143346100D01*
X249396389Y-143308286D01*
X249469429Y-143267185D01*
X249539143Y-143222795D01*
X249605533Y-143175117D01*
X249668598Y-143124152D01*
X249728457Y-143069889D01*
X249785230Y-143012612D01*
X249838916Y-142952322D01*
X249889516Y-142889019D01*
X249937028Y-142822703D01*
X249981455Y-142753373D01*
X250022794Y-142681029D01*
X250061047Y-142605673D01*
X250096214Y-142527303D01*
X250128294Y-142445920D01*
X250157287Y-142361523D01*
X250183193Y-142274113D01*
X250206013Y-142183690D01*
X250216266Y-142137348D01*
X250225746Y-142090253D01*
X250234456Y-142042405D01*
X250242393Y-141993803D01*
X250249559Y-141944448D01*
X250255953Y-141894340D01*
G37*
G36*
X245975646Y-139943524D02*
G01*
X244989687Y-139943524D01*
X244151445Y-142440662D01*
X243334306Y-139943524D01*
X242374139Y-139943524D01*
X243610985Y-143342212D01*
X243831389Y-143991702D01*
X243854158Y-144045651D01*
X243876741Y-144097146D01*
X243899138Y-144146190D01*
X243921350Y-144192781D01*
X243943377Y-144236920D01*
X243965218Y-144278607D01*
X243994050Y-144330374D01*
X244022554Y-144377781D01*
X244050727Y-144420829D01*
X244064690Y-144440718D01*
X244092754Y-144478490D01*
X244129276Y-144523130D01*
X244167400Y-144564907D01*
X244207128Y-144603821D01*
X244248458Y-144639874D01*
X244291392Y-144673064D01*
X244317921Y-144691605D01*
X244364249Y-144720616D01*
X244413840Y-144747567D01*
X244466694Y-144772457D01*
X244511326Y-144790885D01*
X244558046Y-144807994D01*
X244606855Y-144823784D01*
X244657753Y-144838256D01*
X244670803Y-144841667D01*
X244724109Y-144854307D01*
X244779100Y-144865261D01*
X244835777Y-144874530D01*
X244894139Y-144882114D01*
X244954186Y-144888012D01*
X245015918Y-144892226D01*
X245063324Y-144894280D01*
X245111677Y-144895385D01*
X245144439Y-144895596D01*
X245194465Y-144895143D01*
X245244305Y-144893783D01*
X245293960Y-144891516D01*
X245343430Y-144888342D01*
X245392714Y-144884262D01*
X245441812Y-144879275D01*
X245490725Y-144873381D01*
X245539453Y-144866580D01*
X245587995Y-144858873D01*
X245636352Y-144850259D01*
X245668486Y-144844012D01*
X245750552Y-144172247D01*
X245696715Y-144183512D01*
X245644233Y-144193276D01*
X245593107Y-144201537D01*
X245543336Y-144208297D01*
X245494921Y-144213554D01*
X245447862Y-144217309D01*
X245390944Y-144219891D01*
X245357809Y-144220314D01*
X245298833Y-144218449D01*
X245242803Y-144212853D01*
X245189720Y-144203528D01*
X245139585Y-144190473D01*
X245092396Y-144173688D01*
X245048154Y-144153173D01*
X245006859Y-144128927D01*
X244968511Y-144100952D01*
X244933110Y-144069247D01*
X244900655Y-144033811D01*
X244880657Y-144008115D01*
X244852070Y-143967528D01*
X244824781Y-143924900D01*
X244798791Y-143880232D01*
X244774100Y-143833524D01*
X244750706Y-143784776D01*
X244728611Y-143733988D01*
X244707814Y-143681159D01*
X244688315Y-143626290D01*
X244670115Y-143569382D01*
X244653213Y-143510432D01*
X244642666Y-143470000D01*
X245975646Y-139943524D01*
G37*
G36*
X238614362Y-143470000D02*
G01*
X239540531Y-143470000D01*
X239540531Y-141649316D01*
X239540765Y-141578662D01*
X239541465Y-141511196D01*
X239542633Y-141446918D01*
X239544268Y-141385826D01*
X239546370Y-141327923D01*
X239548939Y-141273206D01*
X239551975Y-141221677D01*
X239555479Y-141173335D01*
X239561609Y-141106799D01*
X239568791Y-141047434D01*
X239577024Y-140995241D01*
X239589636Y-140936806D01*
X239600322Y-140901346D01*
X239620472Y-140850084D01*
X239644285Y-140802542D01*
X239671763Y-140758722D01*
X239702904Y-140718622D01*
X239737708Y-140682243D01*
X239776176Y-140649585D01*
X239792590Y-140637564D01*
X239835672Y-140610545D01*
X239881387Y-140588105D01*
X239929736Y-140570245D01*
X239980718Y-140556964D01*
X240034333Y-140548263D01*
X240090581Y-140544141D01*
X240113818Y-140543775D01*
X240173407Y-140545881D01*
X240231421Y-140552201D01*
X240287859Y-140562734D01*
X240342722Y-140577480D01*
X240396010Y-140596440D01*
X240447722Y-140619612D01*
X240497859Y-140646998D01*
X240546421Y-140678597D01*
X240592326Y-140713401D01*
X240634495Y-140750990D01*
X240672926Y-140791364D01*
X240707621Y-140834521D01*
X240738579Y-140880464D01*
X240765800Y-140929190D01*
X240789284Y-140980701D01*
X240809031Y-141034996D01*
X240825517Y-141096270D01*
X240836439Y-141149944D01*
X240846125Y-141210233D01*
X240854574Y-141277136D01*
X240859520Y-141325414D01*
X240863917Y-141376632D01*
X240867763Y-141430790D01*
X240871061Y-141487888D01*
X240873808Y-141547925D01*
X240876007Y-141610903D01*
X240877655Y-141676822D01*
X240878754Y-141745680D01*
X240879304Y-141817478D01*
X240879373Y-141854480D01*
X240879373Y-143470000D01*
X241805541Y-143470000D01*
X241805541Y-139943524D01*
X240945025Y-139943524D01*
X240945025Y-140458192D01*
X240886801Y-140386783D01*
X240826726Y-140319981D01*
X240764801Y-140257786D01*
X240701026Y-140200198D01*
X240635401Y-140147218D01*
X240567926Y-140098844D01*
X240498601Y-140055077D01*
X240427426Y-140015917D01*
X240354400Y-139981364D01*
X240279524Y-139951419D01*
X240202798Y-139926080D01*
X240124223Y-139905348D01*
X240043796Y-139889224D01*
X239961520Y-139877706D01*
X239877394Y-139870796D01*
X239791417Y-139868492D01*
X239734299Y-139869471D01*
X239678128Y-139872408D01*
X239622906Y-139877302D01*
X239568631Y-139884154D01*
X239515304Y-139892964D01*
X239462926Y-139903732D01*
X239411495Y-139916457D01*
X239361012Y-139931140D01*
X239311478Y-139947781D01*
X239262891Y-139966380D01*
X239231026Y-139979867D01*
X239184418Y-140001285D01*
X239139994Y-140023776D01*
X239097755Y-140047337D01*
X239057699Y-140071971D01*
X239007691Y-140106482D01*
X238961566Y-140142899D01*
X238919324Y-140181221D01*
X238880965Y-140221448D01*
X238846490Y-140263579D01*
X238815203Y-140307397D01*
X238786407Y-140352679D01*
X238760102Y-140399427D01*
X238736288Y-140447641D01*
X238714966Y-140497320D01*
X238696135Y-140548464D01*
X238679795Y-140601074D01*
X238665946Y-140655150D01*
X238653856Y-140712632D01*
X238645847Y-140759639D01*
X238638744Y-140809984D01*
X238632547Y-140863668D01*
X238627258Y-140920690D01*
X238622875Y-140981051D01*
X238619400Y-141044750D01*
X238616830Y-141111788D01*
X238615168Y-141182165D01*
X238614564Y-141230937D01*
X238614362Y-141281193D01*
X238614362Y-143470000D01*
G37*
G36*
X236090259Y-139943524D02*
G01*
X236090259Y-140618806D01*
X236723336Y-140618806D01*
X236723336Y-142149916D01*
X236723268Y-142206579D01*
X236723061Y-142260210D01*
X236722718Y-142310809D01*
X236722237Y-142358377D01*
X236721258Y-142424044D01*
X236719970Y-142482891D01*
X236718373Y-142534915D01*
X236715763Y-142593671D01*
X236711727Y-142650063D01*
X236705751Y-142692721D01*
X236689562Y-142738448D01*
X236664443Y-142778908D01*
X236630394Y-142814102D01*
X236622513Y-142820509D01*
X236579580Y-142846475D01*
X236531380Y-142862824D01*
X236483497Y-142869316D01*
X236466588Y-142869748D01*
X236414189Y-142866616D01*
X236364352Y-142859220D01*
X236308905Y-142847473D01*
X236260508Y-142834944D01*
X236208521Y-142819630D01*
X236152944Y-142801531D01*
X236093776Y-142780648D01*
X236014055Y-143423105D01*
X236075467Y-143444894D01*
X236138362Y-143464541D01*
X236202742Y-143482044D01*
X236268605Y-143497404D01*
X236335952Y-143510620D01*
X236404783Y-143521693D01*
X236451494Y-143527885D01*
X236498865Y-143533124D01*
X236546895Y-143537411D01*
X236595585Y-143540744D01*
X236644934Y-143543126D01*
X236694943Y-143544555D01*
X236745611Y-143545031D01*
X236807563Y-143543675D01*
X236867977Y-143539609D01*
X236926852Y-143532831D01*
X236984188Y-143523342D01*
X237039985Y-143511142D01*
X237094243Y-143496231D01*
X237146963Y-143478609D01*
X237198144Y-143458276D01*
X237246614Y-143435799D01*
X237291787Y-143411748D01*
X237333663Y-143386120D01*
X237372241Y-143358918D01*
X237415827Y-143322699D01*
X237454260Y-143284019D01*
X237487542Y-143242878D01*
X237493581Y-143234354D01*
X237521487Y-143189114D01*
X237546589Y-143139122D01*
X237564651Y-143095708D01*
X237580917Y-143049253D01*
X237595389Y-142999757D01*
X237608065Y-142947221D01*
X237618946Y-142891643D01*
X237623713Y-142862714D01*
X237630582Y-142815801D01*
X237636536Y-142758300D01*
X237640400Y-142708226D01*
X237643749Y-142652197D01*
X237646582Y-142590211D01*
X237648901Y-142522270D01*
X237650160Y-142473667D01*
X237651190Y-142422418D01*
X237651992Y-142368521D01*
X237652564Y-142311977D01*
X237652908Y-142252786D01*
X237653022Y-142190949D01*
X237653022Y-140618806D01*
X238078591Y-140618806D01*
X238078591Y-139943524D01*
X237653022Y-139943524D01*
X237653022Y-139268241D01*
X236723336Y-138743021D01*
X236723336Y-139943524D01*
X236090259Y-139943524D01*
G37*
G36*
X234535702Y-138592958D02*
G01*
X234535702Y-140367920D01*
X234479035Y-140307442D01*
X234420993Y-140250867D01*
X234361578Y-140198193D01*
X234300789Y-140149420D01*
X234238626Y-140104550D01*
X234175090Y-140063581D01*
X234110179Y-140026514D01*
X234043895Y-139993349D01*
X233976236Y-139964086D01*
X233907204Y-139938724D01*
X233836798Y-139917264D01*
X233765018Y-139899706D01*
X233691864Y-139886050D01*
X233617337Y-139876296D01*
X233541435Y-139870443D01*
X233464160Y-139868492D01*
X233404706Y-139869543D01*
X233346364Y-139872696D01*
X233289136Y-139877951D01*
X233233020Y-139885308D01*
X233178018Y-139894767D01*
X233124128Y-139906328D01*
X233071351Y-139919992D01*
X233019687Y-139935757D01*
X232969135Y-139953624D01*
X232919697Y-139973593D01*
X232887356Y-139988073D01*
X232840328Y-140011072D01*
X232795527Y-140035225D01*
X232752950Y-140060531D01*
X232712600Y-140086992D01*
X232674475Y-140114607D01*
X232627104Y-140153221D01*
X232583690Y-140193888D01*
X232544233Y-140236606D01*
X232508732Y-140281376D01*
X232500475Y-140292889D01*
X232469224Y-140339838D01*
X232440538Y-140388070D01*
X232414416Y-140437584D01*
X232390859Y-140488381D01*
X232369866Y-140540459D01*
X232351438Y-140593820D01*
X232335575Y-140648463D01*
X232322276Y-140704389D01*
X232311010Y-140764564D01*
X232303546Y-140814817D01*
X232296928Y-140869459D01*
X232291154Y-140928490D01*
X232286225Y-140991912D01*
X232282141Y-141059722D01*
X232279888Y-141107368D01*
X232278011Y-141156964D01*
X232276509Y-141208512D01*
X232275382Y-141262010D01*
X232274631Y-141317459D01*
X232274255Y-141374860D01*
X232274209Y-141404291D01*
X232274209Y-143470000D01*
X233200377Y-143470000D01*
X233200377Y-141584836D01*
X233200584Y-141516385D01*
X233201202Y-141451131D01*
X233202232Y-141389073D01*
X233203675Y-141330212D01*
X233205529Y-141274548D01*
X233207796Y-141222080D01*
X233210475Y-141172809D01*
X233215267Y-141104895D01*
X233220985Y-141044173D01*
X233227632Y-140990644D01*
X233235205Y-140944307D01*
X233246745Y-140893712D01*
X233253134Y-140873210D01*
X233271595Y-140827466D01*
X233294006Y-140784755D01*
X233320367Y-140745079D01*
X233350678Y-140708437D01*
X233384939Y-140674829D01*
X233423150Y-140644255D01*
X233439540Y-140632875D01*
X233482937Y-140607206D01*
X233529597Y-140585888D01*
X233579520Y-140568921D01*
X233632706Y-140556304D01*
X233689154Y-140548038D01*
X233736663Y-140544558D01*
X233773664Y-140543775D01*
X233830634Y-140545570D01*
X233886065Y-140550956D01*
X233939957Y-140559931D01*
X233992310Y-140572498D01*
X234043125Y-140588654D01*
X234092401Y-140608401D01*
X234140138Y-140631739D01*
X234186337Y-140658667D01*
X234230246Y-140688910D01*
X234271114Y-140722780D01*
X234308941Y-140760278D01*
X234343727Y-140801402D01*
X234375473Y-140846154D01*
X234404177Y-140894532D01*
X234429841Y-140946537D01*
X234452464Y-141002170D01*
X234467339Y-141047191D01*
X234480752Y-141096087D01*
X234492701Y-141148857D01*
X234503187Y-141205502D01*
X234512210Y-141266021D01*
X234519770Y-141330414D01*
X234525866Y-141398681D01*
X234529118Y-141446345D01*
X234531719Y-141495731D01*
X234533670Y-141546839D01*
X234534970Y-141599669D01*
X234535621Y-141654220D01*
X234535702Y-141682142D01*
X234535702Y-143470000D01*
X235461871Y-143470000D01*
X235461871Y-138592958D01*
X234535702Y-138592958D01*
G37*
G36*
X230105854Y-139870429D02*
G01*
X230190072Y-139876241D01*
X230272403Y-139885927D01*
X230352848Y-139899487D01*
X230431405Y-139916921D01*
X230508076Y-139938230D01*
X230582860Y-139963413D01*
X230655758Y-139992470D01*
X230726768Y-140025401D01*
X230795892Y-140062207D01*
X230863129Y-140102887D01*
X230928479Y-140147442D01*
X230991943Y-140195871D01*
X231053519Y-140248174D01*
X231113209Y-140304351D01*
X231171012Y-140364403D01*
X231226095Y-140427729D01*
X231277624Y-140494023D01*
X231325600Y-140563284D01*
X231370022Y-140635512D01*
X231410889Y-140710709D01*
X231448204Y-140788872D01*
X231481964Y-140870004D01*
X231512171Y-140954103D01*
X231538824Y-141041169D01*
X231561923Y-141131203D01*
X231572140Y-141177333D01*
X231581469Y-141224205D01*
X231589909Y-141271818D01*
X231597460Y-141320174D01*
X231604124Y-141369271D01*
X231609899Y-141419111D01*
X231614785Y-141469692D01*
X231618783Y-141521015D01*
X231621892Y-141573080D01*
X231624113Y-141625887D01*
X231625446Y-141679435D01*
X231625890Y-141733726D01*
X231624539Y-141824190D01*
X231620486Y-141912695D01*
X231613732Y-141999239D01*
X231604275Y-142083824D01*
X231592116Y-142166448D01*
X231577255Y-142247112D01*
X231559693Y-142325816D01*
X231539428Y-142402561D01*
X231516462Y-142477345D01*
X231490794Y-142550169D01*
X231462423Y-142621033D01*
X231431351Y-142689937D01*
X231397577Y-142756881D01*
X231361101Y-142821864D01*
X231321922Y-142884888D01*
X231280042Y-142945952D01*
X231223375Y-143018497D01*
X231162989Y-143086361D01*
X231098884Y-143149545D01*
X231031061Y-143208049D01*
X230959520Y-143261873D01*
X230884259Y-143311016D01*
X230805280Y-143355479D01*
X230722583Y-143395261D01*
X230636166Y-143430363D01*
X230591564Y-143446159D01*
X230546032Y-143460785D01*
X230499570Y-143474241D01*
X230452178Y-143486527D01*
X230403857Y-143497643D01*
X230354606Y-143507588D01*
X230304426Y-143516364D01*
X230253316Y-143523970D01*
X230201276Y-143530405D01*
X230148307Y-143535670D01*
X230094408Y-143539766D01*
X230039579Y-143542691D01*
X229983820Y-143544446D01*
X229927132Y-143545031D01*
X229855788Y-143544060D01*
X229785954Y-143541147D01*
X229717632Y-143536293D01*
X229650821Y-143529497D01*
X229585521Y-143520759D01*
X229521732Y-143510080D01*
X229459455Y-143497459D01*
X229398689Y-143482896D01*
X229339434Y-143466391D01*
X229281690Y-143447944D01*
X229225458Y-143427556D01*
X229170737Y-143405226D01*
X229117527Y-143380955D01*
X229065828Y-143354741D01*
X229015641Y-143326586D01*
X228966965Y-143296489D01*
X228919704Y-143264387D01*
X228874055Y-143230507D01*
X228830018Y-143194851D01*
X228787593Y-143157418D01*
X228746780Y-143118207D01*
X228707579Y-143077220D01*
X228669990Y-143034456D01*
X228634013Y-142989916D01*
X228599648Y-142943598D01*
X228566895Y-142895504D01*
X228535754Y-142845632D01*
X228506225Y-142793984D01*
X228478308Y-142740559D01*
X228452003Y-142685357D01*
X228427310Y-142628378D01*
X228404229Y-142569623D01*
X229328054Y-142419560D01*
X229342981Y-142462819D01*
X229364871Y-142516941D01*
X229389033Y-142566995D01*
X229415466Y-142612983D01*
X229444171Y-142654904D01*
X229475147Y-142692759D01*
X229508394Y-142726547D01*
X229553148Y-142763063D01*
X229571883Y-142775982D01*
X229621084Y-142804633D01*
X229673663Y-142828074D01*
X229718158Y-142843077D01*
X229764815Y-142854746D01*
X229813633Y-142863080D01*
X229864612Y-142868081D01*
X229917754Y-142869748D01*
X229957348Y-142868823D01*
X230015195Y-142863967D01*
X230071187Y-142854947D01*
X230125324Y-142841765D01*
X230177607Y-142824420D01*
X230228034Y-142802912D01*
X230276607Y-142777241D01*
X230323326Y-142747408D01*
X230368189Y-142713411D01*
X230411198Y-142675252D01*
X230452352Y-142632930D01*
X230465561Y-142617944D01*
X230502782Y-142570758D01*
X230536397Y-142520234D01*
X230566406Y-142466372D01*
X230592808Y-142409171D01*
X230615604Y-142348632D01*
X230634794Y-142284754D01*
X230650377Y-142217537D01*
X230658762Y-142170872D01*
X230665544Y-142122722D01*
X230670724Y-142073089D01*
X230674300Y-142021972D01*
X230676274Y-141969371D01*
X228354990Y-141969371D01*
X228354206Y-141903230D01*
X228354344Y-141838163D01*
X228355406Y-141774169D01*
X228357390Y-141711250D01*
X228360297Y-141649404D01*
X228364126Y-141588632D01*
X228368879Y-141528934D01*
X228374554Y-141470310D01*
X228381152Y-141412760D01*
X228386964Y-141369120D01*
X229275297Y-141369120D01*
X230659861Y-141369120D01*
X230659513Y-141322111D01*
X230656037Y-141253916D01*
X230649017Y-141188503D01*
X230638452Y-141125872D01*
X230624342Y-141066022D01*
X230606688Y-141008956D01*
X230585489Y-140954671D01*
X230560746Y-140903168D01*
X230532458Y-140854447D01*
X230500625Y-140808508D01*
X230465248Y-140765352D01*
X230440075Y-140738520D01*
X230400785Y-140701519D01*
X230359662Y-140668412D01*
X230316705Y-140639200D01*
X230271913Y-140613883D01*
X230225288Y-140592461D01*
X230176828Y-140574934D01*
X230126534Y-140561302D01*
X230074406Y-140551565D01*
X230020444Y-140545722D01*
X229964648Y-140543775D01*
X229929518Y-140544599D01*
X229878077Y-140548927D01*
X229828141Y-140556964D01*
X229779709Y-140568710D01*
X229732781Y-140584166D01*
X229687357Y-140603332D01*
X229643438Y-140626207D01*
X229601024Y-140652791D01*
X229560113Y-140683085D01*
X229520707Y-140717088D01*
X229482806Y-140754801D01*
X229458777Y-140781793D01*
X229425499Y-140825131D01*
X229395538Y-140871891D01*
X229368895Y-140922071D01*
X229345570Y-140975672D01*
X229325564Y-141032695D01*
X229308874Y-141093138D01*
X229295503Y-141157002D01*
X229285450Y-141224287D01*
X229280591Y-141271045D01*
X229277207Y-141319322D01*
X229275297Y-141369120D01*
X228386964Y-141369120D01*
X228388673Y-141356284D01*
X228397116Y-141300881D01*
X228406483Y-141246553D01*
X228416772Y-141193299D01*
X228427984Y-141141118D01*
X228440118Y-141090011D01*
X228453176Y-141039979D01*
X228467156Y-140991020D01*
X228482059Y-140943135D01*
X228497885Y-140896324D01*
X228514633Y-140850587D01*
X228532305Y-140805923D01*
X228550899Y-140762334D01*
X228590855Y-140678377D01*
X228634503Y-140598716D01*
X228681842Y-140523350D01*
X228732872Y-140452280D01*
X228787593Y-140385505D01*
X228816125Y-140353697D01*
X228875119Y-140293110D01*
X228936686Y-140236561D01*
X229000827Y-140184052D01*
X229067542Y-140135582D01*
X229136831Y-140091151D01*
X229208693Y-140050760D01*
X229283129Y-140014407D01*
X229360139Y-139982094D01*
X229439723Y-139953820D01*
X229521880Y-139929585D01*
X229606611Y-139909389D01*
X229693915Y-139893232D01*
X229783794Y-139881115D01*
X229876246Y-139873036D01*
X229923437Y-139870512D01*
X229971271Y-139868997D01*
X230019749Y-139868492D01*
X230105854Y-139870429D01*
G37*
G36*
X227944662Y-142494591D02*
G01*
X227014976Y-142344528D01*
X227002704Y-142391796D01*
X226988309Y-142436880D01*
X226965815Y-142493593D01*
X226939546Y-142546423D01*
X226909504Y-142595369D01*
X226875689Y-142640432D01*
X226838100Y-142681611D01*
X226796738Y-142718907D01*
X226774641Y-142736099D01*
X226726941Y-142767423D01*
X226674697Y-142794570D01*
X226617911Y-142817541D01*
X226572339Y-142832029D01*
X226524213Y-142844167D01*
X226473531Y-142853956D01*
X226420294Y-142861395D01*
X226364501Y-142866485D01*
X226306153Y-142869226D01*
X226265835Y-142869748D01*
X226200126Y-142868584D01*
X226137529Y-142865091D01*
X226078044Y-142859269D01*
X226021671Y-142851119D01*
X225968410Y-142840639D01*
X225918260Y-142827832D01*
X225871222Y-142812695D01*
X225827296Y-142795230D01*
X225773569Y-142768320D01*
X225725374Y-142737271D01*
X225683938Y-142700712D01*
X225651075Y-142659620D01*
X225626785Y-142613994D01*
X225611068Y-142563834D01*
X225603924Y-142509141D01*
X225603448Y-142489902D01*
X225607551Y-142439417D01*
X225619861Y-142393475D01*
X225643519Y-142347220D01*
X225669100Y-142315219D01*
X225707609Y-142286945D01*
X225753743Y-142263425D01*
X225801445Y-142244328D01*
X225857562Y-142225689D01*
X225908514Y-142211108D01*
X225964851Y-142196820D01*
X225979777Y-142193293D01*
X226049025Y-142177874D01*
X226116669Y-142162537D01*
X226182711Y-142147283D01*
X226247150Y-142132110D01*
X226309986Y-142117021D01*
X226371219Y-142102014D01*
X226430850Y-142087089D01*
X226488877Y-142072247D01*
X226545302Y-142057487D01*
X226600124Y-142042809D01*
X226653343Y-142028214D01*
X226704959Y-142013702D01*
X226754972Y-141999271D01*
X226803382Y-141984924D01*
X226850190Y-141970658D01*
X226895395Y-141956475D01*
X226980996Y-141928357D01*
X227060186Y-141900568D01*
X227132964Y-141873109D01*
X227199331Y-141845980D01*
X227259286Y-141819180D01*
X227312830Y-141792711D01*
X227359963Y-141766571D01*
X227400684Y-141740760D01*
X227450941Y-141704279D01*
X227497954Y-141666058D01*
X227541726Y-141626097D01*
X227582255Y-141584396D01*
X227619541Y-141540954D01*
X227653586Y-141495772D01*
X227684388Y-141448850D01*
X227711948Y-141400188D01*
X227736265Y-141349785D01*
X227757340Y-141297643D01*
X227775173Y-141243760D01*
X227789763Y-141188136D01*
X227801111Y-141130773D01*
X227809217Y-141071669D01*
X227814081Y-141010825D01*
X227815702Y-140948241D01*
X227814301Y-140891661D01*
X227810097Y-140836225D01*
X227803090Y-140781934D01*
X227793280Y-140728789D01*
X227780668Y-140676788D01*
X227765254Y-140625932D01*
X227747036Y-140576221D01*
X227726016Y-140527655D01*
X227702193Y-140480233D01*
X227675568Y-140433957D01*
X227646139Y-140388826D01*
X227613908Y-140344839D01*
X227578875Y-140301997D01*
X227541039Y-140260300D01*
X227500400Y-140219748D01*
X227456958Y-140180341D01*
X227410425Y-140142578D01*
X227360806Y-140107252D01*
X227308100Y-140074361D01*
X227252307Y-140043907D01*
X227193428Y-140015890D01*
X227131462Y-139990308D01*
X227066409Y-139967163D01*
X226998270Y-139946454D01*
X226927044Y-139928182D01*
X226852732Y-139912346D01*
X226775333Y-139898946D01*
X226694847Y-139887983D01*
X226611275Y-139879456D01*
X226524616Y-139873365D01*
X226434870Y-139869710D01*
X226342038Y-139868492D01*
X226253648Y-139869454D01*
X226168143Y-139872339D01*
X226085524Y-139877148D01*
X226005789Y-139883879D01*
X225928940Y-139892535D01*
X225854975Y-139903114D01*
X225783896Y-139915616D01*
X225715702Y-139930041D01*
X225650393Y-139946390D01*
X225587969Y-139964663D01*
X225528430Y-139984859D01*
X225471777Y-140006978D01*
X225418008Y-140031021D01*
X225367125Y-140056987D01*
X225319126Y-140084876D01*
X225274013Y-140114689D01*
X225231052Y-140146389D01*
X225189804Y-140179938D01*
X225150269Y-140215338D01*
X225112447Y-140252588D01*
X225076337Y-140291689D01*
X225041940Y-140332639D01*
X225009255Y-140375440D01*
X224978284Y-140420090D01*
X224949025Y-140466591D01*
X224921479Y-140514942D01*
X224895646Y-140565143D01*
X224871525Y-140617194D01*
X224849118Y-140671096D01*
X224828423Y-140726847D01*
X224809440Y-140784449D01*
X224792171Y-140843900D01*
X225666756Y-140993963D01*
X225682399Y-140941042D01*
X225701194Y-140891308D01*
X225723139Y-140844761D01*
X225748235Y-140801402D01*
X225776482Y-140761230D01*
X225807879Y-140724246D01*
X225842427Y-140690449D01*
X225880126Y-140659839D01*
X225921196Y-140632636D01*
X225966442Y-140609061D01*
X226015864Y-140589112D01*
X226069463Y-140572791D01*
X226127239Y-140560096D01*
X226189191Y-140551029D01*
X226238396Y-140546608D01*
X226289950Y-140544228D01*
X226325625Y-140543775D01*
X226392385Y-140544671D01*
X226455497Y-140547361D01*
X226514961Y-140551843D01*
X226570778Y-140558118D01*
X226622947Y-140566186D01*
X226671468Y-140576047D01*
X226730490Y-140591984D01*
X226783026Y-140611108D01*
X226829078Y-140633420D01*
X226849673Y-140645771D01*
X226890786Y-140679647D01*
X226921801Y-140717674D01*
X226942718Y-140759853D01*
X226953537Y-140806183D01*
X226955186Y-140834521D01*
X226949397Y-140881929D01*
X226932031Y-140925673D01*
X226903089Y-140965753D01*
X226868267Y-140997818D01*
X226862569Y-141002170D01*
X226821609Y-141026515D01*
X226778291Y-141046336D01*
X226724175Y-141067497D01*
X226659259Y-141089998D01*
X226609983Y-141105742D01*
X226555908Y-141122082D01*
X226497033Y-141139017D01*
X226433359Y-141156548D01*
X226364886Y-141174674D01*
X226291613Y-141193395D01*
X226213541Y-141212711D01*
X226130669Y-141232623D01*
X226042998Y-141253130D01*
X225997363Y-141263607D01*
X225951563Y-141274161D01*
X225862573Y-141295721D01*
X225777063Y-141317886D01*
X225695034Y-141340656D01*
X225616486Y-141364030D01*
X225541418Y-141388009D01*
X225469830Y-141412592D01*
X225401723Y-141437779D01*
X225337097Y-141463571D01*
X225275950Y-141489968D01*
X225218285Y-141516969D01*
X225164099Y-141544574D01*
X225113394Y-141572784D01*
X225066170Y-141601599D01*
X225022426Y-141631018D01*
X224982163Y-141661042D01*
X224963336Y-141676280D01*
X224928271Y-141707971D01*
X224879914Y-141758391D01*
X224836647Y-141812274D01*
X224798471Y-141869620D01*
X224765385Y-141930427D01*
X224737389Y-141994696D01*
X224721553Y-142039466D01*
X224707979Y-142085775D01*
X224696668Y-142133622D01*
X224687619Y-142183008D01*
X224680832Y-142233932D01*
X224676307Y-142286396D01*
X224674045Y-142340398D01*
X224673762Y-142367976D01*
X224675333Y-142427684D01*
X224680045Y-142486348D01*
X224687899Y-142543968D01*
X224698895Y-142600544D01*
X224713032Y-142656075D01*
X224730310Y-142710563D01*
X224750730Y-142764006D01*
X224774292Y-142816406D01*
X224800996Y-142867761D01*
X224830841Y-142918072D01*
X224863827Y-142967339D01*
X224899955Y-143015561D01*
X224939225Y-143062740D01*
X224981636Y-143108874D01*
X225027189Y-143153965D01*
X225075883Y-143198011D01*
X225127655Y-143240033D01*
X225182440Y-143279344D01*
X225240239Y-143315943D01*
X225301051Y-143349832D01*
X225364876Y-143381010D01*
X225431715Y-143409476D01*
X225501567Y-143435232D01*
X225574432Y-143458276D01*
X225650310Y-143478609D01*
X225729202Y-143496231D01*
X225811108Y-143511142D01*
X225896026Y-143523342D01*
X225983958Y-143532831D01*
X226074904Y-143539609D01*
X226168862Y-143543675D01*
X226216972Y-143544692D01*
X226265835Y-143545031D01*
X226354206Y-143543927D01*
X226440242Y-143540616D01*
X226523943Y-143535098D01*
X226605308Y-143527372D01*
X226684337Y-143517439D01*
X226761031Y-143505299D01*
X226835389Y-143490951D01*
X226907412Y-143474396D01*
X226977099Y-143455633D01*
X227044450Y-143434664D01*
X227109466Y-143411487D01*
X227172146Y-143386102D01*
X227232491Y-143358510D01*
X227290500Y-143328711D01*
X227346174Y-143296705D01*
X227399512Y-143262491D01*
X227450414Y-143226381D01*
X227499072Y-143188687D01*
X227545485Y-143149408D01*
X227589655Y-143108545D01*
X227631581Y-143066097D01*
X227671263Y-143022064D01*
X227708701Y-142976447D01*
X227743895Y-142929246D01*
X227776844Y-142880460D01*
X227807550Y-142830089D01*
X227836012Y-142778134D01*
X227862230Y-142724595D01*
X227886204Y-142669471D01*
X227907934Y-142612762D01*
X227927420Y-142554469D01*
X227944662Y-142494591D01*
G37*
G36*
X223881243Y-139418304D02*
G01*
X223881243Y-138592958D01*
X222953902Y-138592958D01*
X222953902Y-139418304D01*
X223881243Y-139418304D01*
G37*
G36*
X223881243Y-143470000D02*
G01*
X223881243Y-139943524D01*
X222953902Y-139943524D01*
X222953902Y-143470000D01*
X223881243Y-143470000D01*
G37*
G36*
X222386477Y-143470000D02*
G01*
X222386477Y-142869748D01*
X221074599Y-141200300D01*
X221034812Y-141149943D01*
X220996344Y-141101454D01*
X220959195Y-141054835D01*
X220923364Y-141010083D01*
X220888853Y-140967200D01*
X220855660Y-140926186D01*
X220823786Y-140887040D01*
X220793232Y-140849762D01*
X220749872Y-140797349D01*
X220709481Y-140749140D01*
X220672057Y-140705135D01*
X220637600Y-140665334D01*
X220606111Y-140629738D01*
X220596274Y-140618806D01*
X220649323Y-140618806D01*
X220707351Y-140618806D01*
X220757360Y-140618806D01*
X220810556Y-140618806D01*
X220866939Y-140618806D01*
X220926510Y-140618806D01*
X220989269Y-140618806D01*
X221021843Y-140618806D01*
X222258689Y-140618806D01*
X222258689Y-139943524D01*
X219362945Y-139943524D01*
X219362945Y-140543775D01*
X220701787Y-142234326D01*
X221173078Y-142794717D01*
X221126009Y-142794717D01*
X221059700Y-142794717D01*
X220998542Y-142794717D01*
X220942536Y-142794717D01*
X220891683Y-142794717D01*
X220831892Y-142794717D01*
X220781261Y-142794717D01*
X220730851Y-142794717D01*
X220694753Y-142794717D01*
X219260950Y-142794717D01*
X219260950Y-143470000D01*
X222386477Y-143470000D01*
G37*
G36*
X217406789Y-139870429D02*
G01*
X217491007Y-139876241D01*
X217573338Y-139885927D01*
X217653783Y-139899487D01*
X217732341Y-139916921D01*
X217809011Y-139938230D01*
X217883796Y-139963413D01*
X217956693Y-139992470D01*
X218027703Y-140025401D01*
X218096827Y-140062207D01*
X218164064Y-140102887D01*
X218229414Y-140147442D01*
X218292878Y-140195871D01*
X218354455Y-140248174D01*
X218414144Y-140304351D01*
X218471948Y-140364403D01*
X218527030Y-140427729D01*
X218578560Y-140494023D01*
X218626535Y-140563284D01*
X218670957Y-140635512D01*
X218711825Y-140710709D01*
X218749139Y-140788872D01*
X218782899Y-140870004D01*
X218813106Y-140954103D01*
X218839759Y-141041169D01*
X218862858Y-141131203D01*
X218873075Y-141177333D01*
X218882404Y-141224205D01*
X218890844Y-141271818D01*
X218898396Y-141320174D01*
X218905059Y-141369271D01*
X218910834Y-141419111D01*
X218915720Y-141469692D01*
X218919718Y-141521015D01*
X218922827Y-141573080D01*
X218925049Y-141625887D01*
X218926381Y-141679435D01*
X218926825Y-141733726D01*
X218925474Y-141824190D01*
X218921422Y-141912695D01*
X218914667Y-141999239D01*
X218905210Y-142083824D01*
X218893051Y-142166448D01*
X218878191Y-142247112D01*
X218860628Y-142325816D01*
X218840363Y-142402561D01*
X218817397Y-142477345D01*
X218791729Y-142550169D01*
X218763358Y-142621033D01*
X218732286Y-142689937D01*
X218698512Y-142756881D01*
X218662036Y-142821864D01*
X218622858Y-142884888D01*
X218580978Y-142945952D01*
X218524310Y-143018497D01*
X218463924Y-143086361D01*
X218399820Y-143149545D01*
X218331996Y-143208049D01*
X218260455Y-143261873D01*
X218185194Y-143311016D01*
X218106215Y-143355479D01*
X218023518Y-143395261D01*
X217937102Y-143430363D01*
X217892499Y-143446159D01*
X217846967Y-143460785D01*
X217800505Y-143474241D01*
X217753113Y-143486527D01*
X217704792Y-143497643D01*
X217655541Y-143507588D01*
X217605361Y-143516364D01*
X217554251Y-143523970D01*
X217502211Y-143530405D01*
X217449242Y-143535670D01*
X217395343Y-143539766D01*
X217340514Y-143542691D01*
X217284756Y-143544446D01*
X217228068Y-143545031D01*
X217156723Y-143544060D01*
X217086889Y-143541147D01*
X217018567Y-143536293D01*
X216951756Y-143529497D01*
X216886456Y-143520759D01*
X216822667Y-143510080D01*
X216760390Y-143497459D01*
X216699624Y-143482896D01*
X216640369Y-143466391D01*
X216582625Y-143447944D01*
X216526393Y-143427556D01*
X216471672Y-143405226D01*
X216418462Y-143380955D01*
X216366764Y-143354741D01*
X216316576Y-143326586D01*
X216267900Y-143296489D01*
X216220639Y-143264387D01*
X216174990Y-143230507D01*
X216130953Y-143194851D01*
X216088528Y-143157418D01*
X216047715Y-143118207D01*
X216008514Y-143077220D01*
X215970925Y-143034456D01*
X215934948Y-142989916D01*
X215900583Y-142943598D01*
X215867830Y-142895504D01*
X215836689Y-142845632D01*
X215807160Y-142793984D01*
X215779243Y-142740559D01*
X215752938Y-142685357D01*
X215728246Y-142628378D01*
X215705165Y-142569623D01*
X216628989Y-142419560D01*
X216643916Y-142462819D01*
X216665806Y-142516941D01*
X216689968Y-142566995D01*
X216716401Y-142612983D01*
X216745106Y-142654904D01*
X216776082Y-142692759D01*
X216809329Y-142726547D01*
X216854083Y-142763063D01*
X216872818Y-142775982D01*
X216922019Y-142804633D01*
X216974598Y-142828074D01*
X217019093Y-142843077D01*
X217065750Y-142854746D01*
X217114568Y-142863080D01*
X217165548Y-142868081D01*
X217218689Y-142869748D01*
X217258283Y-142868823D01*
X217316130Y-142863967D01*
X217372122Y-142854947D01*
X217426259Y-142841765D01*
X217478542Y-142824420D01*
X217528969Y-142802912D01*
X217577542Y-142777241D01*
X217624261Y-142747408D01*
X217669124Y-142713411D01*
X217712133Y-142675252D01*
X217753287Y-142632930D01*
X217766496Y-142617944D01*
X217803717Y-142570758D01*
X217837333Y-142520234D01*
X217867341Y-142466372D01*
X217893743Y-142409171D01*
X217916539Y-142348632D01*
X217935729Y-142284754D01*
X217951312Y-142217537D01*
X217959697Y-142170872D01*
X217966479Y-142122722D01*
X217971659Y-142073089D01*
X217975235Y-142021972D01*
X217977209Y-141969371D01*
X215655925Y-141969371D01*
X215655141Y-141903230D01*
X215655280Y-141838163D01*
X215656341Y-141774169D01*
X215658325Y-141711250D01*
X215661232Y-141649404D01*
X215665061Y-141588632D01*
X215669814Y-141528934D01*
X215675489Y-141470310D01*
X215682087Y-141412760D01*
X215687899Y-141369120D01*
X216576232Y-141369120D01*
X217960796Y-141369120D01*
X217960448Y-141322111D01*
X217956972Y-141253916D01*
X217949952Y-141188503D01*
X217939387Y-141125872D01*
X217925277Y-141066022D01*
X217907623Y-141008956D01*
X217886424Y-140954671D01*
X217861681Y-140903168D01*
X217833393Y-140854447D01*
X217801560Y-140808508D01*
X217766183Y-140765352D01*
X217741010Y-140738520D01*
X217701720Y-140701519D01*
X217660597Y-140668412D01*
X217617640Y-140639200D01*
X217572848Y-140613883D01*
X217526223Y-140592461D01*
X217477763Y-140574934D01*
X217427469Y-140561302D01*
X217375341Y-140551565D01*
X217321379Y-140545722D01*
X217265583Y-140543775D01*
X217230454Y-140544599D01*
X217179013Y-140548927D01*
X217129076Y-140556964D01*
X217080644Y-140568710D01*
X217033716Y-140584166D01*
X216988292Y-140603332D01*
X216944373Y-140626207D01*
X216901959Y-140652791D01*
X216861048Y-140683085D01*
X216821643Y-140717088D01*
X216783741Y-140754801D01*
X216759712Y-140781793D01*
X216726434Y-140825131D01*
X216696473Y-140871891D01*
X216669830Y-140922071D01*
X216646506Y-140975672D01*
X216626499Y-141032695D01*
X216609810Y-141093138D01*
X216596438Y-141157002D01*
X216586385Y-141224287D01*
X216581526Y-141271045D01*
X216578142Y-141319322D01*
X216576232Y-141369120D01*
X215687899Y-141369120D01*
X215689608Y-141356284D01*
X215698051Y-141300881D01*
X215707418Y-141246553D01*
X215717707Y-141193299D01*
X215728919Y-141141118D01*
X215741053Y-141090011D01*
X215754111Y-141039979D01*
X215768091Y-140991020D01*
X215782994Y-140943135D01*
X215798820Y-140896324D01*
X215815568Y-140850587D01*
X215833240Y-140805923D01*
X215851834Y-140762334D01*
X215891791Y-140678377D01*
X215935438Y-140598716D01*
X215982777Y-140523350D01*
X216033807Y-140452280D01*
X216088528Y-140385505D01*
X216117060Y-140353697D01*
X216176054Y-140293110D01*
X216237621Y-140236561D01*
X216301762Y-140184052D01*
X216368477Y-140135582D01*
X216437766Y-140091151D01*
X216509628Y-140050760D01*
X216584064Y-140014407D01*
X216661074Y-139982094D01*
X216740658Y-139953820D01*
X216822815Y-139929585D01*
X216907546Y-139909389D01*
X216994850Y-139893232D01*
X217084729Y-139881115D01*
X217177181Y-139873036D01*
X217224372Y-139870512D01*
X217272206Y-139868997D01*
X217320684Y-139868492D01*
X217406789Y-139870429D01*
G37*
G36*
X214032199Y-143470000D02*
G01*
X214958368Y-143470000D01*
X214958368Y-139943524D01*
X214097851Y-139943524D01*
X214097851Y-140441779D01*
X214070475Y-140398617D01*
X214043446Y-140357350D01*
X214016766Y-140317980D01*
X213977398Y-140262479D01*
X213938813Y-140211244D01*
X213901011Y-140164275D01*
X213863992Y-140121572D01*
X213827756Y-140083135D01*
X213792303Y-140048963D01*
X213746251Y-140010037D01*
X213701592Y-139978695D01*
X213656584Y-139952866D01*
X213610074Y-139930481D01*
X213562062Y-139911540D01*
X213512548Y-139896043D01*
X213461531Y-139883989D01*
X213409013Y-139875380D01*
X213354993Y-139870214D01*
X213299470Y-139868492D01*
X213240325Y-139870161D01*
X213181593Y-139875169D01*
X213123272Y-139883515D01*
X213065363Y-139895200D01*
X213007867Y-139910223D01*
X212950783Y-139928585D01*
X212894111Y-139950285D01*
X212837851Y-139975324D01*
X212782004Y-140003701D01*
X212726568Y-140035417D01*
X212689840Y-140058415D01*
X212977070Y-140921277D01*
X213020735Y-140894040D01*
X213063802Y-140869482D01*
X213106271Y-140847603D01*
X213161968Y-140822599D01*
X213216602Y-140802357D01*
X213270174Y-140786878D01*
X213322683Y-140776162D01*
X213374130Y-140770209D01*
X213412017Y-140768869D01*
X213459755Y-140770518D01*
X213516850Y-140777215D01*
X213571084Y-140789065D01*
X213622455Y-140806066D01*
X213670964Y-140828220D01*
X213716610Y-140855526D01*
X213742624Y-140874382D01*
X213783354Y-140911505D01*
X213813918Y-140947180D01*
X213842687Y-140988167D01*
X213869660Y-141034466D01*
X213894839Y-141086077D01*
X213918222Y-141143001D01*
X213934581Y-141189180D01*
X213949931Y-141238348D01*
X213954823Y-141255401D01*
X213968651Y-141312145D01*
X213981118Y-141379502D01*
X213988675Y-141430303D01*
X213995626Y-141485821D01*
X214001974Y-141546056D01*
X214007716Y-141611008D01*
X214012855Y-141680676D01*
X214017389Y-141755062D01*
X214021318Y-141834165D01*
X214024643Y-141917984D01*
X214027363Y-142006521D01*
X214029479Y-142099774D01*
X214030310Y-142148170D01*
X214030990Y-142197745D01*
X214031519Y-142248499D01*
X214031897Y-142300432D01*
X214032123Y-142353544D01*
X214032199Y-142407836D01*
X214032199Y-143470000D01*
G37*
D12*
X319532000Y-242570000D02*
X324612000Y-242570000D01*
D10*
X267704762Y-125400057D02*
X267752381Y-125352438D01*
X267752381Y-125352438D02*
X267847619Y-125304819D01*
X267847619Y-125304819D02*
X268085714Y-125304819D01*
X268085714Y-125304819D02*
X268180952Y-125352438D01*
X268180952Y-125352438D02*
X268228571Y-125400057D01*
X268228571Y-125400057D02*
X268276190Y-125495295D01*
X268276190Y-125495295D02*
X268276190Y-125590533D01*
X268276190Y-125590533D02*
X268228571Y-125733390D01*
X268228571Y-125733390D02*
X267657143Y-126304819D01*
X267657143Y-126304819D02*
X268276190Y-126304819D01*
X269180952Y-125304819D02*
X268704762Y-125304819D01*
X268704762Y-125304819D02*
X268657143Y-125781009D01*
X268657143Y-125781009D02*
X268704762Y-125733390D01*
X268704762Y-125733390D02*
X268800000Y-125685771D01*
X268800000Y-125685771D02*
X269038095Y-125685771D01*
X269038095Y-125685771D02*
X269133333Y-125733390D01*
X269133333Y-125733390D02*
X269180952Y-125781009D01*
X269180952Y-125781009D02*
X269228571Y-125876247D01*
X269228571Y-125876247D02*
X269228571Y-126114342D01*
X269228571Y-126114342D02*
X269180952Y-126209580D01*
X269180952Y-126209580D02*
X269133333Y-126257200D01*
X269133333Y-126257200D02*
X269038095Y-126304819D01*
X269038095Y-126304819D02*
X268800000Y-126304819D01*
X268800000Y-126304819D02*
X268704762Y-126257200D01*
X268704762Y-126257200D02*
X268657143Y-126209580D01*
X270085714Y-125638152D02*
X270085714Y-126304819D01*
X269847619Y-125257200D02*
X269609524Y-125971485D01*
X269609524Y-125971485D02*
X270228571Y-125971485D01*
X270609524Y-126209580D02*
X270657143Y-126257200D01*
X270657143Y-126257200D02*
X270609524Y-126304819D01*
X270609524Y-126304819D02*
X270561905Y-126257200D01*
X270561905Y-126257200D02*
X270609524Y-126209580D01*
X270609524Y-126209580D02*
X270609524Y-126304819D01*
X271276190Y-125304819D02*
X271371428Y-125304819D01*
X271371428Y-125304819D02*
X271466666Y-125352438D01*
X271466666Y-125352438D02*
X271514285Y-125400057D01*
X271514285Y-125400057D02*
X271561904Y-125495295D01*
X271561904Y-125495295D02*
X271609523Y-125685771D01*
X271609523Y-125685771D02*
X271609523Y-125923866D01*
X271609523Y-125923866D02*
X271561904Y-126114342D01*
X271561904Y-126114342D02*
X271514285Y-126209580D01*
X271514285Y-126209580D02*
X271466666Y-126257200D01*
X271466666Y-126257200D02*
X271371428Y-126304819D01*
X271371428Y-126304819D02*
X271276190Y-126304819D01*
X271276190Y-126304819D02*
X271180952Y-126257200D01*
X271180952Y-126257200D02*
X271133333Y-126209580D01*
X271133333Y-126209580D02*
X271085714Y-126114342D01*
X271085714Y-126114342D02*
X271038095Y-125923866D01*
X271038095Y-125923866D02*
X271038095Y-125685771D01*
X271038095Y-125685771D02*
X271085714Y-125495295D01*
X271085714Y-125495295D02*
X271133333Y-125400057D01*
X271133333Y-125400057D02*
X271180952Y-125352438D01*
X271180952Y-125352438D02*
X271276190Y-125304819D01*
X272228571Y-125304819D02*
X272323809Y-125304819D01*
X272323809Y-125304819D02*
X272419047Y-125352438D01*
X272419047Y-125352438D02*
X272466666Y-125400057D01*
X272466666Y-125400057D02*
X272514285Y-125495295D01*
X272514285Y-125495295D02*
X272561904Y-125685771D01*
X272561904Y-125685771D02*
X272561904Y-125923866D01*
X272561904Y-125923866D02*
X272514285Y-126114342D01*
X272514285Y-126114342D02*
X272466666Y-126209580D01*
X272466666Y-126209580D02*
X272419047Y-126257200D01*
X272419047Y-126257200D02*
X272323809Y-126304819D01*
X272323809Y-126304819D02*
X272228571Y-126304819D01*
X272228571Y-126304819D02*
X272133333Y-126257200D01*
X272133333Y-126257200D02*
X272085714Y-126209580D01*
X272085714Y-126209580D02*
X272038095Y-126114342D01*
X272038095Y-126114342D02*
X271990476Y-125923866D01*
X271990476Y-125923866D02*
X271990476Y-125685771D01*
X271990476Y-125685771D02*
X272038095Y-125495295D01*
X272038095Y-125495295D02*
X272085714Y-125400057D01*
X272085714Y-125400057D02*
X272133333Y-125352438D01*
X272133333Y-125352438D02*
X272228571Y-125304819D01*
X273180952Y-125304819D02*
X273276190Y-125304819D01*
X273276190Y-125304819D02*
X273371428Y-125352438D01*
X273371428Y-125352438D02*
X273419047Y-125400057D01*
X273419047Y-125400057D02*
X273466666Y-125495295D01*
X273466666Y-125495295D02*
X273514285Y-125685771D01*
X273514285Y-125685771D02*
X273514285Y-125923866D01*
X273514285Y-125923866D02*
X273466666Y-126114342D01*
X273466666Y-126114342D02*
X273419047Y-126209580D01*
X273419047Y-126209580D02*
X273371428Y-126257200D01*
X273371428Y-126257200D02*
X273276190Y-126304819D01*
X273276190Y-126304819D02*
X273180952Y-126304819D01*
X273180952Y-126304819D02*
X273085714Y-126257200D01*
X273085714Y-126257200D02*
X273038095Y-126209580D01*
X273038095Y-126209580D02*
X272990476Y-126114342D01*
X272990476Y-126114342D02*
X272942857Y-125923866D01*
X272942857Y-125923866D02*
X272942857Y-125685771D01*
X272942857Y-125685771D02*
X272990476Y-125495295D01*
X272990476Y-125495295D02*
X273038095Y-125400057D01*
X273038095Y-125400057D02*
X273085714Y-125352438D01*
X273085714Y-125352438D02*
X273180952Y-125304819D01*
X274133333Y-125304819D02*
X274228571Y-125304819D01*
X274228571Y-125304819D02*
X274323809Y-125352438D01*
X274323809Y-125352438D02*
X274371428Y-125400057D01*
X274371428Y-125400057D02*
X274419047Y-125495295D01*
X274419047Y-125495295D02*
X274466666Y-125685771D01*
X274466666Y-125685771D02*
X274466666Y-125923866D01*
X274466666Y-125923866D02*
X274419047Y-126114342D01*
X274419047Y-126114342D02*
X274371428Y-126209580D01*
X274371428Y-126209580D02*
X274323809Y-126257200D01*
X274323809Y-126257200D02*
X274228571Y-126304819D01*
X274228571Y-126304819D02*
X274133333Y-126304819D01*
X274133333Y-126304819D02*
X274038095Y-126257200D01*
X274038095Y-126257200D02*
X273990476Y-126209580D01*
X273990476Y-126209580D02*
X273942857Y-126114342D01*
X273942857Y-126114342D02*
X273895238Y-125923866D01*
X273895238Y-125923866D02*
X273895238Y-125685771D01*
X273895238Y-125685771D02*
X273942857Y-125495295D01*
X273942857Y-125495295D02*
X273990476Y-125400057D01*
X273990476Y-125400057D02*
X274038095Y-125352438D01*
X274038095Y-125352438D02*
X274133333Y-125304819D01*
X275657143Y-126304819D02*
X275657143Y-125638152D01*
X275657143Y-125733390D02*
X275704762Y-125685771D01*
X275704762Y-125685771D02*
X275800000Y-125638152D01*
X275800000Y-125638152D02*
X275942857Y-125638152D01*
X275942857Y-125638152D02*
X276038095Y-125685771D01*
X276038095Y-125685771D02*
X276085714Y-125781009D01*
X276085714Y-125781009D02*
X276085714Y-126304819D01*
X276085714Y-125781009D02*
X276133333Y-125685771D01*
X276133333Y-125685771D02*
X276228571Y-125638152D01*
X276228571Y-125638152D02*
X276371428Y-125638152D01*
X276371428Y-125638152D02*
X276466667Y-125685771D01*
X276466667Y-125685771D02*
X276514286Y-125781009D01*
X276514286Y-125781009D02*
X276514286Y-126304819D01*
X276990476Y-126304819D02*
X276990476Y-125638152D01*
X276990476Y-125733390D02*
X277038095Y-125685771D01*
X277038095Y-125685771D02*
X277133333Y-125638152D01*
X277133333Y-125638152D02*
X277276190Y-125638152D01*
X277276190Y-125638152D02*
X277371428Y-125685771D01*
X277371428Y-125685771D02*
X277419047Y-125781009D01*
X277419047Y-125781009D02*
X277419047Y-126304819D01*
X277419047Y-125781009D02*
X277466666Y-125685771D01*
X277466666Y-125685771D02*
X277561904Y-125638152D01*
X277561904Y-125638152D02*
X277704761Y-125638152D01*
X277704761Y-125638152D02*
X277800000Y-125685771D01*
X277800000Y-125685771D02*
X277847619Y-125781009D01*
X277847619Y-125781009D02*
X277847619Y-126304819D01*
X145800000Y-136500000D02*
X145800000Y-126413580D01*
X399800000Y-136500000D02*
X399800000Y-126413580D01*
X145800000Y-127000000D02*
X399800000Y-127000000D01*
X145800000Y-127000000D02*
X399800000Y-127000000D01*
X145800000Y-127000000D02*
X146926504Y-126413579D01*
X145800000Y-127000000D02*
X146926504Y-127586421D01*
X399800000Y-127000000D02*
X398673496Y-127586421D01*
X399800000Y-127000000D02*
X398673496Y-126413579D01*
X322405333Y-243294819D02*
X322405333Y-244009104D01*
X322405333Y-244009104D02*
X322452952Y-244151961D01*
X322452952Y-244151961D02*
X322548190Y-244247200D01*
X322548190Y-244247200D02*
X322691047Y-244294819D01*
X322691047Y-244294819D02*
X322786285Y-244294819D01*
X321452952Y-243294819D02*
X321929142Y-243294819D01*
X321929142Y-243294819D02*
X321976761Y-243771009D01*
X321976761Y-243771009D02*
X321929142Y-243723390D01*
X321929142Y-243723390D02*
X321833904Y-243675771D01*
X321833904Y-243675771D02*
X321595809Y-243675771D01*
X321595809Y-243675771D02*
X321500571Y-243723390D01*
X321500571Y-243723390D02*
X321452952Y-243771009D01*
X321452952Y-243771009D02*
X321405333Y-243866247D01*
X321405333Y-243866247D02*
X321405333Y-244104342D01*
X321405333Y-244104342D02*
X321452952Y-244199580D01*
X321452952Y-244199580D02*
X321500571Y-244247200D01*
X321500571Y-244247200D02*
X321595809Y-244294819D01*
X321595809Y-244294819D02*
X321833904Y-244294819D01*
X321833904Y-244294819D02*
X321929142Y-244247200D01*
X321929142Y-244247200D02*
X321976761Y-244199580D01*
D13*
%TO.C,J5*%
X322067000Y-239253000D02*
X322067000Y-241853000D01*
X319467000Y-239253000D02*
X319467000Y-221413000D01*
X324667000Y-241853000D02*
X324667000Y-221413000D01*
X319467000Y-239253000D02*
X322067000Y-239253000D01*
X319467000Y-221413000D02*
X324667000Y-221413000D01*
X322067000Y-241853000D02*
X324667000Y-241853000D01*
X319467000Y-240523000D02*
X319467000Y-241853000D01*
X319467000Y-241853000D02*
X320797000Y-241853000D01*
%TD*%
M02*
